<?xml version="1.0" encoding="utf-8"?>
<!-- Generator: Adobe Illustrator 16.0.0, SVG Export Plug-In . SVG Version: 6.00 Build 0)  -->
<!DOCTYPE svg PUBLIC "-//W3C//DTD SVG 1.1//EN" "http://www.w3.org/Graphics/SVG/1.1/DTD/svg11.dtd">
<svg version="1.1" id="Layer_1" xmlns="http://www.w3.org/2000/svg" xmlns:xlink="http://www.w3.org/1999/xlink" x="0px" y="0px"
	 width="80px" height="80px" viewBox="0 0 80 80" enable-background="new 0 0 80 80" xml:space="preserve">
<g transform="translate(1 1)">
	<g>
		<g>
			<path fill="#FFFFFF" d="M75.603,59.621h-0.516V15.802c0-2.836-2.32-5.156-5.155-5.156H8.069c-2.835,0-5.155,2.32-5.155,5.156
				v43.819H2.398c-1.16,0-2.062,0.901-2.062,2.062v3.609c0,1.16,0.902,2.063,2.062,2.063h73.205c1.159,0,2.062-0.902,2.062-2.063
				v-3.609C77.664,60.522,76.762,59.621,75.603,59.621z M5.491,15.802c0-1.418,1.16-2.578,2.578-2.578h61.863
				c1.417,0,2.576,1.16,2.576,2.578v43.819H45.702l-0.259,0.901c-0.015,0.017-0.034,0.035-0.053,0.055
				c-0.14,0.136-0.365,0.332-0.591,0.332H34.489c-0.193,0-0.322-0.032-0.419-0.097c-0.097-0.063-0.161-0.16-0.226-0.29l-0.258-0.901
				H5.491V15.802z M75.087,64.775H2.914v-2.577h28.998c0.645,0.773,1.546,1.29,2.578,1.29H44.8c1.03,0,1.933-0.517,2.577-1.29h27.71
				V64.775L75.087,64.775z"/>
			<path fill="#FFFFFF" d="M69.932,55.755V17.09c0-0.773-0.516-1.288-1.29-1.288H9.358c-0.774,0-1.289,0.515-1.289,1.288v38.665
				c0,0.772,0.515,1.288,1.289,1.288h59.284C69.416,57.043,69.932,56.527,69.932,55.755z M67.354,54.466H10.646V18.379h56.708
				V54.466L67.354,54.466z"/>
			<path fill="#FFFFFF" d="M23.921,37.324l7.733,7.733c0.258,0.258,0.515,0.386,0.902,0.386c0.387,0,0.644-0.128,0.902-0.386
				c0.516-0.516,0.516-1.289,0-1.804l-6.831-6.832l6.702-6.959c0.516-0.516,0.516-1.289,0-1.805s-1.289-0.516-1.804,0l-7.733,7.732
				c-0.387,0.387-0.516,0.902-0.258,1.418C23.663,37.066,23.792,37.195,23.921,37.324z"/>
			<path fill="#FFFFFF" d="M44.542,45.058c0.258,0.258,0.516,0.386,0.901,0.386c0.387,0,0.646-0.128,0.902-0.386l7.732-7.733
				c0.516-0.516,0.516-1.288,0-1.805l-7.732-7.732c-0.516-0.516-1.288-0.516-1.805,0c-0.516,0.516-0.516,1.289,0,1.805l6.831,6.83
				l-6.831,6.832C44.026,43.769,44.026,44.542,44.542,45.058z"/>
			<path fill="#FFFFFF" d="M37.453,45.443c0.129,0,0.129,0,0.258,0c0.645,0,1.16-0.386,1.289-1.03l2.577-15.466
				c0.129-0.773-0.387-1.418-1.031-1.547c-0.773-0.129-1.417,0.387-1.546,1.031l-2.578,15.466
				C36.294,44.671,36.809,45.315,37.453,45.443z"/>
		</g>
	</g>
</g>
</svg>
