<?xml version="1.0" encoding="utf-8"?>
<!-- Generator: Adobe Illustrator 16.0.0, SVG Export Plug-In . SVG Version: 6.00 Build 0)  -->
<!DOCTYPE svg PUBLIC "-//W3C//DTD SVG 1.1//EN" "http://www.w3.org/Graphics/SVG/1.1/DTD/svg11.dtd">
<svg version="1.1" id="Layer_1" xmlns="http://www.w3.org/2000/svg" xmlns:xlink="http://www.w3.org/1999/xlink" x="0px" y="0px"
	 width="80px" height="80px" viewBox="0 0 80 80" enable-background="new 0 0 80 80" xml:space="preserve">
<g>
	<g>
		<g>
			<path fill="#C8C8C8" d="M56.318,11.198H8.121c-2.231,0-4.046,1.815-4.046,4.045V44.16c0,2.23,1.815,4.045,4.046,4.045h3.125
				v10.766c0,0.686,0.413,1.305,1.046,1.565c0.209,0.088,0.43,0.129,0.648,0.129c0.441,0,0.875-0.172,1.199-0.496l11.963-11.962h2.4
				c0.937,0,1.695-0.76,1.695-1.695c0-0.938-0.759-1.695-1.695-1.695c0,0-3.184,0.002-3.217,0.007
				c-0.395,0.024-0.782,0.188-1.083,0.489l-9.566,9.565c0,0-0.003-8.474-0.008-8.519c-0.077-0.865-0.802-1.543-1.688-1.543H8.121
				c-0.362,0-0.656-0.295-0.656-0.656V15.244c0-0.361,0.294-0.656,0.656-0.656h48.197c0.361,0,0.656,0.294,0.656,0.656v11.094
				c0,0.936,0.76,1.695,1.694,1.695s1.694-0.759,1.694-1.695V15.244C60.365,13.013,58.55,11.198,56.318,11.198z"/>
		</g>
	</g>
	<g>
		<g>
			<path fill="#C8C8C8" d="M71.879,31.93H38.141c-2.231,0-4.046,1.815-4.046,4.046v19.727c0,2.23,1.815,4.045,4.046,4.045h21.123
				l8.557,8.559c0.324,0.324,0.759,0.496,1.199,0.496c0.219,0,0.438-0.043,0.648-0.129c0.633-0.262,1.046-0.881,1.046-1.566v-7.358
				h1.165c2.23,0,4.046-1.813,4.046-4.045V35.976C75.925,33.745,74.109,31.93,71.879,31.93z M72.535,55.702
				c0,0.36-0.294,0.655-0.656,0.655H69.02c-0.892,0-1.621,0.689-1.688,1.564c-0.004,0.037-0.007,5.092-0.007,5.092l-6.155-6.154
				c-0.006-0.006-0.013-0.012-0.02-0.02c-0.024-0.023-0.047-0.043-0.068-0.061c-0.299-0.262-0.688-0.422-1.116-0.422H38.141
				c-0.362,0-0.656-0.295-0.656-0.656V35.976c0-0.362,0.294-0.656,0.656-0.656h33.738c0.362,0,0.656,0.294,0.656,0.656V55.702z"/>
		</g>
	</g>
	<g>
		<g>
			<path fill="#C8C8C8" d="M55.012,44.145c-0.937,0-1.695,0.76-1.695,1.695s0.76,1.693,1.695,1.693c0.934,0,1.693-0.758,1.693-1.693
				S55.945,44.145,55.012,44.145z"/>
		</g>
	</g>
	<g>
		<g>
			<path fill="#C8C8C8" d="M47.645,22.404H16.796c-0.936,0-1.695,0.759-1.695,1.695s0.759,1.695,1.695,1.695h30.849
				c0.936,0,1.693-0.759,1.693-1.695C49.339,23.163,48.58,22.404,47.645,22.404z"/>
		</g>
	</g>
	<g>
		<g>
			<path fill="#C8C8C8" d="M28.503,33.61H16.796c-0.936,0-1.695,0.759-1.695,1.695S15.86,37,16.796,37h11.707
				c0.936,0,1.695-0.759,1.695-1.695S29.439,33.61,28.503,33.61z"/>
		</g>
	</g>
	<g>
		<g>
			<path fill="#C8C8C8" d="M47.134,44.145c-0.936,0-1.694,0.76-1.694,1.695s0.76,1.693,1.694,1.693c0.937,0,1.695-0.758,1.695-1.693
				S48.07,44.145,47.134,44.145z"/>
		</g>
	</g>
	<g>
		<g>
			<path fill="#C8C8C8" d="M62.885,44.145c-0.936,0-1.693,0.76-1.693,1.695s0.759,1.693,1.693,1.693
				c0.938,0,1.695-0.758,1.695-1.693S63.82,44.145,62.885,44.145z"/>
		</g>
	</g>
</g>
</svg>
