<?xml version="1.0" encoding="utf-8"?>
<!-- Generator: Adobe Illustrator 16.0.0, SVG Export Plug-In . SVG Version: 6.00 Build 0)  -->
<!DOCTYPE svg PUBLIC "-//W3C//DTD SVG 1.1//EN" "http://www.w3.org/Graphics/SVG/1.1/DTD/svg11.dtd">
<svg version="1.1" id="Layer_1" xmlns="http://www.w3.org/2000/svg" xmlns:xlink="http://www.w3.org/1999/xlink" x="0px" y="0px"
	 width="45px" height="45px" viewBox="0 0 45 45" enable-background="new 0 0 45 45" xml:space="preserve">
<g>
	<path fill-rule="evenodd" clip-rule="evenodd" fill="#FFFFFF" d="M22.713,31.769c-0.143,0-0.285,0-0.427,0
		c-0.052-0.008-0.104-0.021-0.157-0.023c-1.694-0.067-3.256-0.562-4.658-1.509c-2.149-1.452-3.474-3.458-3.946-6.015
		c-0.063-0.343-0.096-0.69-0.143-1.036c0-0.355,0-0.712,0-1.068c0.011-0.063,0.024-0.126,0.033-0.19
		c0.054-0.381,0.084-0.767,0.165-1.143c0.434-2.021,1.439-3.711,3.01-5.055c1.35-1.154,2.909-1.854,4.671-2.093
		c0.34-0.046,0.683-0.069,1.024-0.102c0.143,0,0.285,0,0.427,0c0.064,0.008,0.128,0.018,0.192,0.025
		c0.477,0.058,0.96,0.083,1.428,0.18c2.053,0.422,3.775,1.431,5.117,3.038c1.883,2.257,2.541,4.856,1.967,7.736
		c-0.41,2.054-1.46,3.755-3.061,5.104c-1.338,1.128-2.88,1.814-4.618,2.047C23.398,31.712,23.056,31.735,22.713,31.769z
		 M17.821,28.749c0.006,0.01,0.012,0.021,0.02,0.028c0.013,0.012,0.027,0.023,0.042,0.033c2.294,1.635,4.766,1.974,7.418,1.019
		c0.142-0.051,0.171-0.114,0.143-0.257c-0.297-1.531-0.698-3.035-1.203-4.51c-0.124-0.362-0.262-0.72-0.393-1.078
		C21.069,24.917,18.799,26.851,17.821,28.749z M16.746,27.739c0.773-1.194,1.704-2.247,2.812-3.141
		c1.113-0.899,2.347-1.571,3.73-1.992c-0.175-0.362-0.345-0.701-0.5-1.047c-0.062-0.137-0.125-0.173-0.28-0.129
		c-2.162,0.608-4.368,0.939-6.612,1.018c-0.359,0.013-0.72,0.002-1.077,0.002C14.719,24.309,15.484,26.414,16.746,27.739z
		 M19.2,15.73c-1.023,0.407-2.301,1.493-3.028,2.556c-0.571,0.834-0.976,1.737-1.19,2.73c1.175,0.148,5.91-0.479,7.016-0.929
		C21.142,18.586,20.203,17.142,19.2,15.73z M20.831,15.177c0.93,1.457,1.865,2.924,2.817,4.417c1.49-0.583,2.861-1.409,3.924-2.696
		C25.569,15.086,22.743,14.65,20.831,15.177z M28.493,17.856c-0.569,0.687-1.23,1.25-1.952,1.746
		c-0.72,0.495-1.487,0.901-2.302,1.241c0.209,0.471,0.409,0.931,0.621,1.385c0.017,0.037,0.119,0.054,0.179,0.048
		c1.424-0.153,2.842-0.087,4.256,0.111c0.296,0.042,0.591,0.089,0.889,0.134C30.198,21.01,29.611,19.201,28.493,17.856z
		 M25.386,23.603c0.632,1.76,1.129,3.544,1.477,5.401c1.768-1.275,2.844-2.948,3.238-5.08
		C28.546,23.496,26.995,23.371,25.386,23.603z"/>
</g>
</svg>
