<?xml version="1.0" encoding="utf-8"?>
<!-- Generator: Adobe Illustrator 16.0.0, SVG Export Plug-In . SVG Version: 6.00 Build 0)  -->
<!DOCTYPE svg PUBLIC "-//W3C//DTD SVG 1.1//EN" "http://www.w3.org/Graphics/SVG/1.1/DTD/svg11.dtd">
<svg version="1.1" id="Layer_1" xmlns="http://www.w3.org/2000/svg" xmlns:xlink="http://www.w3.org/1999/xlink" x="0px" y="0px"
	 width="45px" height="45px" viewBox="0 0 45 45" enable-background="new 0 0 45 45" xml:space="preserve">
<g>
	<path fill-rule="evenodd" clip-rule="evenodd" fill="#FFFFFF" d="M31.644,22c0,0.333,0,0.667,0,1
		c-0.039,0.318-0.066,0.636-0.119,0.952c-0.289,1.749-1.014,3.297-2.197,4.617c-1.477,1.645-3.31,2.641-5.498,2.97
		c-0.276,0.042-0.554,0.07-0.83,0.105c-0.333,0-0.667,0-1,0c-0.052-0.01-0.103-0.026-0.156-0.03
		c-0.685-0.042-1.361-0.152-2.009-0.374c-3.479-1.185-5.606-3.571-6.338-7.182c-0.068-0.337-0.095-0.681-0.141-1.021
		c0-0.357,0-0.714,0-1.072c0.011-0.052,0.028-0.102,0.033-0.154c0.106-1.442,0.522-2.79,1.284-4.017
		c1.507-2.426,3.675-3.877,6.5-4.332c0.263-0.042,0.527-0.07,0.791-0.104c0.357,0,0.714,0,1.072,0
		c0.305,0.039,0.612,0.068,0.914,0.118c1.922,0.321,3.586,1.156,4.969,2.528c1.447,1.436,2.322,3.167,2.62,5.187
		C31.579,21.459,31.608,21.729,31.644,22z M20.535,28.323c-0.129,0.021-0.234,0.041-0.339,0.055
		c-0.112,0.014-0.225,0.022-0.338,0.029c-0.958,0.054-1.778-0.371-2.1-1.26c-0.163-0.45-0.452-0.816-0.869-1.08
		c-0.113-0.07-0.273-0.255-0.247-0.32c0.065-0.163,0.267-0.135,0.426-0.113c0.512,0.069,0.873,0.37,1.125,0.796
		c0.535,0.907,1.377,1.036,2.252,0.706c0.048-0.019,0.108-0.07,0.117-0.115c0.072-0.373,0.214-0.712,0.479-0.999
		c-0.386-0.08-0.76-0.143-1.124-0.24c-0.93-0.254-1.679-0.748-2.115-1.642c-0.279-0.572-0.376-1.186-0.406-1.814
		c-0.041-0.866,0.17-1.649,0.74-2.321c0.034-0.04,0.045-0.123,0.029-0.175c-0.161-0.548-0.139-1.093,0.014-1.637
		c0.116-0.415,0.151-0.435,0.583-0.348c0.582,0.117,1.088,0.403,1.588,0.706c0.071,0.043,0.181,0.072,0.258,0.051
		c1.266-0.333,2.528-0.331,3.792-0.001c0.078,0.021,0.183-0.008,0.259-0.047c0.373-0.186,0.727-0.407,1.11-0.565
		c0.246-0.102,0.526-0.125,0.795-0.165c0.051-0.008,0.149,0.054,0.167,0.104c0.224,0.6,0.29,1.214,0.117,1.837
		c-0.035,0.124-0.022,0.206,0.06,0.304c0.323,0.385,0.541,0.827,0.629,1.322c0.152,0.863,0.066,1.707-0.244,2.524
		c-0.256,0.672-0.701,1.194-1.345,1.512c-0.363,0.181-0.758,0.304-1.149,0.423c-0.267,0.081-0.551,0.108-0.849,0.164
		c0.419,0.437,0.516,0.959,0.515,1.515c-0.002,0.684-0.002,1.368,0,2.053c0,0.452,0.242,0.624,0.671,0.474
		c3.762-1.318,5.994-5.233,5.213-9.139c-0.901-4.504-5.415-7.331-9.857-6.173c-3.812,0.993-6.354,4.613-5.945,8.536
		c0.271,2.6,1.541,4.617,3.748,6.018c0.502,0.318,1.071,0.535,1.621,0.772c0.303,0.129,0.606-0.046,0.615-0.334
		C20.546,29.271,20.535,28.808,20.535,28.323z"/>
</g>
</svg>
