<?xml version="1.0" encoding="utf-8"?>
<!-- Generator: Adobe Illustrator 16.0.0, SVG Export Plug-In . SVG Version: 6.00 Build 0)  -->
<!DOCTYPE svg PUBLIC "-//W3C//DTD SVG 1.1//EN" "http://www.w3.org/Graphics/SVG/1.1/DTD/svg11.dtd">
<svg version="1.1" id="Layer_1" xmlns="http://www.w3.org/2000/svg" xmlns:xlink="http://www.w3.org/1999/xlink" x="0px" y="0px"
	 width="80px" height="80px" viewBox="0 0 80 80" enable-background="new 0 0 80 80" xml:space="preserve">
<g>
	<g>
		<g>
			<path fill="#C8C8C8" d="M74.74,33.354L41.09,8.716c-0.65-0.476-1.531-0.476-2.179,0L5.259,33.354
				c-0.822,0.602-1,1.755-0.399,2.578c0.602,0.823,1.757,1.001,2.578,0.399L40,12.49l32.563,23.841
				c0.328,0.24,0.709,0.356,1.088,0.356c0.567,0,1.127-0.261,1.488-0.755C75.742,35.109,75.563,33.956,74.74,33.354z"/>
		</g>
	</g>
	<g>
		<g>
			<path fill="#C8C8C8" d="M65.824,36.748c-1.02,0-1.846,0.826-1.846,1.845v29.359H49.225V51.926c0-5.087-4.14-9.224-9.225-9.224
				s-9.223,4.139-9.223,9.224v16.026H16.021V38.593c0-1.02-0.827-1.845-1.845-1.845c-1.018,0-1.844,0.826-1.844,1.845v31.204
				c0,1.02,0.826,1.844,1.844,1.844h18.445c0.97,0,1.765-0.748,1.837-1.699c0.005-0.043,0.008-0.092,0.008-0.145V51.926
				c0-3.053,2.482-5.533,5.534-5.533s5.535,2.48,5.535,5.533v17.871c0,0.053,0.003,0.1,0.007,0.143
				c0.073,0.951,0.867,1.701,1.838,1.701h18.445c1.019,0,1.844-0.824,1.844-1.844V38.593C67.668,37.574,66.843,36.748,65.824,36.748
				z"/>
		</g>
	</g>
</g>
</svg>
