<?xml version="1.0" encoding="utf-8"?>
<!-- Generator: Adobe Illustrator 16.0.0, SVG Export Plug-In . SVG Version: 6.00 Build 0)  -->
<!DOCTYPE svg PUBLIC "-//W3C//DTD SVG 1.1//EN" "http://www.w3.org/Graphics/SVG/1.1/DTD/svg11.dtd">
<svg version="1.1" id="Layer_1" xmlns="http://www.w3.org/2000/svg" xmlns:xlink="http://www.w3.org/1999/xlink" x="0px" y="0px"
	 width="100px" height="23px" viewBox="0 0 100 23" enable-background="new 0 0 100 23" xml:space="preserve">
<g>
	<path fill="#FFFFFF" d="M87.381,12.997c0,0,1.371,0,1.799,0c0.589,0,0.828-0.329,0.834-0.751c0.002-0.165,0.01-0.335,0.01-0.509
		c0.001-3.713-2.882-6.723-6.436-6.723s-6.435,3.01-6.435,6.723s2.881,6.724,6.435,6.724c1.997,0,3.703-0.508,4.961-1.764
		c0.388-0.388,0.385-0.758,0.069-1.133c-0.335-0.398-0.785-0.929-0.971-1.146c-0.313-0.364-0.729-0.389-1.033-0.146
		c-0.876,0.701-1.88,1.042-3.026,1.042c-1.466,0-2.714-0.965-3.202-2.318h6.501H87.381z M83.588,8.159
		c1.313,0,2.452,0.772,3.027,1.905h-6.054C81.137,8.931,82.275,8.159,83.588,8.159z"/>
	<path fill="#FFFFFF" d="M51.188,12.997c0,0,1.371,0,1.799,0c0.589,0,0.828-0.329,0.833-0.751c0.003-0.165,0.011-0.335,0.011-0.509
		c0.001-3.713-2.882-6.723-6.436-6.723s-6.436,3.01-6.436,6.723s2.882,6.724,6.436,6.724c1.997,0,3.703-0.508,4.961-1.764
		c0.388-0.388,0.385-0.758,0.069-1.133c-0.335-0.398-0.786-0.929-0.971-1.146c-0.313-0.364-0.729-0.389-1.033-0.146
		c-0.876,0.701-1.88,1.042-3.026,1.042c-1.467,0-2.714-0.965-3.202-2.318h6.5H51.188z M47.396,8.159
		c1.313,0,2.452,0.772,3.026,1.905h-6.053C44.943,8.931,46.083,8.159,47.396,8.159z"/>
	<path fill="#FFFFFF" d="M55.668,0.902c0.714,0,1.697,0,2.144,0c0.678,0,0.881,0.333,0.881,0.899c0,3.519,0,12.985,0,15.835
		c0,0.579-0.302,0.824-0.831,0.824c-0.721,0-1.717,0-2.169,0c-0.493,0-0.854-0.181-0.854-0.901c0-2.952,0-12.344,0-15.854
		C54.838,1.306,55.018,0.902,55.668,0.902z"/>
	<path fill="#FFFFFF" d="M21.991,5.565c-0.768,2.187-3.169,8.709-3.169,8.709s-2.213-6.529-2.942-8.709
		c-0.063-0.191-0.248-0.551-0.853-0.551c-0.477,0-1.475,0-2.281,0c-0.965,0-0.885,0.784-0.78,1.045
		c1.225,3.057,4.898,12.226,4.898,12.226s-0.998,2.486-1.33,3.314c-0.101,0.25-0.122,1,0.789,1c0.826,0,1.862,0,2.354,0
		c0.469,0,0.691-0.192,0.829-0.537c0.969-2.42,4.943-12.343,6.396-15.947c0.307-0.76-0.248-1.103-0.691-1.103
		c-0.504,0-1.683-0.002-2.409-0.002C22.334,5.011,22.118,5.202,21.991,5.565z"/>
	<path fill="#FFFFFF" d="M78.312,17.226c-1.254-1.662-5.042-6.626-5.042-6.626s3.063-3.173,4.073-4.242
		c0.584-0.618,0.354-1.343-0.491-1.346c-0.571-0.001-1.816-0.009-2.475-0.002c-0.472,0.005-0.731,0.339-0.833,0.452
		c-1.005,1.121-4.02,4.484-4.02,4.484s0-6.191,0-8.254c0-0.549-0.354-0.789-0.89-0.789c-0.441,0-1.408,0-2.118,0
		c-0.555,0-0.847,0.265-0.847,0.832c0,2.865,0,12.343,0,15.869c0,0.416,0.076,0.89,0.858,0.89c0.729,0,1.727,0,2.181,0
		c0.782,0,0.815-0.619,0.815-0.824c0-0.793,0-3.169,0-3.169l1.279-1.332c0,0,2.664,3.679,3.554,4.904
		c0.076,0.105,0.29,0.421,0.777,0.421c0.708,0,2.021,0,2.563,0C78.544,18.492,78.781,17.85,78.312,17.226z"/>
	<path fill="#FFFFFF" d="M61.046,5.009c0.715,0,1.717,0,2.168,0c0.536,0,0.885,0.168,0.885,0.839c0,2.483,0,9.235,0,11.776
		c0,0.502-0.233,0.836-0.82,0.836c-0.464,0-1.495,0-2.227,0c-0.656,0-0.808-0.394-0.808-0.861c0-2.533,0-9.231,0-11.716
		C60.244,5.337,60.46,5.009,61.046,5.009z"/>
	<path fill="#FFFFFF" d="M61.062,0.4c0.725,0,1.738,0,2.195,0c0.407,0,0.842,0.132,0.842,0.851c0,0.618,0,1.407,0,1.778
		c0,0.55-0.217,0.895-0.874,0.895c-0.448,0-1.437,0-2.152,0c-0.546,0-0.828-0.263-0.828-0.85c0-0.639,0-1.468,0-1.855
		C60.244,0.819,60.393,0.4,61.062,0.4z"/>
	<path fill="#FFFFFF" d="M33.938,5.01c-1.299,0-2.505,0.422-3.507,1.146c0,0,0-0.307,0-0.41c0-0.322-0.251-0.712-0.717-0.712
		c-0.733,0-1.833,0-2.316,0c-0.363,0-0.821,0.156-0.821,0.876c0,2.914,0,12.29,0,15.789c0,0.561,0.206,0.893,0.908,0.893
		c0.701,0,1.623,0,2.051,0c0.555,0,0.896-0.19,0.896-0.887c0-1.098,0-4.391,0-4.391c1.002,0.724,2.208,1.146,3.507,1.146
		c3.468,0,6.279-3.012,6.279-6.726C40.217,8.021,37.405,5.01,33.938,5.01z M33.938,15.328c-1.853,0-3.354-1.608-3.354-3.593
		c0-1.985,1.502-3.594,3.354-3.594c1.854,0,3.355,1.609,3.355,3.594C37.293,13.72,35.791,15.328,33.938,15.328z"/>
	<path fill="#FFFFFF" d="M7.392,5.01c-1.398,0-2.653,0.684-3.516,1.769c0,0,0-3.935,0-5.203c0-0.25-0.232-0.674-0.762-0.674
		c-0.727,0-1.8,0-2.257,0c-0.396,0-0.836,0.148-0.836,0.879c0,2.925,0,12.349,0,15.864c0,0.41,0.166,0.815,0.819,0.815
		c0.715,0,1.707,0,2.156,0c0.536,0,0.879-0.261,0.879-0.821c0-0.968,0-3.869,0-3.869v-2.673v-0.234
		C3.94,9.761,4.89,8.886,6.055,8.886c1.198,0,2.17,0.925,2.184,2.07h0.001v4.496c0,0,0,1.664,0,2.219c0,0.32,0.117,0.79,0.832,0.79
		c0.712,0,1.691,0,2.137,0c0.659,0,0.886-0.334,0.886-0.877c0-1.827,0-7.31,0-7.31C12.094,7.367,9.989,5.01,7.392,5.01z"/>
	<path fill="#FFFFFF" d="M98.945,11.475c-1.103-1.23-3.617-1.665-3.617-1.665c-0.731-0.169-1.236-0.419-1.236-0.856
		c0-0.592,0.545-0.783,1.265-0.738c0.471,0.029,1.179,0.405,1.445,0.655c0.224,0.21,0.687,0.356,1.038,0.007
		c0.354-0.352,0.81-0.803,1.026-1.012c0.398-0.384,0.404-0.796,0.11-1.144c-0.87-1.026-2.274-1.707-3.871-1.707
		c-2.648,0-4.752,1.358-4.752,4.066c0,0.771,0.251,1.491,0.686,2.105c1.065,1.349,2.925,1.933,3.787,2.141
		c0.716,0.168,1.277,0.455,1.26,0.918c-0.027,0.688-0.676,0.909-1.501,0.95c-0.78,0.016-1.72-0.533-2.322-1.006
		c-0.512-0.403-0.825-0.222-1.146,0.12c-0.188,0.2-0.585,0.645-0.893,0.965c-0.375,0.389-0.356,0.629-0.166,1.017
		c0.808,1.642,3.189,2.199,4.894,2.169c2.775-0.049,5.027-1.945,5.027-4.346C99.979,13.121,99.593,12.207,98.945,11.475z"/>
</g>
</svg>
