<?xml version="1.0" encoding="utf-8"?>
<!-- Generator: Adobe Illustrator 16.0.0, SVG Export Plug-In . SVG Version: 6.00 Build 0)  -->
<!DOCTYPE svg PUBLIC "-//W3C//DTD SVG 1.1//EN" "http://www.w3.org/Graphics/SVG/1.1/DTD/svg11.dtd">
<svg version="1.1" id="Layer_1" xmlns="http://www.w3.org/2000/svg" xmlns:xlink="http://www.w3.org/1999/xlink" x="0px" y="0px"
	 width="50px" height="50px" viewBox="0 0 50 50" enable-background="new 0 0 50 50" xml:space="preserve">
<g>
	<g>
		<path fill="#747474" d="M48.003,7.085H1.989c-0.439,0-0.836,0.149-1.158,0.381C0.503,7.741,0.35,8.096,0.35,8.571v4.595
			c0,0.248,0.091,0.362,0.281,0.362l24.173,12.333l0.189,0.091c0.134,0,0.225-0.041,0.297-0.091l23.394-12.333
			c0.123-0.06,0.213-0.101,0.291-0.101c0.051,0,0.166-0.014,0.293-0.091c0.25,0,0.383-0.104,0.383-0.329V8.571
			c0-0.475-0.172-0.83-0.48-1.105C48.848,7.234,48.447,7.085,48.003,7.085L48.003,7.085z M14.996,25.596
			c0.063-0.051,0.1-0.143,0.1-0.261c0-0.169-0.051-0.249-0.198-0.249L1.027,17.945c-0.196-0.053-0.354-0.053-0.486,0
			c-0.13,0-0.191,0.078-0.191,0.275v18.67c0,0.186,0.091,0.299,0.281,0.354h0.2c0.13,0,0.196-0.028,0.196-0.094L14.996,25.596z
			 M31.887,26.99c-0.07-0.188-0.225-0.198-0.476-0.092l-5.351,2.781c-0.638,0.354-1.333,0.354-2.044,0l-4.637-2.334
			c-0.204-0.117-0.374-0.117-0.496,0L1.125,42.118c-0.072,0.049-0.103,0.168-0.103,0.336c0,0.056,0.061,0.159,0.19,0.262
			c0.391,0.134,0.655,0.199,0.777,0.199h45.517c0.146,0,0.266-0.065,0.396-0.199c0-0.231-0.047-0.366-0.096-0.43L31.887,26.99z
			 M49.37,17.603h-0.396L35.771,24.64c-0.123,0-0.196,0.08-0.196,0.259c-0.062,0.054-0.029,0.16,0.097,0.267l13.21,12.775
			c0.128,0.117,0.22,0.156,0.287,0.156h0.201c0.173-0.156,0.28-0.277,0.28-0.326V17.945C49.65,17.822,49.543,17.722,49.37,17.603
			L49.37,17.603z"/>
	</g>
</g>
</svg>
