<?xml version="1.0" encoding="utf-8"?>
<!-- Generator: Adobe Illustrator 16.0.0, SVG Export Plug-In . SVG Version: 6.00 Build 0)  -->
<!DOCTYPE svg PUBLIC "-//W3C//DTD SVG 1.1//EN" "http://www.w3.org/Graphics/SVG/1.1/DTD/svg11.dtd">
<svg version="1.1" id="Layer_1" xmlns="http://www.w3.org/2000/svg" xmlns:xlink="http://www.w3.org/1999/xlink" x="0px" y="0px"
	 width="80px" height="80px" viewBox="0 0 80 80" enable-background="new 0 0 80 80" xml:space="preserve">
<g>
	<g>
		<g>
			<path fill="#C8C8C8" d="M71.607,11.405H8.392c-1.688,0-3.062,1.374-3.062,3.062v51.067c0,1.688,1.374,3.062,3.062,3.062h63.217
				c1.688,0,3.062-1.373,3.062-3.062V14.467C74.67,12.779,73.297,11.405,71.607,11.405z M71.607,65.534L8.392,65.536
				c0,0,0,0,0-0.002V14.467h63.217v51.067H71.607z"/>
		</g>
	</g>
	<g>
		<g>
			<path fill="#C8C8C8" d="M65.863,18.682H14.137c-0.846,0-1.531,0.685-1.531,1.53v33.829c0,0.848,0.686,1.532,1.531,1.532h51.726
				c0.846,0,1.531-0.687,1.531-1.532V20.212C67.395,19.366,66.708,18.682,65.863,18.682z M15.667,21.742h48.666v25.912l-9.646-9.646
				c-0.599-0.597-1.567-0.597-2.166,0l-5.881,5.881L33.158,30.406c-0.598-0.597-1.566-0.598-2.165,0L15.667,45.73V21.742
				L15.667,21.742z M15.667,52.511v-2.448l16.408-16.409l18.858,18.857H15.667z M64.333,52.511h-9.069l0,0l-6.457-6.456l4.797-4.799
				L63.98,51.633c0.106,0.106,0.226,0.192,0.353,0.262V52.511L64.333,52.511z"/>
		</g>
	</g>
	<g>
		<g>
			<path fill="#C8C8C8" d="M46.547,24.646c-3.189,0-5.787,2.596-5.787,5.787c0,3.19,2.598,5.786,5.787,5.786
				c3.191,0,5.787-2.596,5.787-5.786C52.334,27.242,49.738,24.646,46.547,24.646z M46.547,33.159c-1.502,0-2.727-1.223-2.727-2.726
				s1.225-2.726,2.727-2.726c1.503,0,2.727,1.223,2.727,2.726S48.05,33.159,46.547,33.159z"/>
		</g>
	</g>
	<g>
		<g>
			<path fill="#C8C8C8" d="M27.45,59.023H14.137c-0.846,0-1.531,0.684-1.531,1.529s0.686,1.53,1.531,1.53H27.45
				c0.846,0,1.53-0.687,1.53-1.53C28.98,59.707,28.296,59.023,27.45,59.023z"/>
		</g>
	</g>
	<g>
		<g>
			<path fill="#C8C8C8" d="M37.926,59.023h-3.491c-0.846,0-1.531,0.684-1.531,1.529s0.686,1.53,1.531,1.53h3.491
				c0.846,0,1.531-0.687,1.531-1.53C39.457,59.707,38.771,59.023,37.926,59.023z"/>
		</g>
	</g>
</g>
</svg>
