<?xml version="1.0" encoding="utf-8"?>
<!-- Generator: Adobe Illustrator 16.0.0, SVG Export Plug-In . SVG Version: 6.00 Build 0)  -->
<!DOCTYPE svg PUBLIC "-//W3C//DTD SVG 1.1//EN" "http://www.w3.org/Graphics/SVG/1.1/DTD/svg11.dtd">
<svg version="1.1" id="Layer_1" xmlns="http://www.w3.org/2000/svg" xmlns:xlink="http://www.w3.org/1999/xlink" x="0px" y="0px"
	 width="80px" height="80px" viewBox="0 0 80 80" enable-background="new 0 0 80 80" xml:space="preserve">
<g>
	<g>
		<g>
			<path fill="#C8C8C8" d="M66.407,1.254H21.479c-5.3,0-9.609,4.311-9.609,9.609v58.274c0,5.298,4.311,9.608,9.609,9.608h44.928
				c0.951,0,1.723-0.771,1.723-1.722c0-0.037-0.003-0.072-0.006-0.108c0.003-0.036,0.006-0.071,0.006-0.109V18.75V2.976
				C68.13,2.024,67.358,1.254,66.407,1.254z M19.757,75.056c-2.563-0.748-4.442-3.117-4.442-5.918V18.227
				c1.251,1.05,2.772,1.785,4.442,2.089V75.056z M21.479,17.027c-3.399,0-6.165-2.766-6.165-6.164c0-3.399,2.766-6.165,6.165-6.165
				h37.564c-1.4,1.67-2.245,3.82-2.245,6.165s0.845,4.494,2.245,6.164h-3.831h-9.636H21.479z M53.491,20.473v10.104l-2.057-1.531
				c-0.611-0.455-1.449-0.455-2.059,0l-2.077,1.55V20.473H53.491z M64.686,75.301H23.201V20.473h20.652v13.556
				c0,0.651,0.368,1.247,0.95,1.539c0.245,0.123,0.508,0.183,0.772,0.183c0.363,0,0.727-0.115,1.029-0.341l3.801-2.834l3.778,2.813
				c0.522,0.39,1.219,0.45,1.802,0.158c0.581-0.292,0.949-0.889,0.949-1.539V20.472h7.75V75.301z M64.686,16.781
				c-2.563-0.747-4.443-3.116-4.443-5.919c0-2.802,1.88-5.17,4.443-5.917V16.781L64.686,16.781z"/>
		</g>
	</g>
	<g>
		<g>
			<path fill="#C8C8C8" d="M52.393,42.49H35.494c-0.951,0-1.722,0.771-1.722,1.723s0.771,1.722,1.722,1.722h16.898
				c0.95,0,1.721-0.771,1.721-1.722S53.343,42.49,52.393,42.49z"/>
		</g>
	</g>
	<g>
		<g>
			<path fill="#C8C8C8" d="M57.205,53.282H30.682c-0.952,0-1.723,0.772-1.723,1.723c0,0.952,0.771,1.723,1.723,1.723h26.523
				c0.95,0,1.722-0.771,1.722-1.723C58.927,54.055,58.156,53.282,57.205,53.282z"/>
		</g>
	</g>
</g>
</svg>
