<?xml version="1.0" encoding="utf-8"?>
<!-- Generator: Adobe Illustrator 16.0.0, SVG Export Plug-In . SVG Version: 6.00 Build 0)  -->
<!DOCTYPE svg PUBLIC "-//W3C//DTD SVG 1.1//EN" "http://www.w3.org/Graphics/SVG/1.1/DTD/svg11.dtd">
<svg version="1.1" id="Layer_1" xmlns="http://www.w3.org/2000/svg" xmlns:xlink="http://www.w3.org/1999/xlink" x="0px" y="0px"
	 width="50px" height="50px" viewBox="0 0 50 50" enable-background="new 0 0 50 50" xml:space="preserve">
<g>
	<path fill="#747474" d="M0,15.86c0-0.699,0-1.396,0-2.098c0.022-0.114,0.053-0.217,0.067-0.337c0.155-1.271,0.416-2.52,0.901-3.708
		c0.95-2.328,2.406-4.269,4.418-5.802c1.455-1.108,3.059-1.906,4.833-2.338c0.796-0.199,1.616-0.306,2.424-0.457
		c0.701,0,1.398,0,2.095,0c0.111,0.03,0.22,0.072,0.33,0.08c1.953,0.226,3.781,0.82,5.475,1.817c0.16,0.089,0.394,0.106,0.591,0.092
		c1.133-0.068,2.263-0.236,3.395-0.223c3.26,0.03,6.378,0.73,9.331,2.125c1.74,0.82,3.355,1.827,4.822,3.063
		c1.786,1.507,3.324,3.234,4.586,5.213c1.515,2.367,2.553,4.92,3.103,7.673c0.501,2.515,0.58,5.047,0.213,7.59
		c-0.033,0.224,0.041,0.49,0.149,0.689c0.652,1.153,1.158,2.364,1.447,3.659c0.155,0.677,0.26,1.365,0.389,2.041
		c0,0.676,0,1.345,0,2.017c-0.025,0.088-0.053,0.177-0.057,0.265c-0.271,2.646-1.16,5.038-2.803,7.147
		c-1.88,2.423-4.294,4.034-7.246,4.825c-0.854,0.233-1.745,0.332-2.626,0.49c-0.667,0-1.341,0-2.015,0
		c-0.108-0.027-0.217-0.063-0.326-0.08c-1.85-0.213-3.589-0.746-5.2-1.668c-0.36-0.207-0.688-0.273-1.097-0.224
		c-2.658,0.384-5.305,0.235-7.925-0.353c-3.478-0.793-6.585-2.33-9.333-4.586c-1.825-1.494-3.371-3.26-4.644-5.256
		c-1.511-2.373-2.548-4.92-3.1-7.675c-0.501-2.485-0.577-4.995-0.225-7.521c0.037-0.251-0.037-0.562-0.162-0.792
		c-0.633-1.16-1.148-2.366-1.43-3.662C0.239,17.201,0.127,16.528,0,15.86z M24.513,39.975c0.31,0,0.619,0.01,0.929-0.002
		c2.057-0.094,4.044-0.483,5.916-1.38c2.129-1.022,3.725-2.528,4.567-4.768c0.472-1.236,0.56-2.521,0.435-3.815
		c-0.159-1.699-0.828-3.164-2.106-4.318c-1.342-1.218-2.952-1.958-4.662-2.439c-2.212-0.624-4.443-1.161-6.67-1.738
		c-1.29-0.336-2.559-0.712-3.574-1.652c-0.836-0.771-0.958-2.074-0.27-2.985c0.7-0.927,1.679-1.439,2.776-1.619
		c1.036-0.158,2.108-0.179,3.155-0.142c1.574,0.046,2.813,0.792,3.684,2.105c0.414,0.624,0.771,1.287,1.217,1.885
		c0.296,0.407,0.632,0.884,1.066,1.085c2.112,0.99,4.211-0.611,4.103-2.638c-0.058-1.078-0.45-2.039-1.103-2.885
		c-1.561-2.017-3.721-3.027-6.14-3.545c-1.664-0.354-3.356-0.394-5.054-0.282c-2.266,0.137-4.452,0.593-6.43,1.771
		c-1.729,1.028-2.961,2.468-3.394,4.457c-0.175,0.818-0.172,1.688-0.146,2.533c0.033,1.108,0.407,2.126,1.06,3.029
		c0.901,1.238,2.095,2.122,3.483,2.748c2.296,1.047,4.754,1.559,7.194,2.121c1.341,0.314,2.7,0.596,3.907,1.314
		c1.842,1.095,2.258,3.223,0.917,4.875c-0.586,0.715-1.396,1.176-2.276,1.476c-1.217,0.418-2.473,0.53-3.75,0.456
		c-2.352-0.15-4.076-1.223-5.076-3.408c-0.357-0.786-0.771-1.559-1.279-2.247c-0.694-0.932-2.058-1.161-3.216-0.677
		c-1.067,0.445-1.698,1.453-1.604,2.615c0.172,2.234,1.371,3.919,2.971,5.346c1.298,1.152,2.846,1.834,4.527,2.255
		C21.263,39.907,22.884,39.984,24.513,39.975z"/>
</g>
</svg>
