<?xml version="1.0" encoding="utf-8"?>
<!-- Generator: Adobe Illustrator 16.0.0, SVG Export Plug-In . SVG Version: 6.00 Build 0)  -->
<!DOCTYPE svg PUBLIC "-//W3C//DTD SVG 1.1//EN" "http://www.w3.org/Graphics/SVG/1.1/DTD/svg11.dtd">
<svg version="1.1" id="Layer_1" xmlns="http://www.w3.org/2000/svg" xmlns:xlink="http://www.w3.org/1999/xlink" x="0px" y="0px"
	 width="80px" height="80px" viewBox="0 0 80 80" enable-background="new 0 0 80 80" xml:space="preserve">
<g>
	<g>
		<g>
			<path fill="#C8C8C8" d="M71.852,16.208H8.15c-2.564,0-4.65,2.086-4.65,4.649v38.286c0,2.563,2.086,4.648,4.65,4.648h63.702
				c2.563,0,4.648-2.086,4.648-4.648V20.857C76.5,18.294,74.414,16.208,71.852,16.208z M73.4,59.143
				c0,0.854-0.695,1.549-1.551,1.549H8.15c-0.854,0-1.55-0.693-1.55-1.549V20.857c0-0.854,0.696-1.55,1.55-1.55h63.702
				c0.854,0,1.549,0.695,1.549,1.55V59.143L73.4,59.143z"/>
		</g>
	</g>
	<g>
		<g>
			<path fill="#C8C8C8" d="M63.684,29.807H47.049c-0.855,0-1.549,0.694-1.549,1.55s0.693,1.55,1.549,1.55h16.635
				c0.855,0,1.549-0.693,1.549-1.55C65.232,30.501,64.539,29.807,63.684,29.807z"/>
		</g>
	</g>
	<g>
		<g>
			<path fill="#C8C8C8" d="M63.684,38.45H47.049c-0.855,0-1.549,0.693-1.549,1.55c0,0.855,0.693,1.551,1.549,1.551h16.635
				c0.855,0,1.549-0.695,1.549-1.551C65.232,39.144,64.539,38.45,63.684,38.45z"/>
		</g>
	</g>
	<g>
		<g>
			<path fill="#C8C8C8" d="M63.684,47.093H47.049c-0.855,0-1.549,0.694-1.549,1.552c0,0.854,0.693,1.549,1.549,1.549h16.635
				c0.855,0,1.549-0.693,1.549-1.549C65.232,47.787,64.539,47.093,63.684,47.093z"/>
		</g>
	</g>
	<g>
		<g>
			<path fill="#C8C8C8" d="M32.122,44.883c-0.031-0.003-2.868,0.115-3.634-2.953c1.035-0.814,1.904-1.947,2.525-3.3
				c0.046,0.005,0.092,0.011,0.137,0.011c0.423-0.001,0.832-0.193,1.101-0.538c1.301-1.672,1.978-3.843,1.906-6.112
				c-0.15-4.706-3.424-8.415-7.458-8.459c-0.11-0.005-0.209-0.001-0.288,0.001c-0.002,0-0.003,0.001-0.006,0.001
				c-0.979-0.425-2.01-0.623-3.073-0.588c-2.271,0.072-4.355,1.197-5.868,3.168c-1.45,1.889-2.203,4.345-2.12,6.919
				c0.014,0.436,0.049,0.837,0.104,1.218c0.15,1.096,0.452,2.146,0.898,3.121c0.214,0.47,0.67,0.782,1.186,0.813
				c0.14,0.01,0.277-0.005,0.41-0.037c0.631,1.564,1.585,2.866,2.738,3.775c-0.751,3.063-3.604,2.959-3.636,2.961
				c-3.049,0.101-5.5,2.609-5.5,5.683v5.648c0,0.771,0.625,1.395,1.395,1.395h23.289c0.771,0,1.395-0.623,1.395-1.395v-5.648
				C37.622,47.492,35.171,44.982,32.122,44.883z M18.229,33.987c-0.006-0.043-0.013-0.086-0.019-0.129
				c-0.042-0.286-0.067-0.586-0.078-0.916c-0.062-1.931,0.487-3.753,1.545-5.131c0.994-1.295,2.324-2.033,3.744-2.079
				c0.047-0.001,1.162-0.089,2.099,0.465c0.197,0.116,0.438,0.15,0.664,0.145c0.029,0,0.447-0.021,0.468-0.021
				c2.499,0.016,4.615,2.599,4.716,5.758c0.012,0.362-0.003,0.72-0.042,1.069c-0.923-1.585-2.294-2.812-3.926-3.498
				c-0.351-0.147-0.747-0.146-1.095,0.007c-0.35,0.15-0.621,0.438-0.753,0.795c-0.107,0.291-0.239,0.575-0.389,0.844
				c-0.366,0.655-1.116,1.041-1.956,1.015c-0.167-0.006-0.336-0.006-0.502-0.001c-0.817,0.026-1.614,0.183-2.375,0.466
				C19.57,33.063,18.865,33.47,18.229,33.987z M20.173,36.012c0.353-0.261,0.742-0.454,1.137-0.624
				c0.721-0.309,1.696-0.292,1.801-0.288c1.797,0.062,3.438-0.779,4.35-2.212c0.712,0.545,1.299,1.279,1.709,2.15
				c-0.432,3.13-2.38,5.513-4.591,5.513C22.606,40.551,20.836,38.685,20.173,36.012z M23.238,43.184
				c0.437,0.103,0.884,0.156,1.34,0.156c0.46,0,0.912-0.056,1.35-0.156c0.449,1.436,1.394,2.653,2.631,3.457
				c-0.595,1.637-2.17,2.785-3.977,2.785s-3.381-1.148-3.976-2.785C21.844,45.837,22.789,44.617,23.238,43.184z M14.333,54.818
				v-4.254c0-1.599,1.3-2.897,2.898-2.897c0.032,0,0.541-0.028,0.759-0.06c0.993,2.711,3.601,4.607,6.592,4.607
				s5.599-1.896,6.592-4.607c0.218,0.031,0.727,0.06,0.759,0.06c1.598,0,2.898,1.301,2.898,2.897v4.254H14.333z"/>
		</g>
	</g>
</g>
</svg>
