<?xml version="1.0" encoding="utf-8"?>
<!-- Generator: Adobe Illustrator 16.0.0, SVG Export Plug-In . SVG Version: 6.00 Build 0)  -->
<!DOCTYPE svg PUBLIC "-//W3C//DTD SVG 1.1//EN" "http://www.w3.org/Graphics/SVG/1.1/DTD/svg11.dtd">
<svg version="1.1" id="Layer_1" xmlns="http://www.w3.org/2000/svg" xmlns:xlink="http://www.w3.org/1999/xlink" x="0px" y="0px"
	 width="50px" height="50px" viewBox="0 0 50 50" enable-background="new 0 0 50 50" xml:space="preserve">
<g>
	<path fill="#747474" d="M1.325,49.258c0.45-1.373,0.866-2.67,1.297-3.951c0.902-2.732,1.799-5.437,2.731-8.167
		c0.124-0.374,0.119-0.683-0.086-1.033c-1.327-2.395-2.301-4.921-2.733-7.616C1.416,21.203,3.072,14.649,7.84,8.999
		c3.748-4.458,8.555-7.154,14.272-8.036c5.364-0.831,10.451,0.083,15.197,2.766c4.887,2.754,8.334,6.77,10.418,11.994
		c1.265,3.175,1.793,6.507,1.56,9.915c-0.524,7.903-4.109,14.114-10.667,18.515c-5.016,3.389-10.587,4.415-16.532,3.571
		c-2.515-0.354-4.9-1.216-7.186-2.337c-0.411-0.223-0.773-0.237-1.197-0.095c-3.961,1.28-7.942,2.563-11.909,3.832
		C1.675,49.167,1.552,49.183,1.325,49.258z M7.5,43.165c0.32-0.101,0.524-0.15,0.717-0.215c2.091-0.665,4.173-1.345,6.253-2.022
		c0.36-0.143,0.62-0.067,0.917,0.104c1.884,1.18,3.885,2.033,6.055,2.494c4.924,1.073,9.647,0.491,13.963-2.076
		c6.611-3.976,10.007-9.86,9.922-17.654c-0.062-4.875-1.79-9.12-5.115-12.673c-5.681-6.039-12.615-7.89-20.492-5.491
		C11.342,8.21,5.885,16.463,6.196,24.768c0.141,3.976,1.253,7.59,3.5,10.873C9.8,35.8,9.822,36.089,9.769,36.281
		c-0.464,1.423-0.965,2.817-1.429,4.232C8.059,41.346,7.801,42.19,7.5,43.165z"/>
	<path fill="#747474" d="M32.132,36.253c-0.808-0.181-1.634-0.271-2.39-0.538c-2.906-1.024-5.73-2.255-8.097-4.358
		c-2.893-2.625-5.235-5.697-6.887-9.267c-0.787-1.733-1.045-3.543-0.49-5.381c0.378-1.326,1.075-2.468,2.13-3.358
		c0.999-0.836,2.143-0.629,3.242-0.384c0.206,0.03,0.411,0.299,0.498,0.513c0.647,1.653,1.282,3.315,1.926,4.968
		c0.208,0.499,0.129,0.974-0.184,1.397c-0.45,0.617-0.934,1.225-1.448,1.814c-0.359,0.437-0.394,0.803-0.124,1.283
		c1.807,3.26,4.36,5.728,7.767,7.269c0.723,0.325,0.978,0.297,1.539-0.316c0.622-0.664,1.212-1.324,1.788-2.041
		c0.35-0.415,0.753-0.545,1.219-0.3c1.695,0.875,3.386,1.771,5.065,2.688c0.149,0.082,0.269,0.352,0.269,0.556
		c0.037,1.976-0.653,3.534-2.49,4.498c-1.054,0.541-2.115,0.907-3.31,0.831C32.142,36.158,32.132,36.196,32.132,36.253z"/>
</g>
</svg>
