<?xml version="1.0" encoding="utf-8"?>
<!-- Generator: Adobe Illustrator 16.0.0, SVG Export Plug-In . SVG Version: 6.00 Build 0)  -->
<!DOCTYPE svg PUBLIC "-//W3C//DTD SVG 1.1//EN" "http://www.w3.org/Graphics/SVG/1.1/DTD/svg11.dtd">
<svg version="1.1" id="Layer_1" xmlns="http://www.w3.org/2000/svg" xmlns:xlink="http://www.w3.org/1999/xlink" x="0px" y="0px"
	 width="100px" height="100px" viewBox="0 0 100 100" enable-background="new 0 0 100 100" xml:space="preserve">
<g>
	
		<linearGradient id="SVGID_1_" gradientUnits="userSpaceOnUse" x1="316.1699" y1="-303.96" x2="316.1699" y2="-338.9606" gradientTransform="matrix(1 0 0 -1 -247.6602 -269.96)">
		<stop  offset="0" style="stop-color:#0090E4"/>
		<stop  offset="1" style="stop-color:#007AC1"/>
	</linearGradient>
	<path fill="url(#SVGID_1_)" d="M98.953,48.129c-0.544-0.176-1.023-0.24-1.592-0.252c-0.992-0.022-1.938,0.103-2.93,0.111
		c-0.481,0.004-0.811-0.198-1.043-0.617c-0.188-0.341-0.322-0.701-0.466-1.063c-0.073-0.189-0.147-0.376-0.292-0.527
		c-0.925-0.97-2.066-1.333-3.37-1.16c-0.893,0.119-1.618,0.614-2.241,1.231c-1.354,1.343-2.494,2.863-3.537,4.455
		c-0.313,0.478-0.619,0.96-0.854,1.486c-0.811,1.443-1.42,2.962-1.631,4.611c-0.057,0.453-0.121,0.839-0.618,0.986
		c-0.041,0.014-0.073,0.051-0.11,0.075c-0.66,0.456-1.188,1.056-1.734,1.634c-0.676,0.715-1.348,1.432-2.167,1.987
		c-0.362,0.246-0.573,0.16-0.644-0.276c-0.104-0.664-0.012-1.322,0.092-1.979c0.207-1.313,0.834-2.479,1.298-3.702
		c0.374-0.987,0.801-1.953,1.274-2.897c0.016-0.021,0.036-0.037,0.047-0.062c1.33-2.626,2.851-5.139,4.487-7.583
		c1.229-1.835,2.451-3.676,3.63-5.545c0.146-0.233,0.272-0.475,0.354-0.739c0.352-1.138-0.204-2.229-1.255-2.463
		c-0.051-0.011-0.104-0.013-0.156-0.022c-0.53-0.098-1.061,0.022-1.589,0.001c-0.704-0.028-1.218,0.298-1.607,0.855
		c-0.271,0.386-0.457,0.814-0.628,1.252c-0.184,0.476-0.332,0.966-0.594,1.413c-1.906,3.241-3.75,6.516-5.426,9.883
		c-0.477,0.955-0.959,1.908-1.364,2.897c-0.039,0.067-0.084,0.132-0.115,0.203c-0.649,1.468-1.239,2.961-1.762,4.479
		c-0.052,0.146-0.114,0.236-0.269,0.287c-0.287,0.093-0.539,0.261-0.783,0.438c-0.623,0.459-1.141,1.031-1.666,1.591
		c-0.654,0.696-1.312,1.39-2.104,1.937c-0.415,0.286-0.625,0.207-0.692-0.297c-0.09-0.654-0.006-1.306,0.103-1.951
		c0.224-1.359,0.892-2.564,1.356-3.839c0.274-0.752,0.613-1.478,0.953-2.202c0.02-0.029,0.043-0.056,0.058-0.086
		c0.999-2.072,2.146-4.063,3.391-5.995c1.621-2.51,3.261-5.008,4.892-7.512c0.185-0.282,0.353-0.572,0.447-0.898
		c0.33-1.122-0.213-2.186-1.24-2.428c-0.061-0.015-0.123-0.02-0.183-0.031c-0.53-0.097-1.06,0.022-1.589,0.001
		c-0.705-0.028-1.219,0.302-1.607,0.859c-0.265,0.379-0.449,0.799-0.615,1.228c-0.188,0.476-0.329,0.968-0.594,1.415
		c-1.908,3.245-3.752,6.526-5.433,9.896c-0.547,1.098-1.096,2.195-1.562,3.331c-0.394,0.785-0.69,1.608-1.012,2.425
		c-0.045,0.115-0.089,0.221-0.21,0.289c-0.847,0.488-1.589,1.118-2.323,1.756c-1.274,1.108-2.566,2.193-4.045,3.036
		c-0.645,0.367-1.281,0.746-2.016,0.915c-0.965,0.223-1.639-0.14-1.917-1.021c-0.073-0.232-0.035-0.406,0.183-0.543
		c0.721-0.445,1.445-0.883,2.1-1.428c0.542-0.451,1.15-0.822,1.648-1.326c0.068-0.056,0.141-0.106,0.207-0.166
		c1.437-1.279,2.731-2.694,3.984-4.15c0.925-1.072,1.736-2.21,2.256-3.538c0.273-0.704,0.493-1.423,0.447-2.19
		c-0.078-1.291-0.635-2.139-1.891-2.467c-0.601-0.158-1.203-0.291-1.824-0.317c-1.848-0.081-3.446,0.495-4.738,1.839
		c-0.79,0.823-1.536,1.687-2.247,2.582c-0.092,0.116-0.146,0.145-0.29,0.047c-1.372-0.919-2.816-1.171-4.359-0.44
		c-1.22,0.577-2.338,1.319-3.417,2.125c-0.088,0.064-0.184,0.187-0.3,0.113c-0.104-0.065-0.032-0.195-0.02-0.295
		c0.129-0.978-0.012-1.903-0.523-2.759c-0.05-0.085-0.112-0.156-0.192-0.217c-0.806-0.617-2.359-0.599-3.144,0.038
		c-0.355,0.288-0.415,0.568-0.157,0.946c0.175,0.256,0.194,0.517,0.145,0.807c-0.151,0.899-0.399,1.775-0.644,2.65
		c-0.387,1.378-0.84,2.735-1.271,4.098c-0.083,0.232-0.179,0.461-0.247,0.697c-0.349,1.215-0.877,2.34-1.662,3.342
		c-0.256,0.328-0.457,0.694-0.603,1.086c-0.165,0.447-0.254,0.902-0.07,1.369c0.313,0.797,0.86,1.403,1.576,1.842
		c0.589,0.362,1.221,0.248,1.726-0.226c0.466-0.438,0.763-0.963,0.901-1.588c0.36-1.621,0.993-3.133,1.861-4.548
		c0.42-0.688,0.942-1.294,1.458-1.906c0.039-0.035,0.079-0.07,0.115-0.107c1.644-1.771,3.588-3.127,5.759-4.174
		c0.338-0.162,0.657-0.214,1.015-0.086c0.28,0.098,0.286,0.084,0.127,0.35c-0.586,0.979-1.095,1.996-1.488,3.066
		c-0.239,0.653-0.493,1.305-0.566,2.006c-0.051,0.127-0.05,0.26-0.057,0.393c-0.079,1.479,0.284,2.855,0.956,4.16
		c0.324,0.629,0.744,1.195,1.366,1.555c0.981,0.564,2.001,1.059,3.101,1.354c0.973,0.266,1.945,0.31,2.858-0.207
		c1.75-0.985,3.465-2.026,5.015-3.315c0.051-0.041,0.088-0.116,0.186-0.092c0.031,0.538,0.091,1.079,0.416,1.534
		c1.109,1.541,2.646,2.311,4.521,2.354c0.827,0.021,1.547-0.394,2.221-0.853c0.662-0.447,1.242-0.992,1.791-1.571
		c0.061-0.063,0.115-0.21,0.229-0.027c0.689,1.114,1.736,1.751,2.936,2.192c1.295,0.477,2.494,0.301,3.64-0.441
		c0.878-0.568,1.622-1.281,2.317-2.053c0.141-0.154,0.276-0.313,0.43-0.486c0.234,0.432,0.537,0.764,0.883,1.059
		c0.684,0.584,1.452,1.037,2.271,1.402c0.656,0.291,1.336,0.293,2.019,0.071c0.853-0.274,1.502-0.844,2.122-1.458
		c1.919-1.902,3.246-4.173,4.158-6.701c0.451-1.246,0.838-2.512,1.121-3.807c0.084-0.355,0.309-0.464,0.662-0.438
		c0.377,0.031,0.758-0.022,1.133-0.076c0.928-0.135,1.806-0.48,2.727-0.634c0.445-0.074,0.59-0.423,1.003-0.553
		c0.214-0.067,0.373-0.199,0.373-0.372c0-0.177,0-0.354,0-0.531C100,48.519,99.432,48.286,98.953,48.129z M54.104,54.739
		c0.359-0.925,0.823-1.798,1.35-2.638c1.051-1.677,2.372-3.124,3.82-4.459c0.252-0.233,0.523-0.451,0.844-0.589
		c0.253-0.109,0.379-0.017,0.369,0.154c-0.034,0.433-0.23,0.701-0.373,0.994c-1.207,2.465-3.127,4.346-5.077,6.201
		c-0.204,0.193-0.425,0.375-0.64,0.559c-0.082,0.07-0.185,0.145-0.283,0.071C54.01,54.956,54.066,54.837,54.104,54.739z
		 M87.245,57.921c-0.384,0.595-0.778,1.181-1.173,1.769c-0.145,0.215-0.301,0.418-0.512,0.57c-0.281,0.204-0.444,0.184-0.652-0.092
		c-0.479-0.632-0.563-1.361-0.496-2.118c0.105-1.194,0.529-2.299,0.992-3.393c0.385-0.906,0.857-1.765,1.359-2.606
		c0.03-0.051,0.045-0.109,0.065-0.166c0.142-0.197,0.29-0.391,0.42-0.595c0.569-0.902,1.183-1.777,1.828-2.627
		c0.098-0.126,0.198-0.248,0.333-0.337c0.221-0.147,0.281-0.083,0.466,0.094c0.634,0.609,0.366,1.365,0.374,2.072
		c0.004,0.349-0.075,0.699-0.117,1.05C89.686,53.9,88.525,55.938,87.245,57.921z"/>
	
		<linearGradient id="SVGID_2_" gradientUnits="userSpaceOnUse" x1="259.7754" y1="-303.9604" x2="259.7754" y2="-338.9612" gradientTransform="matrix(1 0 0 -1 -247.6602 -269.96)">
		<stop  offset="0" style="stop-color:#0090E4"/>
		<stop  offset="1" style="stop-color:#007AC1"/>
	</linearGradient>
	<path fill="url(#SVGID_2_)" d="M24.05,53.877c0.003-0.044-0.05-0.088-0.05-0.132c0-3.593,0-7.186,0-10.778
		c0-0.223,0.029-0.441-0.023-0.656c-0.347-1.44-1.502-2.333-3.077-2.333c-5.875-0.001-11.736-0.001-17.611,0.002
		c-0.256,0-0.509,0.018-0.758,0.068c-1.455,0.298-2.414,1.491-2.417,2.998c-0.004,2.974,0,5.947,0.001,8.919
		c0,0.461,0.006,0.921,0.009,1.381c-0.002,0.035-0.007,0.07-0.007,0.104c0,2.575-0.002,5.149,0.002,7.725
		c0,0.173,0.033,0.351,0.077,0.519C0.552,63.093,1.729,64,3.201,64.002c5.945,0.003,11.89,0.002,17.836,0.001
		c0.446-0.001,0.883-0.071,1.289-0.264c1.171-0.552,1.728-1.513,1.787-2.776c0.027-0.564-0.024-1.132-0.024-1.697
		C24.085,57.469,24.053,55.673,24.05,53.877z M13.671,45.197c0-1.065,0.576-1.197,1.633-1.197c1.363,0,2.725,0,4.087,0
		c1.016,0,1.6,0.133,1.6,1.142c0.002,1.229,0.001,2.235,0.001,3.464c-0.001,1.23,0.001,2.348-0.001,3.578
		c-0.001,0.943-0.599,1.483-1.54,1.483c-1.416,0.001-2.832-0.034-4.247-0.024c-0.681,0.004-1.231-0.332-1.532-1.162
		c-0.031-0.084,0,0.027,0-0.068C13.672,49.934,13.671,47.675,13.671,45.197z M9.974,58.04c0,0.423-0.101,0.804-0.4,1.118
		c-0.275,0.29-0.612,0.449-1.012,0.451c-1.503,0.007-2.418,0.012-3.921,0c-0.79-0.006-1.394-0.631-1.398-1.437
		c-0.008-1.512-0.002-3.024-0.004-4.537c0-0.097-0.007-0.192-0.011-0.29c0.004-0.105,0.012-0.212,0.012-0.318
		c0-2.77,0.02-5.538-0.01-8.307c-0.012-0.992,0.69-1.649,1.635-1.628c1.353,0.032,2.426,0.008,3.78,0.008
		c1.056,0,1.354,0.583,1.354,1.646c0,2.902,0,5.804,0,8.707C10,53.561,9.976,56.617,9.974,58.04z"/>
	
		<linearGradient id="SVGID_3_" gradientUnits="userSpaceOnUse" x1="285.9795" y1="-303.9604" x2="285.9795" y2="-338.9612" gradientTransform="matrix(1 0 0 -1 -247.6602 -269.96)">
		<stop  offset="0" style="stop-color:#0090E4"/>
		<stop  offset="1" style="stop-color:#007AC1"/>
	</linearGradient>
	<path fill="url(#SVGID_3_)" d="M39.165,43.958c0.078-0.136,0.2-0.281,0.116-0.442c-0.121-0.229,0.029-0.229,0.177-0.261
		c1.484-0.309,2.983-0.486,4.5-0.506c0.556-0.007,1.062,0.148,1.479,0.534c0.228,0.21,0.482,0.393,0.797,0.365
		c0.751-0.065,1.431-0.317,1.839-0.995c0.324-0.542,0.371-1.033-0.082-1.445c-0.985-0.896-2.116-1.54-3.451-1.662
		c-1.315-0.12-2.632,0.046-3.938,0.23c-1.601,0.226-3.18,0.591-4.793,0.738c-1.63,0.148-3.253,0.315-4.883-0.053
		c-0.81-0.182-1.427,0.183-1.507,1.077c-0.024,0.265-0.063,0.527-0.074,0.792c-0.038,0.864,0.212,1.242,1.024,1.549
		c0.139,0.053,0.285,0.093,0.431,0.125c0.892,0.197,1.793,0.17,2.695,0.1c0.71-0.055,0.71-0.018,0.411,0.628
		c-1.363,2.926-2.523,5.93-3.497,9.006c-0.293,0.926-0.598,1.849-0.827,2.793c-0.348,1.078-0.618,2.179-0.906,3.273
		c-0.187,0.719-0.382,1.437-0.358,2.188c0.016,0.494,0.135,0.964,0.574,1.251c0.614,0.403,1.432,0.726,2.155,0.885
		C32.228,64.386,33,63.863,33,62.699c0-0.01,0-0.02,0-0.027c0-1.277,0.061-2.523,0.317-3.765c0.165-0.798,0.321-1.578,0.524-2.366
		c0.478-1.702,0.971-3.385,1.626-5.025c0.595-1.49,1.229-2.952,1.969-4.375C37.996,46.067,38.567,45.011,39.165,43.958z"/>
</g>
<g>
	
		<radialGradient id="SVGID_4_" cx="-183.9424" cy="-228.8193" r="0.0304" gradientTransform="matrix(2291.6716 0 0 -2218.7549 421568.6563 -507670.625)" gradientUnits="userSpaceOnUse">
		<stop  offset="0" style="stop-color:#442F55;stop-opacity:0.98"/>
		<stop  offset="1" style="stop-color:#12002C"/>
	</radialGradient>
	<path fill="url(#SVGID_4_)" d="M4.284,5.531h91.432v88.938H4.284V5.531z"/>
	<path fill="#D8A1FF" d="M4.284,5.531h91.432v88.938H4.284V5.531z M0.128,98.625h99.744V1.375H0.128V98.625z M70.696,48.254
		c2.12,0,2.868,0,3.075-0.083c0-0.291,0.084-0.499,0.084-0.707c0-2.244-1.081-6.4-5.402-6.4c-3.99,0-5.693,3.491-6.11,7.189H70.696
		L70.696,48.254z M62.26,53.949c0.084,5.609,2.743,9.392,9.06,9.392c2.453,0,4.572-0.332,6.775-1.288
		c0.29-0.125,0.499-0.083,0.499,0.291v5.194c0,0.416-0.126,0.624-0.416,0.832c-2.203,1.08-4.946,1.579-8.354,1.579
		c-10.972,0-15.087-8.104-15.087-17.122c0-9.809,5.07-17.83,14.006-17.83c9.061,0,12.219,7.605,12.219,13.797
		c0,1.996-0.124,3.616-0.332,4.406c-0.082,0.332-0.208,0.457-0.54,0.54c-0.831,0.124-3.283,0.29-6.94,0.29H62.26V53.949z
		 M39.984,49.709c-1.164-4.613-3.99-14.67-5.029-19.533h-0.083C34,35.039,31.713,43.268,30.01,49.709H39.984z M28.305,56.441
		l-3.283,12.427c-0.083,0.331-0.207,0.457-0.624,0.457H18.29c-0.416,0-0.499-0.125-0.416-0.623l11.803-41.269
		c0.208-0.748,0.333-1.33,0.416-3.408c0-0.291,0.125-0.416,0.333-0.416h8.728c0.291,0,0.416,0.083,0.498,0.416l13.217,44.761
		c0.082,0.332,0,0.539-0.334,0.539h-6.856c-0.332,0-0.542-0.125-0.625-0.415l-3.407-12.469H28.305L28.305,56.441z"/>
</g>
</svg>
