<?xml version="1.0" encoding="utf-8"?>
<!-- Generator: Adobe Illustrator 16.0.0, SVG Export Plug-In . SVG Version: 6.00 Build 0)  -->
<!DOCTYPE svg PUBLIC "-//W3C//DTD SVG 1.1//EN" "http://www.w3.org/Graphics/SVG/1.1/DTD/svg11.dtd">
<svg version="1.1" id="Layer_1" xmlns="http://www.w3.org/2000/svg" xmlns:xlink="http://www.w3.org/1999/xlink" x="0px" y="0px"
	 width="100px" height="100px" viewBox="0 0 100 100" enable-background="new 0 0 100 100" xml:space="preserve">
<g>
	<path fill-rule="evenodd" clip-rule="evenodd" fill="#1672B6" d="M49.512,98.181c-4.27-1.472-8.668-2.496-13.007-3.721
		c-6.639-1.876-13.29-3.715-19.951-5.513c-1.041-0.279-1.381-0.742-1.472-1.821c-0.994-11.68-2.048-23.354-3.096-35.028
		c-1.198-13.337-2.408-26.672-3.61-40.007C8.093,8.958,7.84,5.823,7.531,2.694C7.46,1.979,7.563,1.579,8.379,1.676
		C8.567,1.698,8.76,1.679,8.951,1.679c27.467,0,54.933,0,82.4,0.002c0.38,0,0.761,0.03,1.142,0.046
		c0.007,0.295,0.013,0.59,0.019,0.885c-0.685,7.54-1.382,15.079-2.054,22.62c-0.811,9.107-1.591,18.216-2.4,27.323
		c-1.018,11.478-2.069,22.954-3.049,34.436c-0.096,1.123-0.427,1.651-1.549,1.949c-6.017,1.606-12.017,3.28-18.015,4.958
		c-5.031,1.408-10.05,2.854-15.074,4.282C50.083,98.181,49.797,98.181,49.512,98.181z M50.07,40.127
		c-0.52,0.026-1.042,0.077-1.561,0.077c-3.331,0.008-6.66,0.024-9.99-0.011c-0.816-0.008-1.191,0.087-1.081,1.077
		c0.32,2.833,0.553,5.676,0.755,8.52c0.066,0.93,0.452,1.154,1.334,1.148c3.517-0.026,7.035,0.025,10.553,0.047
		c0.002,5.605,0.003,11.21,0.004,16.815c-3.83-0.726-7.521-1.997-11.304-2.91c-0.579-0.139-0.669-0.55-0.709-1.071
		c-0.17-2.182-0.428-4.36-0.547-6.545c-0.048-0.888-0.36-1.118-1.2-1.104c-2.763,0.043-5.528,0.058-8.289-0.005
		c-1.036-0.022-1.288,0.312-1.192,1.315c0.444,4.644,0.862,9.291,1.191,13.945c0.079,1.13,0.43,1.621,1.555,1.926
		c6.838,1.85,13.652,3.789,20.474,5.698c0.004,3.338,0.01,6.675,0.014,10.015c0.002,1.75-0.002,1.732,1.71,1.253
		c8.368-2.34,16.734-4.693,25.12-6.972c0.973-0.264,1.385-0.769,1.462-1.634c0.319-3.639,0.604-7.279,0.9-10.919
		c0.212-2.603,0.399-5.204,0.637-7.803c0.341-3.728,0.739-7.452,1.072-11.181c0.331-3.686,0.595-7.376,0.916-11.062
		c0.35-4.014,0.735-8.025,1.098-12.038c0.23-2.55,0.439-5.103,0.675-7.653c0.337-3.634,0.679-7.268,1.046-10.898
		c0.103-1.013-0.295-1.298-1.288-1.294C72.743,8.894,62.062,8.899,51.381,8.858c-1.137-0.004-1.344,0.424-1.322,1.428
		c0.057,2.765,0.024,5.531,0.026,8.297c-0.521,0.022-1.043,0.063-1.566,0.063c-7.905,0.004-15.81,0.027-23.716-0.025
		c-1.163-0.007-1.466,0.327-1.337,1.44c0.303,2.646,0.571,5.3,0.735,7.958c0.067,1.074,0.458,1.298,1.47,1.292
		c7.571-0.044,15.144-0.026,22.715-0.018c0.567,0,1.132,0.079,1.698,0.12C50.079,32.985,50.074,36.556,50.07,40.127z"/>
	<path fill-rule="evenodd" clip-rule="evenodd" fill="#33A8DB" d="M50.083,18.583c-0.001-2.766,0.032-5.532-0.025-8.297
		c-0.022-1.004,0.185-1.433,1.322-1.428c10.681,0.041,21.362,0.035,32.045,0.006c0.993-0.003,1.391,0.282,1.288,1.294
		c-0.367,3.631-0.709,7.264-1.046,10.898c-0.235,2.55-0.444,5.103-0.675,7.653c-0.362,4.013-0.748,8.024-1.098,12.038
		c-0.321,3.686-0.585,7.376-0.916,11.062c-0.333,3.729-0.731,7.453-1.072,11.181c-0.237,2.599-0.425,5.2-0.637,7.803
		c-0.296,3.64-0.581,7.28-0.9,10.919c-0.077,0.865-0.489,1.37-1.462,1.634c-8.386,2.278-16.752,4.632-25.12,6.972
		c-1.712,0.479-1.708,0.497-1.71-1.253c-0.004-3.34-0.01-6.677-0.014-10.015c0.136-0.077,0.271-0.155,0.406-0.232
		c5.868-1.603,11.737-3.202,17.604-4.81c1.191-0.327,2.632-0.383,3.492-1.111c0.973-0.823,0.509-2.411,0.626-3.665
		c0.667-7.104,1.291-14.213,1.935-21.32c0.535-5.923,1.088-11.844,1.607-17.768c0.33-3.742,0.617-7.488,0.922-11.232
		c0.026-0.189-0.06-0.257-0.24-0.221c-3.18-0.015-6.361-0.045-9.541-0.039c-5.603,0.01-11.202,0.043-16.803,0.067L50.083,18.583z"/>
	<path fill-rule="evenodd" clip-rule="evenodd" fill="#EAEAE9" d="M50.47,78.818c-0.135,0.076-0.27,0.154-0.406,0.231
		c-6.821-1.909-13.636-3.849-20.474-5.698c-1.125-0.305-1.476-0.796-1.555-1.926c-0.329-4.654-0.747-9.302-1.191-13.945
		c-0.096-1.004,0.156-1.338,1.192-1.315c2.761,0.063,5.526,0.048,8.289,0.005c0.84-0.015,1.152,0.216,1.2,1.104
		c0.119,2.185,0.376,4.363,0.547,6.545c0.04,0.521,0.13,0.933,0.709,1.071c3.783,0.913,7.474,2.185,11.304,2.91l-0.013,0.131
		c0.004,3.101,0,6.199,0.02,9.299C50.093,77.777,49.902,78.395,50.47,78.818z"/>
	<path fill-rule="evenodd" clip-rule="evenodd" fill="#EAEAE9" d="M50.083,29.415c-0.565-0.042-1.131-0.12-1.698-0.121
		c-7.571-0.008-15.144-0.026-22.715,0.018c-1.011,0.006-1.403-0.219-1.47-1.292c-0.165-2.658-0.432-5.312-0.735-7.958
		c-0.128-1.113,0.175-1.447,1.337-1.44c7.906,0.053,15.811,0.029,23.716,0.025c0.523,0,1.045-0.042,1.566-0.063
		c-0.001,0-0.012,0.135-0.012,0.135c0.003,3.495,0.007,6.991,0.011,10.487C50.079,29.275,50.079,29.345,50.083,29.415z"/>
	<path fill-rule="evenodd" clip-rule="evenodd" fill="#33A8DB" d="M50.084,67.8c-0.001-5.605-0.002-11.21-0.004-16.815
		c-0.006-0.06-0.012-0.12-0.014-0.179c3.941,0.266,7.887,0.068,11.832,0.094c0.944,0.007,1.293,0.115,1.17,1.235
		c-0.416,3.778-0.702,7.572-0.979,11.364c-0.064,0.906-0.392,1.306-1.292,1.536c-3.59,0.914-7.153,1.922-10.727,2.896L50.084,67.8z"
		/>
	<path fill-rule="evenodd" clip-rule="evenodd" fill="#33A8DB" d="M50.07,40.127c0.004-3.571,0.008-7.142,0.012-10.712
		c-0.004-0.069-0.004-0.139,0.001-0.209c0.521,0.026,1.042,0.074,1.563,0.074c4.044,0.007,8.089,0.034,12.132-0.017
		c1.026-0.013,1.315,0.306,1.215,1.306c-0.28,2.743-0.502,5.491-0.699,8.241c-0.074,1.026-0.422,1.441-1.558,1.416
		c-3.663-0.083-7.328-0.037-10.991-0.024c-0.561,0.002-1.145-0.133-1.677,0.174C50.063,40.292,50.063,40.21,50.07,40.127z"/>
	<path fill-rule="evenodd" clip-rule="evenodd" fill="#EAEAE9" d="M50.081,50.984c-3.518-0.022-7.036-0.073-10.553-0.047
		c-0.882,0.006-1.268-0.218-1.334-1.148c-0.202-2.843-0.435-5.687-0.755-8.52c-0.11-0.99,0.265-1.085,1.081-1.077
		c3.33,0.036,6.659,0.019,9.99,0.011c0.519,0,1.041-0.051,1.561-0.077c-0.007,0.083-0.007,0.165-0.002,0.248
		c0,3.477-0.001,6.954-0.001,10.431C50.069,50.864,50.074,50.925,50.081,50.984z"/>
	<path fill-rule="evenodd" clip-rule="evenodd" fill="#FEFDFD" d="M50.067,50.805c0-3.477,0.001-6.954,0.001-10.431
		c0.532-0.307,1.117-0.172,1.677-0.174c3.663-0.012,7.328-0.059,10.991,0.024c1.136,0.025,1.483-0.389,1.558-1.416
		c0.197-2.75,0.419-5.499,0.699-8.241c0.101-1-0.188-1.319-1.215-1.306c-4.043,0.051-8.088,0.024-12.132,0.017
		c-0.521,0-1.042-0.048-1.563-0.074c-0.004-3.496-0.008-6.992-0.011-10.487c5.601-0.024,11.2-0.058,16.803-0.067
		c3.18-0.006,6.361,0.024,9.541,0.039c0.079,0.073,0.159,0.147,0.24,0.221c-0.305,3.744-0.592,7.49-0.922,11.232
		c-0.52,5.924-1.072,11.845-1.607,17.768c-0.644,7.107-1.268,14.217-1.935,21.32c-0.117,1.254,0.347,2.842-0.626,3.665
		c-0.86,0.729-2.301,0.784-3.492,1.111c-5.867,1.607-11.736,3.207-17.604,4.81c-0.568-0.423-0.377-1.04-0.379-1.588
		c-0.02-3.1-0.015-6.198-0.02-9.299c3.573-0.974,7.137-1.981,10.727-2.896c0.9-0.23,1.228-0.63,1.292-1.536
		c0.276-3.792,0.563-7.586,0.979-11.364c0.123-1.12-0.226-1.229-1.17-1.235C57.954,50.874,54.008,51.071,50.067,50.805z"/>
	<path fill-rule="evenodd" clip-rule="evenodd" fill="#EAEAE9" d="M76.656,18.911c-0.081-0.074-0.161-0.147-0.24-0.221
		C76.597,18.654,76.683,18.722,76.656,18.911z"/>
</g>
</svg>
