<?xml version="1.0" encoding="utf-8"?>
<!-- Generator: Adobe Illustrator 16.0.0, SVG Export Plug-In . SVG Version: 6.00 Build 0)  -->
<!DOCTYPE svg PUBLIC "-//W3C//DTD SVG 1.1//EN" "http://www.w3.org/Graphics/SVG/1.1/DTD/svg11.dtd">
<svg version="1.1" id="Layer_1" xmlns="http://www.w3.org/2000/svg" xmlns:xlink="http://www.w3.org/1999/xlink" x="0px" y="0px"
	 width="100px" height="100px" viewBox="0 0 100 100" enable-background="new 0 0 100 100" xml:space="preserve">
<g>
	<path fill="#3879BD" d="M30.119,5.082L1.707,23.634l19.646,15.731L50,21.675L30.119,5.082z M1.707,55.1l28.412,18.55L50,57.056
		l-28.647-17.69L1.707,55.1z M50,57.056l19.881,16.594L98.293,55.1L78.648,39.365L50,57.056z"/>
	<path fill="#3879BD" d="M98.293,23.634L69.881,5.082L50,21.675l28.649,17.69L98.293,23.634z M50.059,60.624l-19.94,16.548
		l-8.532-5.571v6.245l28.472,17.072l28.472-17.072v-6.245l-8.533,5.571L50.059,60.624z"/>
</g>
</svg>
