<?xml version="1.0" encoding="utf-8"?>
<!-- Generator: Adobe Illustrator 16.0.0, SVG Export Plug-In . SVG Version: 6.00 Build 0)  -->
<!DOCTYPE svg PUBLIC "-//W3C//DTD SVG 1.1//EN" "http://www.w3.org/Graphics/SVG/1.1/DTD/svg11.dtd">
<svg version="1.1" id="Layer_1" xmlns="http://www.w3.org/2000/svg" xmlns:xlink="http://www.w3.org/1999/xlink" x="0px" y="0px"
	 width="100px" height="100px" viewBox="0 0 100 100" enable-background="new 0 0 100 100" xml:space="preserve">
<g>
	<path fill="#EF5034" d="M51.101,1.759c1.959,0.586,3.372,1.924,4.776,3.333C69.167,18.42,82.44,31.769,95.829,44.996
		c2.983,2.945,3.218,7.106-0.032,10.305C82.42,68.482,69.191,81.814,55.927,95.107c-1.28,1.285-2.549,2.539-4.316,3.133
		c-1.016,0-2.031,0-3.046,0c-1.848-0.734-3.188-2.113-4.557-3.484C31.185,81.91,18.352,69.082,5.507,56.256
		c-1.428-1.426-2.882-2.811-3.658-4.732c0-1.1,0-2.198,0-3.299c0.704-0.877,1.034-1.979,1.864-2.805
		c9.383-9.344,18.749-18.711,28.092-28.095c0.602-0.602,0.915-0.569,1.49,0.014c3.144,3.199,6.319,6.367,9.511,9.518
		c0.504,0.497,0.649,0.903,0.438,1.635c-0.948,3.269,0.358,6.57,3.312,8.274c0.8,0.461,0.975,0.971,0.971,1.803
		c-0.025,7.956-0.032,15.913,0.006,23.862c0.006,0.957-0.253,1.486-1.11,1.99c-2.821,1.662-4.071,4.965-3.219,8.111
		c0.853,3.145,3.627,5.348,6.851,5.434c3.306,0.092,6.198-1.969,7.208-5.129c0.996-3.119-0.109-6.424-2.848-8.242
		c-0.685-0.457-0.938-0.916-0.936-1.736c0.033-7.992,0.018-15.991,0.029-23.987c0-0.307-0.165-0.675,0.258-0.991
		c3.13,3.135,6.255,6.283,9.412,9.402c0.449,0.443,0.239,0.821,0.114,1.257c-0.492,1.738-0.38,3.437,0.382,5.071
		c1.627,3.496,5.578,5.154,9.138,3.859c3.658-1.336,5.658-5.18,4.624-8.891c-1.02-3.661-4.614-5.912-8.43-5.193
		c-0.853,0.159-1.39-0.038-1.981-0.64c-3.023-3.08-6.087-6.121-9.149-9.162c-0.414-0.412-0.618-0.75-0.468-1.414
		c1.31-5.772-4.024-10.068-8.692-8.837c-0.584,0.152-1.014,0.042-1.463-0.415c-3.271-3.311-6.562-6.604-9.874-9.872
		c-0.53-0.523-0.479-0.811,0.023-1.304c2.239-2.19,4.466-4.39,6.643-6.643c1.381-1.432,2.819-2.745,4.777-3.333
		C49.577,1.759,50.339,1.759,51.101,1.759z"/>
</g>
</svg>
