<?xml version="1.0" encoding="utf-8"?>
<!-- Generator: Adobe Illustrator 16.0.0, SVG Export Plug-In . SVG Version: 6.00 Build 0)  -->
<!DOCTYPE svg PUBLIC "-//W3C//DTD SVG 1.1//EN" "http://www.w3.org/Graphics/SVG/1.1/DTD/svg11.dtd">
<svg version="1.1" id="Layer_1" xmlns="http://www.w3.org/2000/svg" xmlns:xlink="http://www.w3.org/1999/xlink" x="0px" y="0px"
	 width="100px" height="100px" viewBox="0 0 100 100" enable-background="new 0 0 100 100" xml:space="preserve">
<g>
	<path fill="#D24A48" d="M62.074,96.649l0.949-15.793l2.615-4.465c0,0-5.955,2.438-15.926,2.438c-9.971,0-15.834-2.393-15.834-2.393
		l2.932,4.873l1.039,15.34c0,1.643,5.423,2.977,12.114,2.977C56.65,99.626,62.074,98.292,62.074,96.649 M59.086,22.911l1.988-7.862
		L72.09,3.458l-2.904-2.473l-11.66,12.347l-2.309,9.393c-1.738-0.059-3.479-0.087-5.217-0.087c-12.284,0-22.237,1.4-22.237,3.125
		c0,1.727,9.954,3.127,22.237,3.127c12.282,0,22.239-1.4,22.239-3.127C72.238,24.493,66.836,23.401,59.086,22.911"/>
	<path fill="#FFFFFF" d="M57.93,27.312c0,0-0.432,0.097-1.699,0.104c-1.266,0.002-2.168-0.01-2.525-0.336
		c-0.1-0.087-0.15-0.261-0.148-0.38c0-0.225,0.158-0.356,0.361-0.438l0.193,0.301c-0.084,0.028-0.131,0.061-0.131,0.099
		c-0.002,0.171,1.295,0.287,2.287,0.274s2.191-0.093,2.191-0.261c0-0.051-0.092-0.099-0.248-0.137l0.191-0.3
		c0.258,0.081,0.482,0.236,0.48,0.503C58.881,27.192,58.303,27.261,57.93,27.312"/>
	<path fill="#D24A48" d="M72.07,3.482c0.275-0.321-0.148-1.139-0.939-1.828c-0.799-0.689-1.666-0.989-1.945-0.668
		c-0.275,0.319,0.145,1.138,0.939,1.827S71.789,3.8,72.07,3.482 M61.545,58.078c-0.26-2.511,5.494-6.148,4.018-6.266
		c-3.18,0.185-4.76,3.727-6.363,7.438c-0.586,1.36-2.59,7.161-3.908,6.446c-1.313-0.712,1.709-5.482,2.555-8.315
		c-0.977,0.718-4.559,3.499-5.482,0.893c-1.484,1.261-4.656,1.942-4.297-1.367c-0.791,1.398-2.564,3.351-4.69,2.538
		c-2.792-1.063,1.619-9.963,2.717-9.514c1.098,0.451-0.223,2.476-0.568,3.264c-0.759,1.732-1.638,3.909-1.05,4.355
		c1.003,0.765,3.737-2.889,3.796-2.97c0.511-0.675,1.968-5.092,3.141-4.584c1.172,0.507-2.927,6.338-1.392,7.497
		c0.308,0.234,1.573-0.143,2.343-0.978c0.496-0.538,0.326-1.73,1.986-5.691c1.66-3.958,3.139-8.888,4.279-8.512
		c1.137,0.375,0.199,2.906-0.211,3.852c-1.916,4.425-5.229,11.74-3.666,11.187c1.563-0.554,2.375-0.588,3.906-2.379
		c1.531-1.79,1.459-4.741,2.48-4.678c1.023,0.062,0.85,1.008,0.604,1.729c1.002-1.149,4.756-3.567,5.664-1.171
		c1.072,2.835-5.373,6.936-3.764,6.725c1.568-0.201,4.104-1.811,5.189-3.273l2.982-26.824c0,0-3.004,2.485-22.104,2.485
		c-19.102,0-21.793-2.435-21.793-2.435l2.54,24.485c1.348-3.832,4.551-11.584,9.596-11.323c2.297,0.119,5.36,4.538,2.735,4.689
		c-1.112,0.062-1.225-2.207-2.539-2.541c-0.949-0.241-2.272,0.531-3.128,1.369c-1.703,1.666-5.366,8.246-4.881,11.525
		c0.614,4.184,5.771-1.452,6.642-3.127c0.613-1.176,1.029-4.668,2.373-4.303c1.342,0.367-0.118,3.97-1.091,7.156
		c-1.094,3.579-1.669,7.353-3.042,6.919c-1.369-0.434,0.865-5.053,0.783-5.863c-1.289,1.189-3.662,4.2-6.7,2.71l1.577,15.205
		c0,0,4.195,3.312,16.826,3.312c12.63,0,16.978-3.26,16.978-3.26l1.959-17.611C66.941,58.432,61.869,61.203,61.545,58.078"/>
</g>
</svg>
