<?xml version="1.0" encoding="utf-8"?>
<!-- Generator: Adobe Illustrator 16.0.0, SVG Export Plug-In . SVG Version: 6.00 Build 0)  -->
<!DOCTYPE svg PUBLIC "-//W3C//DTD SVG 1.1//EN" "http://www.w3.org/Graphics/SVG/1.1/DTD/svg11.dtd">
<svg version="1.1" id="Layer_1" xmlns="http://www.w3.org/2000/svg" xmlns:xlink="http://www.w3.org/1999/xlink" x="0px" y="0px"
	 width="100px" height="100px" viewBox="0 0 100 100" enable-background="new 0 0 100 100" xml:space="preserve">
<g>
	<path fill-rule="evenodd" clip-rule="evenodd" fill="#E34F27" d="M49.414,97.78c-3.479-1.307-7.111-2.091-10.676-3.1
		c-7.252-2.056-14.52-4.056-21.793-6.032c-1.042-0.282-1.478-0.673-1.577-1.865c-0.837-10.108-1.785-20.207-2.687-30.311
		c-0.704-7.895-1.385-15.792-2.087-23.686C9.785,23.718,8.989,14.648,8.133,5.583c-0.315-3.347-0.388-3.342,2.89-3.342
		c26.485,0,52.971,0.008,79.456-0.021c1.224-0.001,1.641,0.152,1.508,1.579c-1.289,13.668-2.485,27.344-3.697,41.019
		c-0.985,11.137-1.954,22.277-2.935,33.414c-0.265,3.01-0.6,6.012-0.789,9.023c-0.063,0.985-0.623,1.103-1.329,1.297
		c-10.443,2.885-20.885,5.776-31.321,8.689c-0.463,0.129-1.033,0.059-1.369,0.54C50.17,97.78,49.791,97.78,49.414,97.78z
		 M49.979,68.604c-3.546-0.966-7.086-1.946-10.638-2.887c-0.82-0.218-1.246-0.544-1.287-1.501c-0.087-2.069-0.404-4.132-0.498-6.203
		c-0.043-0.932-0.428-1.057-1.215-1.048c-2.785,0.036-5.571,0.058-8.354-0.009c-1.016-0.024-1.104,0.329-1.02,1.22
		c0.454,4.741,0.854,9.488,1.223,14.237c0.065,0.842,0.371,1.218,1.197,1.436c3.598,0.948,7.167,2.004,10.765,2.957
		c3.272,0.866,6.478,1.99,9.818,2.596c0.414-0.073,0.837-0.114,1.239-0.225c6.265-1.726,12.515-3.512,18.803-5.15
		c1.324-0.346,1.676-0.969,1.773-2.197c0.406-5.124,0.9-10.24,1.35-15.361c0.418-4.744,0.817-9.492,1.241-14.236
		c0.063-0.704,0.035-1.129-0.893-1.125c-7.835,0.052-15.667,0.057-23.5,0.076c-4.242-0.016-8.485-0.065-12.726-0.021
		c-0.985,0.01-1.309-0.319-1.375-1.242c-0.196-2.771-0.374-5.549-0.713-8.306c-0.144-1.167,0.235-1.292,1.237-1.285
		c4.525,0.035,9.051-0.008,13.575-0.023c5.278,0.018,10.556,0.041,15.833,0.054c2.876,0.008,5.75,0.002,8.626,0.001
		c0.51,0,1.006,0.104,1.069-0.713c0.229-2.958,0.506-5.914,0.817-8.864c0.094-0.894-0.313-0.997-1.046-0.985
		c-2.025,0.036-4.054,0.008-6.081,0.014c-6.407,0.021-12.817,0.045-19.224,0.068c-6.512-0.018-13.022-0.038-19.534-0.054
		c-1.982-0.005-3.963,0.016-5.945-0.01c-0.648-0.008-0.981,0.163-0.879,0.876c0.067,0.465,0.061,0.941,0.103,1.412
		c0.443,4.929,0.892,9.858,1.333,14.79c0.403,4.509,0.796,9.019,1.205,13.525c0.058,0.648,0.047,1.271,1.069,1.262
		c7.548-0.056,15.097-0.057,22.647-0.076c3.956,0.024,7.912,0.069,11.869,0.057c0.875-0.004,1.095,0.203,0.997,1.124
		c-0.391,3.746-0.72,7.501-0.972,11.258c-0.07,1.036-0.469,1.446-1.427,1.697C56.946,66.652,53.465,67.643,49.979,68.604z"/>
	<path fill-rule="evenodd" clip-rule="evenodd" fill="#EAEAE9" d="M49.979,51.606c-7.55,0.02-15.099,0.021-22.647,0.076
		c-1.021,0.009-1.011-0.614-1.069-1.262c-0.408-4.506-0.801-9.016-1.205-13.525c-0.441-4.931-0.891-9.861-1.333-14.79
		c-0.042-0.471-0.036-0.947-0.103-1.412c-0.103-0.713,0.23-0.884,0.879-0.876c1.981,0.026,3.963,0.005,5.945,0.01
		c6.511,0.016,13.022,0.036,19.534,0.054c0.001,3.475,0.003,6.951,0.005,10.426c-4.524,0.015-9.05,0.058-13.575,0.023
		c-1.002-0.008-1.381,0.118-1.237,1.285c0.34,2.757,0.518,5.535,0.713,8.306c0.065,0.922,0.389,1.251,1.375,1.242
		c4.241-0.045,8.483,0.005,12.726,0.021C49.983,44.658,49.98,48.133,49.979,51.606z"/>
	<path fill-rule="evenodd" clip-rule="evenodd" fill="#FEFDFD" d="M49.979,51.606c0.002-3.474,0.005-6.948,0.007-10.423
		c7.833-0.019,15.665-0.024,23.5-0.076c0.928-0.005,0.955,0.421,0.893,1.125c-0.424,4.744-0.823,9.492-1.241,14.236
		c-0.449,5.121-0.943,10.237-1.35,15.361c-0.098,1.229-0.449,1.852-1.773,2.197c-6.288,1.639-12.538,3.425-18.803,5.15
		c-0.402,0.11-0.825,0.151-1.239,0.225c0.002-3.599,0.005-7.2,0.008-10.798c3.485-0.961,6.967-1.951,10.467-2.861
		c0.958-0.251,1.356-0.661,1.427-1.697c0.252-3.757,0.581-7.512,0.972-11.258c0.098-0.921-0.122-1.128-0.997-1.124
		C57.891,51.676,53.935,51.631,49.979,51.606z"/>
	<path fill-rule="evenodd" clip-rule="evenodd" fill="#EAEAE9" d="M49.979,68.604c-0.003,3.598-0.006,7.199-0.008,10.798
		c-3.34-0.605-6.546-1.729-9.818-2.596c-3.598-0.953-7.167-2.009-10.765-2.957c-0.826-0.218-1.132-0.594-1.197-1.436
		c-0.37-4.749-0.769-9.496-1.223-14.237c-0.084-0.891,0.003-1.244,1.02-1.22c2.783,0.066,5.569,0.045,8.354,0.009
		c0.787-0.009,1.172,0.116,1.215,1.048c0.094,2.071,0.411,4.134,0.498,6.203c0.041,0.957,0.467,1.283,1.287,1.501
		C42.893,66.657,46.434,67.638,49.979,68.604z"/>
	<path fill-rule="evenodd" clip-rule="evenodd" fill="#FEFDFD" d="M49.984,30.308c-0.002-3.475-0.004-6.951-0.005-10.426
		c6.406-0.023,12.816-0.048,19.224-0.068c2.027-0.006,4.056,0.022,6.081-0.014c0.732-0.012,1.14,0.091,1.046,0.985
		c-0.312,2.951-0.588,5.906-0.817,8.864c-0.063,0.817-0.56,0.713-1.069,0.713c-2.876,0.001-5.75,0.006-8.626-0.001
		C60.54,30.349,55.263,30.325,49.984,30.308z"/>
</g>
</svg>
