<?xml version="1.0" encoding="utf-8"?>
<!-- Generator: Adobe Illustrator 16.0.0, SVG Export Plug-In . SVG Version: 6.00 Build 0)  -->
<!DOCTYPE svg PUBLIC "-//W3C//DTD SVG 1.1//EN" "http://www.w3.org/Graphics/SVG/1.1/DTD/svg11.dtd">
<svg version="1.1" id="Layer_1" xmlns="http://www.w3.org/2000/svg" xmlns:xlink="http://www.w3.org/1999/xlink" x="0px" y="0px"
	 width="100px" height="100px" viewBox="0 0 100 100" enable-background="new 0 0 100 100" xml:space="preserve">
<g>
	
		<radialGradient id="SVGID_1_" cx="-183.9424" cy="-228.7749" r="0.0306" gradientTransform="matrix(2291.6716 0 0 -2218.7549 421570 -507572)" gradientUnits="userSpaceOnUse">
		<stop  offset="0" style="stop-color:#423325;stop-opacity:0.98"/>
		<stop  offset="1" style="stop-color:#1C0A00"/>
	</radialGradient>
	<path fill="url(#SVGID_1_)" d="M4.167,5.167h91.667v89.167H4.167V5.167z"/>
	<path fill="#FF7F18" d="M4.167,5.167h91.667v89.167H4.167V5.167z M0,98.5h100V1H0V98.5z M65.499,35.75c0-0.333,0.126-0.5,0.501-0.5
		h6.542c0.333,0,0.5,0.125,0.5,0.5v32.876c0,0.332-0.084,0.499-0.5,0.499h-6.458c-0.417,0-0.542-0.208-0.542-0.543V35.75H65.499
		L65.499,35.75z M65.042,26.292c0-2.667,1.875-4.25,4.251-4.25c2.541,0,4.249,1.708,4.249,4.25c0,2.75-1.791,4.25-4.333,4.25
		C66.792,30.542,65.042,29.042,65.042,26.292z M46.292,49.459c-1.167-4.625-3.917-14.709-4.958-19.584H41.25
		C40.375,34.75,38.167,43,36.417,49.459H46.292z M34.708,56.209L31.417,68.71c-0.083,0.333-0.208,0.416-0.625,0.416h-6.125
		c-0.417,0-0.5-0.125-0.417-0.626l11.833-41.416c0.208-0.75,0.333-1.417,0.416-3.458c0-0.292,0.125-0.417,0.333-0.417h8.75
		c0.292,0,0.416,0.083,0.5,0.417l13.25,44.958c0.084,0.333,0,0.543-0.333,0.543h-6.917c-0.333,0-0.541-0.083-0.624-0.376
		l-3.417-12.541H34.708L34.708,56.209z"/>
</g>
</svg>
