<?xml version="1.0" encoding="utf-8"?>
<!-- Generator: Adobe Illustrator 16.0.0, SVG Export Plug-In . SVG Version: 6.00 Build 0)  -->
<!DOCTYPE svg PUBLIC "-//W3C//DTD SVG 1.1//EN" "http://www.w3.org/Graphics/SVG/1.1/DTD/svg11.dtd">
<svg version="1.1" id="Layer_1" xmlns="http://www.w3.org/2000/svg" xmlns:xlink="http://www.w3.org/1999/xlink" x="0px" y="0px"
	 width="100px" height="100px" viewBox="0 0 100 100" enable-background="new 0 0 100 100" xml:space="preserve">
<g>
	<path fill-rule="evenodd" clip-rule="evenodd" fill="#F7DF1E" d="M100,100c-33.327,0-66.655,0-100,0C0,66.686,0,33.366,0,0.017
		c33.322,0,66.66,0,100,0C100,33.334,100,66.665,100,100z M59.452,82.531c1.385,2.724,3.211,4.877,5.647,6.456
		c5.262,3.411,11.002,3.944,16.987,2.583c3.432-0.78,6.299-2.506,8.279-5.509c3.06-4.639,2.803-13.047-2.698-17.368
		c-3.045-2.393-6.57-3.825-10.041-5.404c-1.596-0.727-3.188-1.547-4.6-2.576c-1.394-1.017-1.608-2.624-1.158-4.245
		c0.446-1.607,1.613-2.45,3.222-2.706c2.522-0.399,4.582,0.363,6.091,2.47c0.319,0.447,0.631,0.9,1.003,1.435
		c2.477-1.594,4.906-3.157,7.317-4.709c-1.114-2.284-3.033-4.396-5.069-5.612c-3.621-2.163-7.58-2.432-11.582-1.725
		c-4.99,0.88-8.704,3.597-10.058,8.644c-1.382,5.159-0.321,9.844,3.765,13.57c2.266,2.065,5.029,3.287,7.795,4.512
		c2.058,0.911,4.106,1.858,6.079,2.937c1.788,0.977,2.569,2.612,2.219,4.647c-0.318,1.851-1.635,2.826-3.313,3.379
		c-3.854,1.27-8.062,0.004-10.681-3.212c-0.519-0.638-0.986-1.317-1.517-2.031C64.576,79.555,62.065,81.014,59.452,82.531z
		 M26.248,83.542c1.42,3.045,3.45,5.404,6.363,6.879c4.402,2.228,9.012,2.355,13.646,0.887c3.93-1.245,6.458-3.991,7.519-7.957
		c0.436-1.626,0.721-3.343,0.731-5.021c0.068-10.52,0.033-21.04,0.057-31.56c0.002-0.802-0.309-0.994-1.052-0.982
		c-2.395,0.038-4.791,0.013-7.187,0.014c-1.363,0-1.365,0.002-1.365,1.355c0,9.965,0,19.93-0.001,29.894
		c0,0.659,0.013,1.321-0.026,1.979c-0.173,2.871-1.507,4.402-4.07,4.65c-2.169,0.211-3.968-0.48-5.255-2.295
		c-0.573-0.808-1.106-1.644-1.684-2.506C31.331,80.455,28.82,81.979,26.248,83.542z"/>
	<path fill-rule="evenodd" clip-rule="evenodd" d="M59.452,82.531c2.613-1.518,5.124-2.977,7.688-4.466
		c0.53,0.714,0.998,1.394,1.517,2.031c2.619,3.216,6.827,4.481,10.681,3.212c1.678-0.553,2.994-1.528,3.313-3.379
		c0.351-2.035-0.431-3.671-2.219-4.647c-1.973-1.078-4.021-2.025-6.079-2.937c-2.766-1.225-5.529-2.446-7.795-4.512
		c-4.086-3.727-5.146-8.411-3.765-13.57c1.354-5.046,5.067-7.763,10.058-8.644c4.002-0.707,7.961-0.438,11.582,1.725
		c2.036,1.216,3.955,3.328,5.069,5.612c-2.411,1.552-4.841,3.115-7.317,4.709c-0.372-0.534-0.684-0.987-1.003-1.435
		c-1.509-2.106-3.568-2.869-6.091-2.47c-1.608,0.256-2.775,1.099-3.222,2.706c-0.45,1.621-0.235,3.229,1.158,4.245
		c1.412,1.029,3.004,1.85,4.6,2.576c3.471,1.579,6.996,3.012,10.041,5.404c5.501,4.321,5.758,12.729,2.698,17.368
		c-1.98,3.003-4.848,4.729-8.279,5.509c-5.985,1.361-11.726,0.828-16.987-2.583C62.663,87.408,60.837,85.255,59.452,82.531z"/>
	<path fill-rule="evenodd" clip-rule="evenodd" d="M26.248,83.542c2.572-1.563,5.083-3.087,7.676-4.663
		c0.578,0.862,1.111,1.698,1.684,2.506c1.288,1.814,3.086,2.506,5.255,2.295c2.563-0.248,3.897-1.779,4.07-4.65
		c0.04-0.657,0.026-1.319,0.026-1.979c0.001-9.964,0.001-19.929,0.001-29.894c0-1.353,0.002-1.354,1.365-1.355
		c2.396-0.001,4.792,0.023,7.187-0.014c0.743-0.012,1.054,0.181,1.052,0.982c-0.023,10.52,0.012,21.04-0.057,31.56
		c-0.011,1.678-0.296,3.395-0.731,5.021c-1.062,3.966-3.589,6.712-7.519,7.957c-4.635,1.469-9.245,1.341-13.646-0.887
		C29.697,88.946,27.667,86.587,26.248,83.542z"/>
</g>
</svg>
