<?xml version="1.0" encoding="utf-8"?>
<!-- Generator: Adobe Illustrator 16.0.0, SVG Export Plug-In . SVG Version: 6.00 Build 0)  -->
<!DOCTYPE svg PUBLIC "-//W3C//DTD SVG 1.1//EN" "http://www.w3.org/Graphics/SVG/1.1/DTD/svg11.dtd">
<svg version="1.1" id="Layer_1" xmlns="http://www.w3.org/2000/svg" xmlns:xlink="http://www.w3.org/1999/xlink" x="0px" y="0px"
	 width="100px" height="100px" viewBox="0 0 100 100" enable-background="new 0 0 100 100" xml:space="preserve">
<g>
	<g>
		<path fill="#0868AC" d="M28.34,23.127c-4.393,6.316-3.847,14.531-0.491,21.238c0.08,0.165,0.164,0.322,0.245,0.479
			c0.054,0.099,0.102,0.204,0.158,0.302c0.032,0.058,0.064,0.116,0.099,0.173c0.056,0.107,0.115,0.209,0.174,0.313
			c0.104,0.184,0.21,0.366,0.321,0.547c0.059,0.099,0.121,0.201,0.183,0.3c0.118,0.195,0.246,0.388,0.373,0.58
			c0.054,0.083,0.103,0.165,0.16,0.245c0.174,0.267,0.352,0.525,0.539,0.778l0.014,0.022c0.027,0.041,0.059,0.077,0.089,0.121
			c0.161,0.22,0.324,0.435,0.491,0.649c0.062,0.08,0.121,0.16,0.186,0.236c0.205,0.258,0.414,0.514,0.625,0.765
			c0.21,0.25,0.425,0.495,0.645,0.737c0.008,0.011,0.017,0.017,0.025,0.027c0.438,0.474,0.892,0.94,1.36,1.384
			c0.07,0.068,0.137,0.14,0.209,0.2c0.234,0.22,0.47,0.435,0.712,0.649c0.042,0.035,0.081,0.066,0.121,0.104
			c0.208,0.179,0.422,0.357,0.64,0.536c0.086,0.068,0.177,0.141,0.264,0.209c0.177,0.143,0.352,0.28,0.532,0.415l0.285,0.215
			c0.198,0.148,0.397,0.291,0.597,0.429c0.077,0.053,0.145,0.104,0.22,0.154c0.019,0.014,0.04,0.033,0.059,0.044
			c0.188,0.132,0.386,0.258,0.58,0.385c0.081,0.055,0.167,0.11,0.25,0.168c0.299,0.189,0.601,0.376,0.908,0.556
			c0.081,0.046,0.169,0.096,0.25,0.143c0.225,0.127,0.451,0.256,0.682,0.382c0.124,0.066,0.253,0.132,0.377,0.195
			c0.164,0.083,0.324,0.168,0.486,0.251c0.037,0.021,0.077,0.038,0.116,0.055c0.064,0.035,0.133,0.063,0.198,0.099
			c0.31,0.148,0.622,0.292,0.938,0.432c0.298,0.127,0.6,0.256,0.9,0.372c0.073,0.032,0.147,0.06,0.22,0.085
			c0.317,0.124,0.637,0.242,0.957,0.352c0.315,0.11,0.631,0.215,0.949,0.313c0.077,0.022,0.152,0.044,0.231,0.063
			c0.324,0.099,0.645,0.215,0.978,0.28C67.438,62.981,73.61,46.342,73.61,46.342c-5.184,6.751-14.383,8.533-23.102,6.553
			c-0.332-0.076-0.65-0.182-0.974-0.275c-0.397-0.12-0.789-0.247-1.18-0.382l-0.124-0.032c-0.276-0.1-0.553-0.204-0.825-0.309
			c-0.077-0.03-0.152-0.058-0.231-0.091c-0.298-0.115-0.598-0.241-0.894-0.371c-0.059-0.024-0.118-0.052-0.177-0.074
			c-0.323-0.148-0.647-0.3-0.968-0.454c-0.196-0.099-0.389-0.197-0.583-0.297c-0.129-0.068-0.262-0.132-0.389-0.206
			c-0.233-0.121-0.467-0.253-0.698-0.391c-0.076-0.041-0.157-0.082-0.234-0.129c-0.304-0.179-0.607-0.369-0.906-0.559
			c-0.081-0.052-0.164-0.104-0.245-0.162c-0.217-0.14-0.434-0.283-0.645-0.429c-0.073-0.05-0.142-0.102-0.212-0.146
			c-0.205-0.148-0.408-0.292-0.61-0.443c-0.094-0.063-0.18-0.137-0.271-0.201c-0.267-0.206-0.535-0.418-0.796-0.632
			c-0.231-0.187-0.462-0.382-0.688-0.578l-0.076-0.066c-0.243-0.209-0.485-0.429-0.722-0.651c-0.067-0.063-0.135-0.129-0.202-0.195
			c-0.178-0.168-0.35-0.336-0.519-0.509c-0.067-0.069-0.135-0.135-0.202-0.201c-0.217-0.22-0.429-0.445-0.637-0.676l-0.031-0.033
			c-0.22-0.237-0.436-0.487-0.645-0.734c-0.056-0.069-0.113-0.135-0.169-0.201c-0.159-0.187-0.312-0.379-0.464-0.572
			c-0.059-0.069-0.116-0.143-0.172-0.214c-0.183-0.236-0.36-0.472-0.535-0.711c-4.839-6.603-6.578-15.71-2.711-23.186"/>
		<path fill="#0868AC" d="M41.977,17.805c-3.176,4.573-3.004,10.693-0.526,15.53c0.414,0.813,0.884,1.596,1.408,2.348
			c0.476,0.679,1.002,1.489,1.636,2.042c0.229,0.253,0.468,0.498,0.712,0.741c0.062,0.061,0.124,0.124,0.188,0.186
			c0.236,0.227,0.476,0.455,0.727,0.672c0.011,0.008,0.02,0.019,0.028,0.027c0.002,0,0.005,0.004,0.008,0.007
			c0.276,0.242,0.561,0.476,0.851,0.704c0.062,0.051,0.126,0.098,0.191,0.151c0.29,0.22,0.586,0.439,0.887,0.647
			c0.011,0.008,0.017,0.014,0.029,0.023c0.135,0.089,0.27,0.177,0.406,0.267c0.064,0.042,0.126,0.088,0.191,0.126
			c0.217,0.142,0.436,0.276,0.658,0.406c0.032,0.021,0.062,0.037,0.094,0.056c0.194,0.11,0.388,0.22,0.585,0.325
			c0.067,0.04,0.138,0.07,0.208,0.107c0.136,0.07,0.271,0.147,0.406,0.21c0.023,0.011,0.042,0.02,0.062,0.03
			c0.282,0.138,0.562,0.27,0.852,0.396c0.062,0.028,0.123,0.052,0.188,0.077c0.23,0.096,0.462,0.19,0.698,0.283
			c0.098,0.041,0.199,0.074,0.298,0.11c0.211,0.08,0.425,0.151,0.64,0.223c0.098,0.033,0.194,0.061,0.29,0.094
			c0.304,0.093,0.607,0.212,0.927,0.264c16.404,2.723,20.192-9.913,20.192-9.913c-3.417,4.919-10.024,7.265-17.078,5.435
			c-0.408-0.104-0.812-0.226-1.208-0.357c-0.318-0.104-0.632-0.214-0.943-0.335c-0.234-0.087-0.468-0.183-0.701-0.282
			c-0.063-0.027-0.127-0.052-0.186-0.078c-0.291-0.126-0.575-0.258-0.857-0.4c-0.143-0.07-0.287-0.146-0.427-0.216l-0.251-0.133
			c-0.183-0.098-0.364-0.2-0.544-0.304c-0.042-0.025-0.087-0.051-0.13-0.073c-0.223-0.132-0.438-0.266-0.655-0.403
			c-0.064-0.042-0.13-0.086-0.197-0.132c-0.144-0.09-0.284-0.186-0.426-0.282c-0.299-0.211-0.594-0.427-0.887-0.647
			c-0.067-0.054-0.132-0.104-0.199-0.158c-3.089-2.438-5.537-5.769-6.699-9.547c-1.22-3.923-0.956-8.318,1.156-11.89"/>
		<path fill="#0868AC" d="M53.447,13.833c-1.873,2.755-2.058,6.18-0.758,9.225c1.37,3.232,4.179,5.767,7.456,6.969
			c0.135,0.05,0.27,0.095,0.408,0.144c0.06,0.014,0.118,0.037,0.178,0.053c0.191,0.059,0.385,0.132,0.586,0.172
			c9.055,1.749,11.514-4.648,12.167-5.589c-2.152,3.097-5.77,3.841-10.208,2.765c-0.36-0.093-0.718-0.206-1.072-0.333
			c-0.435-0.155-0.859-0.333-1.276-0.529c-0.788-0.377-1.537-0.836-2.235-1.363c-3.971-3.014-6.438-8.761-3.848-13.443"/>
	</g>
	<g>
		<path fill="#131B28" d="M32.656,75.639L32.656,75.639l-0.627,2.223L32.656,75.639z M35.883,80.467l-0.691-0.004L35.883,80.467z
			 M35.706,83.788L35.706,83.788l-4.142,0.015L35.706,83.788z M36.574,80.471l-0.692-0.004L36.574,80.471z M36.069,83.505
			l0.721-2.751L36.069,83.505L36.069,83.505z M51.318,70.833l-1.342,6.319L51.318,70.833z M47.863,70.833l-1.02,4.722L47.863,70.833
			L47.863,70.833z"/>
		<path fill="#131B28" d="M51.09,70.548h-2.874c-0.159,0-0.317,0.129-0.353,0.285l-1.021,4.722l-1.021,4.721
			c-0.033,0.156-0.191,0.283-0.352,0.283h-2.033c-2.015,0-1.78-1.393-1.369-3.3l0.013-0.058l0.046-0.241l0.01-0.045l0.09-0.489
			l0.1-0.523c0.029-0.159,0.074-0.391,0.105-0.535l0.463-2.266l0.465-2.268c0.031-0.156-0.072-0.285-0.232-0.285h-2.95
			c-0.16,0-0.317,0.128-0.35,0.284l-0.634,3.01l-0.635,3.011c-0.001,0-0.001,0.002-0.001,0.004l-0.059,0.278
			c-0.73,3.337-0.536,6.519,3.436,6.617c0.063,0.001,0.114,0.002,0.114,0.002h6.233c0.158,0,0.316-0.128,0.351-0.284l1.345-6.318
			l1.344-6.318C51.354,70.677,51.249,70.548,51.09,70.548z M62.557,80.591c0.159,0,0.264,0.128,0.231,0.284l-0.279,1.364
			 M62.23,83.604l0.278-1.363L62.23,83.604L62.23,83.604z M61.881,83.891L61.881,83.891c-0.845,0.006-3.387,0.025-5.298,0.025
			C58.908,83.916,61.881,83.891,61.881,83.891z M54.868,78.834c-0.001-0.15,0.168-0.407,0.327-0.407l-0.357-0.006
			C54.676,80.048,54.868,78.834,54.868,78.834z"/>
		<path fill="#131B28" d="M56.846,83.916c-0.019,0-0.037,0-0.056,0C56.809,83.916,56.827,83.916,56.846,83.916z M62.557,80.591
			c0.159,0,0.264,0.128,0.231,0.284l-0.279,1.364l-0.045,0.222 M58.207,83.913h-0.014H58.207z M57.5,83.915h-0.04H57.5z
			 M57.285,83.916c-0.023,0-0.045,0-0.067,0C57.24,83.916,57.262,83.916,57.285,83.916z M57.066,83.916h-0.061H57.066z
			 M57.459,83.915h-0.174H57.459z M58.195,83.913c-0.233,0.001-0.467,0.002-0.694,0.002C57.729,83.915,57.963,83.914,58.195,83.913z
			 M62.23,83.604l0.233-1.144L62.23,83.604L62.23,83.604z M57.218,83.916h-0.151H57.218z M56.789,83.916h-0.205H56.789z
			 M57.006,83.916h-0.16H57.006z M14.96,78.868l0.447-1.979l-0.511,2.262l-0.49,2.307l0.429-2.021
			C14.869,79.277,14.925,79.023,14.96,78.868L14.96,78.868z M20.305,70.514h-3.157c-0.159,0-0.318,0.129-0.354,0.284l-0.299,1.321
			l-0.299,1.32c-0.035,0.155,0.066,0.283,0.226,0.283h3.181c0.16,0,0.318-0.127,0.353-0.283l0.289-1.32l0.29-1.32l0,0
			C20.567,70.643,20.464,70.514,20.305,70.514L20.305,70.514z M19.617,74.91L19.617,74.91l-0.925,4.283L19.617,74.91L19.617,74.91z
			 M10.447,89.102c0,0,1.592,0.021,2.603,0.021C12.282,89.122,11.013,89.107,10.447,89.102L10.447,89.102z M15.854,74.909
			l-0.447,1.979L15.854,74.909z"/>
		<path fill="#131B28" d="M19.389,74.626h-3.181c-0.16,0-0.319,0.128-0.354,0.284l-0.447,1.979l-0.447,1.979
			c-0.035,0.155-0.092,0.411-0.125,0.567l-0.429,2.021l-0.429,2.021c-0.042,0.188-0.093,0.375-0.153,0.559
			c0,0-0.595,1.77-1.594,1.748c-0.042,0-0.084,0-0.125-0.001c-0.485-0.011-0.865-0.019-0.865-0.019l0,0
			c-0.16,0-0.32,0.123-0.357,0.277l-0.33,1.389l-0.33,1.387c-0.037,0.154,0.063,0.281,0.222,0.285
			c0.566,0.006,1.835,0.021,2.604,0.021c2.496,0,3.812-1.384,4.655-5.363l0.987-4.565l0.926-4.284
			C19.651,74.754,19.548,74.626,19.389,74.626L19.389,74.626z M64.583,83.754c-0.159,0-0.263-0.127-0.229-0.284l2.395-11.209
			 M67.909,83.47l0.969-4.784L67.909,83.47z"/>
		<path fill="#131B28" d="M64.389,83.611c-0.02-0.077-0.008-0.27,0.025-0.426l1.136-5.32l-1.196,5.604
			c-0.033,0.157,0.07,0.284,0.229,0.284h0.291C64.714,83.754,64.408,83.689,64.389,83.611L64.389,83.611z M67.721,83.689
			c-0.087,0.035-0.289,0.063-0.449,0.063h0.291c0.16,0,0.316-0.127,0.35-0.284l0.059-0.283
			C67.938,83.342,67.807,83.655,67.721,83.689L67.721,83.689z M68.395,81.077l0.428-2.111c0,0.001,0,0.003,0,0.004L68.395,81.077z
			 M77.837,73.011l0.134,0.546c0.035,0.155-0.066,0.282-0.226,0.282 M67.968,83.186l0.427-2.107L67.968,83.186z M77.706,72.453
			l0.131,0.558L77.706,72.453z M68.82,78.966c0.031-0.155,0.086-0.409,0.117-0.563l0.457-2.139l-0.517,2.422L68.82,78.966
			L68.82,78.966z M66.786,72.077c-0.032,0.151-0.072,0.341-0.099,0.467l-1.138,5.322l1.197-5.605L66.786,72.077z"/>
		<path fill="#131B28" d="M77.969,73.557l-0.132-0.546l-0.131-0.558l-0.065-0.283c-0.259-1.004-1.019-1.583-2.664-1.583
			l-2.564-0.002l-2.362-0.003h-2.657c-0.16,0-0.316,0.128-0.351,0.284l0,0l-0.117,0.555l-0.139,0.657l-0.039,0.184l-1.196,5.605
			l-1.136,5.32c-0.034,0.155-0.045,0.348-0.024,0.426c0.02,0.078,0.324,0.143,0.484,0.143h2.396c0.16,0,0.362-0.029,0.449-0.063
			c0.086-0.035,0.215-0.35,0.247-0.506l0.425-2.107l0.428-2.107v-0.004l0.059-0.281l0.518-2.42l0.455-2.14
			c0.033-0.155,0.19-0.283,0.351-0.283l7.544-0.003C77.904,73.838,78.005,73.711,77.969,73.557z"/>
		<path fill="#131B28" d="M87.68,68.63c-0.16,0.001-0.421,0.002-0.58,0.002h-2.416c-0.158,0-0.363,0.108-0.453,0.24l-5.34,7.821
			c-0.09,0.133-0.191,0.111-0.229-0.043l-0.393-1.724c-0.035-0.155-0.194-0.282-0.354-0.282h-3.433
			c-0.159,0-0.254,0.125-0.211,0.278l1.537,5.388c0.045,0.153,0.047,0.405,0.008,0.562l-0.67,2.606
			c-0.039,0.154,0.059,0.281,0.219,0.281h3.392c0.16,0,0.323-0.127,0.363-0.281l0.67-2.606c0.039-0.155,0.151-0.386,0.247-0.515
			l8.667-11.504c0.097-0.127,0.044-0.23-0.115-0.229L87.68,68.63z M60.411,75.378v-0.003c-0.021,0.173-0.181,0.3-0.339,0.3h-4.352
			c-0.15,0-0.228-0.103-0.205-0.229c0.002-0.002,0.002-0.006,0.004-0.01c0,0-0.002,0-0.002,0.002c0-0.006,0-0.011,0.002-0.015
			l0.02-0.075c0.417-1.104,1.263-1.83,2.854-1.83C60.184,73.52,60.533,74.395,60.411,75.378L60.411,75.378z M59.135,70.355
			c-5.586,0-6.908,3.39-7.652,6.813c-0.74,3.487-0.678,6.748,5.103,6.748h0.205c0.019,0,0.037,0,0.056,0h0.373
			c0.022,0,0.045,0,0.067,0l0.174-0.001h0.041c0.229,0,0.461-0.001,0.692-0.002h0.013c1.526-0.007,3.058-0.019,3.678-0.022
			c0.158-0.002,0.313-0.13,0.347-0.285l0.233-1.145l0.045-0.222l0.279-1.364c0.032-0.156-0.072-0.284-0.231-0.284h-5.197
			c-2.065,0-2.68-0.55-2.452-2.164h8.307l-0.001,0.001c0.002,0,0.003-0.001,0.005-0.001c0.132-0.003,0.255-0.093,0.304-0.215
			c0.01-0.022,0.018-0.048,0.02-0.071l0,0C64.771,73.488,64.418,70.355,59.135,70.355L59.135,70.355z M32.735,75.359l-0.079,0.279
			l0,0l-0.627,2.223l-0.627,2.224c-0.043,0.153-0.209,0.279-0.37,0.279h-3.319c-2.518,0-3.131-1.972-2.518-4.875
			c0.612-2.972,1.814-4.818,4.293-5.005C32.875,70.229,33.552,72.611,32.735,75.359L32.735,75.359z M35.012,80.191
			c0,0,1.565-3.799,1.92-5.994c0.485-2.938-0.986-7.2-6.669-7.2c-5.65,0-8.104,4.069-9.04,8.492
			c-0.937,4.454,0.291,8.36,5.908,8.329l4.433-0.017l4.143-0.015c0.16-0.002,0.323-0.129,0.363-0.283l0.721-2.751
			c0.04-0.155-0.058-0.282-0.217-0.283l-0.691-0.004l-0.692-0.004c-0.136-0.002-0.213-0.089-0.197-0.205
			C34.998,80.234,35.003,80.213,35.012,80.191L35.012,80.191L35.012,80.191z"/>
		<path fill="#131B28" d="M62.982,77.648c0,0.104-0.086,0.19-0.19,0.19s-0.19-0.086-0.19-0.19s0.086-0.189,0.19-0.189
			S62.982,77.544,62.982,77.648z"/>
		<polygon fill="#0868AC" points="37.01,88.473 36.083,90.584 35.059,90.584 35.143,88.665 34.39,90.584 33.398,90.584 
			33.373,88.473 33.482,87.951 34.184,87.951 34.049,90.036 34.828,87.951 35.806,87.951 35.735,90.063 36.508,87.951 
			37.119,87.951 		"/>
		<path fill="#0868AC" d="M38.625,89.098c0.089-0.412,0.064-0.49-0.148-0.49h-0.323l-0.206,0.968l-0.315,1.01h-0.599l0.489-2.292
			l0.071-0.335h0.548l0.071,0.153c0,0,0.315-0.186,0.624-0.186c0.657,0,0.606,0.495,0.463,1.172H38.625z"/>
		<path fill="#0868AC" d="M40.57,87.622c-0.264,0-0.431-0.077-0.366-0.397c0.069-0.322,0.276-0.399,0.532-0.399
			c0.26,0,0.433,0.077,0.361,0.399C41.034,87.539,40.827,87.622,40.57,87.622L40.57,87.622z"/>
		<polygon fill="#0868AC" points="40.287,90.584 39.694,90.584 39.81,89.555 40.017,88.602 39.605,88.511 39.721,87.951 
			40.848,87.951 40.287,90.584 		"/>
		<path fill="#0868AC" d="M42.855,88.51l-0.74,0.092l-0.213,1.004c-0.059,0.275-0.059,0.354,0.188,0.354h0.495l-0.103,0.527
			c0,0-0.45,0.136-0.646,0.136c-0.76,0-0.753-0.418-0.618-1.043l0.207-0.985l-0.412-0.09l0.123-0.561h0.432l0.244-0.663h0.586
			l-0.143,0.663h0.723L42.855,88.51L42.855,88.51z"/>
		<path fill="#0868AC" d="M44.395,88.543c-0.348,0-0.527,0.182-0.599,0.503l0.991-0.084C44.832,88.743,44.787,88.543,44.395,88.543z
			"/>
		<path fill="#0868AC" d="M43.699,89.521c-0.047,0.321,0.076,0.432,0.488,0.432h1.037l-0.104,0.488c0,0-0.625,0.175-1.089,0.175
			c-1.151,0-1.165-0.65-1.017-1.347c0.146-0.683,0.411-1.357,1.523-1.357c1.076,0,1.129,0.65,0.863,1.609H43.699L43.699,89.521z"/>
		<polygon fill="#0868AC" points="47.768,90.584 47.175,90.584 47.291,89.553 47.709,87.598 47.297,87.5 47.42,86.939 
			48.547,86.939 47.768,90.584 		"/>
		<path fill="#0868AC" d="M49.906,88.543c-0.348,0-0.527,0.182-0.6,0.503l0.992-0.084C50.344,88.743,50.3,88.543,49.906,88.543z"/>
		<path fill="#0868AC" d="M49.211,89.521c-0.045,0.321,0.077,0.432,0.488,0.432h1.037l-0.104,0.488c0,0-0.625,0.175-1.088,0.175
			c-1.152,0-1.166-0.65-1.018-1.347c0.147-0.683,0.412-1.357,1.524-1.357c1.076,0,1.128,0.65,0.863,1.609H49.211L49.211,89.521z"/>
		<path fill="#0868AC" d="M53.633,88.575c0,0-0.753,0.006-0.958,0.006c-0.438,0-0.483,0.136-0.516,0.276l-0.026,0.129l1.393,0.104
			c0,0,0.006,0.444-0.053,0.695c-0.084,0.419-0.516,0.844-1.295,0.844c-0.386,0-1.011-0.146-1.011-0.146l0.11-0.51h0.959
			c0.425,0,0.482-0.115,0.509-0.231l0.032-0.168l-1.365-0.103c0,0-0.051-0.342,0.02-0.684c0.104-0.463,0.527-0.862,1.307-0.862
			c0.388,0,1.012,0.142,1.012,0.142L53.633,88.575z"/>
		<path fill="#0868AC" d="M56.223,88.575c0,0-0.754,0.006-0.959,0.006c-0.438,0-0.482,0.136-0.516,0.276l-0.025,0.129l1.391,0.104
			c0,0,0.007,0.444-0.051,0.695c-0.084,0.419-0.516,0.844-1.295,0.844c-0.387,0-1.011-0.146-1.011-0.146l0.109-0.51h0.959
			c0.425,0,0.481-0.115,0.509-0.231l0.031-0.168l-1.364-0.103c0,0-0.052-0.342,0.021-0.684c0.103-0.463,0.526-0.862,1.307-0.862
			c0.386,0,1.011,0.142,1.011,0.142L56.223,88.575z"/>
		<path fill="#0868AC" d="M57.032,91.003h-0.515l0.02-0.387c-0.188-0.013-0.283-0.147-0.238-0.374
			c0.071-0.321,0.271-0.398,0.534-0.398c0.257,0,0.431,0.077,0.36,0.398L57.032,91.003z"/>
		<path fill="#0868AC" d="M60.477,88.602c-0.386,0-0.521,0.231-0.61,0.656c-0.091,0.426-0.064,0.678,0.321,0.678h0.535l0.295-1.334
			H60.477z"/>
		<path fill="#0868AC" d="M61.357,90.242l-0.069,0.342l-0.541-0.007l-0.078-0.167c0,0-0.476,0.205-0.797,0.205
			c-0.824,0-0.863-0.676-0.716-1.357c0.148-0.695,0.471-1.352,1.287-1.352c0.298,0,0.695,0.146,0.695,0.146l0.329-1.113h0.593
			L61.357,90.242L61.357,90.242z"/>
		<path fill="#0868AC" d="M63.49,88.575c-0.502,0-0.663,0.282-0.754,0.694c-0.084,0.418-0.045,0.703,0.451,0.703
			c0.515,0,0.668-0.277,0.76-0.703C64.037,88.871,64.012,88.575,63.49,88.575L63.49,88.575z"/>
		<path fill="#0868AC" d="M63.053,90.623c-1.063,0-1.146-0.663-1.005-1.354c0.147-0.688,0.522-1.346,1.584-1.346
			c1.056,0,1.152,0.656,1.005,1.346C64.488,89.973,64.113,90.623,63.053,90.623L63.053,90.623z"/>
		<path fill="#0868AC" d="M69.08,90.584l0.115-1.018l0.058-0.291c0.085-0.385,0.136-0.67-0.271-0.67h-0.314
			c0.014,0.201-0.027,0.427-0.077,0.664l-0.276,1.313h-0.601l0.116-1.019l0.059-0.289c0.084-0.387,0.135-0.67-0.271-0.67h-0.259
			l-0.424,1.978h-0.688l0.56-2.633h0.541l0.084,0.159c0,0,0.366-0.192,0.662-0.192c0.227,0,0.393,0.104,0.451,0.231
			c0.129-0.07,0.496-0.231,0.762-0.231c0.822,0,0.797,0.669,0.648,1.353l-0.277,1.313L69.08,90.584L69.08,90.584L69.08,90.584z"/>
		<path fill="#0868AC" d="M71.816,88.575c-0.504,0-0.664,0.282-0.754,0.694c-0.084,0.418-0.045,0.703,0.449,0.703
			c0.516,0,0.67-0.277,0.762-0.703C72.361,88.871,72.337,88.575,71.816,88.575z"/>
		<path fill="#0868AC" d="M71.378,90.623c-1.063,0-1.146-0.663-1.005-1.354c0.148-0.688,0.521-1.346,1.585-1.346
			c1.056,0,1.151,0.656,1.004,1.346C72.813,89.973,72.439,90.623,71.378,90.623z"/>
		<path fill="#0868AC" d="M74.751,89.098c0.09-0.412,0.063-0.49-0.147-0.49h-0.324l-0.205,0.968l-0.315,1.01H73.16l0.488-2.292
			l0.072-0.335h0.547l0.069,0.153c0,0,0.315-0.186,0.625-0.186c0.656,0,0.604,0.495,0.463,1.172H74.751z"/>
		<path fill="#0868AC" d="M77.057,88.543c-0.348,0-0.527,0.182-0.598,0.503l0.99-0.084C77.494,88.743,77.449,88.543,77.057,88.543z"
			/>
		<path fill="#0868AC" d="M76.361,89.521c-0.045,0.321,0.078,0.432,0.49,0.432h1.035l-0.104,0.488c0,0-0.625,0.175-1.088,0.175
			c-1.152,0-1.166-0.65-1.018-1.347c0.147-0.683,0.411-1.357,1.525-1.357c1.074,0,1.127,0.65,0.861,1.609H76.361L76.361,89.521z"/>
		<path fill="#0868AC" d="M78.646,90.623c-0.271,0-0.438-0.077-0.367-0.393c0.064-0.323,0.265-0.399,0.535-0.399
			c0.25,0,0.424,0.076,0.36,0.399C79.104,90.539,78.896,90.623,78.646,90.623z"/>
	</g>
</g>
</svg>
