<?xml version="1.0" encoding="utf-8"?>
<!-- Generator: Adobe Illustrator 16.0.0, SVG Export Plug-In . SVG Version: 6.00 Build 0)  -->
<!DOCTYPE svg PUBLIC "-//W3C//DTD SVG 1.1//EN" "http://www.w3.org/Graphics/SVG/1.1/DTD/svg11.dtd">
<svg version="1.1" id="Layer_1" xmlns="http://www.w3.org/2000/svg" xmlns:xlink="http://www.w3.org/1999/xlink" x="0px" y="0px"
	 width="100px" height="100px" viewBox="0 0 100 100" enable-background="new 0 0 100 100" xml:space="preserve">
<g>
	<path fill-rule="evenodd" clip-rule="evenodd" fill="#03628B" d="M25.799,75.799c-0.008-0.584,0.003-1.17-0.034-1.753
		c-0.022-0.362,0.121-0.421,0.445-0.418c2.455,0.012,4.91,0.015,7.365,0.002c0.975-0.006,1.95,0.079,2.921-0.063
		c0.128-0.018,0.255-0.049,0.378-0.085c0.886-0.256,1.129-0.582,1.125-1.499c-0.005-0.861-0.005-0.86-0.861-0.861
		c-2.179-0.002-4.358,0.02-6.537-0.015c-1.282-0.019-2.509-0.315-3.604-1.034c-0.879-0.576-1.332-1.349-1.311-2.442
		c0.045-2.193,0.027-4.39,0.012-6.583c-0.002-0.336,0.097-0.405,0.405-0.397c0.781,0.02,1.563,0.03,2.341-0.003
		c0.417-0.019,0.552,0.079,0.546,0.525c-0.027,2.13-0.012,4.26-0.012,6.391c0,0.969,0.317,1.352,1.269,1.517
		c0.24,0.042,0.485,0.071,0.726,0.072c2.212,0.005,4.423-0.006,6.634,0.012c0.364,0.003,0.417-0.13,0.416-0.448
		c-0.012-2.537,0.004-5.072-0.016-7.609c-0.003-0.411,0.112-0.523,0.515-0.508c0.812,0.031,1.625,0.019,2.439,0.004
		c0.273-0.006,0.357,0.076,0.357,0.355c-0.009,3.819,0.01,7.643-0.019,11.463c-0.011,1.464-0.967,2.26-2.201,2.813
		c-0.605,0.271-1.266,0.348-1.885,0.565C33.41,75.799,29.604,75.799,25.799,75.799z"/>
	<path fill-rule="evenodd" clip-rule="evenodd" fill="#03628B" d="M3.515,58.516c0,0.177,0,0.355,0,0.532
		c0,3.902-0.006,7.804,0.008,11.707c0.002,0.382-0.098,0.499-0.485,0.484C2.225,71.21,1.412,71.223,0.6,71.234
		c-0.25,0.004-0.377-0.024-0.376-0.332c0.013-4.292,0.003-8.584,0.019-12.876c0.005-1.053,0.492-1.629,1.507-1.956
		c0.544-0.176,1.1-0.284,1.667-0.337c1.526-0.141,2.704,0.58,3.348,2.066c1.18,2.725,2.35,5.452,3.524,8.177
		c0.398,0.923,0.797,1.847,1.199,2.775c0.166-0.124,0.198-0.307,0.269-0.463c1.532-3.438,3.062-6.876,4.592-10.314
		c0.824-1.854,2.157-2.544,4.163-2.15c2.023,0.397,2.459,0.926,2.459,2.989c0,3.983-0.007,7.967,0.009,11.95
		c0.002,0.389-0.106,0.489-0.483,0.475c-0.78-0.028-1.56-0.028-2.34,0.001c-0.385,0.015-0.488-0.098-0.487-0.483
		c0.015-3.918,0.01-7.838,0.01-11.756c0-0.168,0-0.338,0-0.508c-0.033-0.005-0.066-0.01-0.1-0.016
		c-0.561,1.25-1.122,2.499-1.683,3.749c-1.068,2.383-2.213,4.734-3.18,7.158c-0.892,2.236-2.917,2.313-4.659,1.787
		c-0.651-0.196-1.062-0.728-1.339-1.343c-1.298-2.884-2.595-5.77-3.892-8.654c-0.403-0.896-0.804-1.792-1.206-2.688
		C3.584,58.496,3.55,58.506,3.515,58.516z"/>
	<path fill-rule="evenodd" clip-rule="evenodd" fill="#E38F02" d="M74.853,70.556c1.088,0.986,2.114,1.92,3.236,2.938
		c-1.311,0-2.492,0-3.673,0c-0.187,0-0.285-0.144-0.403-0.25c-0.688-0.62-1.38-1.236-2.058-1.866
		c-0.209-0.195-0.417-0.249-0.701-0.226c-2.237,0.174-4.479,0.263-6.717,0.056c-0.96-0.091-1.874-0.401-2.682-0.957
		c-0.831-0.57-1.312-1.366-1.32-2.373c-0.025-2.813-0.03-5.624-0.001-8.436c0.013-1.264,0.724-2.123,1.825-2.665
		c0.885-0.435,1.834-0.678,2.816-0.688c2.324-0.024,4.65-0.024,6.974,0.001c0.983,0.011,1.932,0.257,2.816,0.69
		c1.165,0.571,1.834,1.508,1.845,2.815c0.025,2.715,0.021,5.43,0.002,8.145C76.804,69.069,76.209,70.044,74.853,70.556z
		 M66.702,66.618c1.285,0,2.422,0.006,3.56-0.005c0.223-0.002,0.359,0.104,0.507,0.237c0.538,0.496,1.078,0.989,1.622,1.479
		c0.555,0.5,0.864,0.431,1.203-0.265c0.095-0.193,0.144-0.396,0.145-0.612c0-2.52,0.003-5.039-0.001-7.561
		c-0.001-0.593-0.298-1.011-0.812-1.29c-0.516-0.281-1.08-0.343-1.65-0.346c-1.577-0.008-3.155-0.004-4.732-0.001
		c-0.473,0-0.941,0.059-1.388,0.223c-0.76,0.282-1.104,0.779-1.105,1.592c-0.002,2.357-0.003,4.714,0.001,7.072
		c0.001,0.923,0.425,1.562,1.285,1.785c1.3,0.338,2.626,0.092,3.961,0.065C68.465,68.229,67.633,67.469,66.702,66.618z"/>
	<path fill-rule="evenodd" clip-rule="evenodd" fill="#03628B" d="M78.648,53.518c-0.143,0.011-0.245-0.082-0.328-0.165
		c-1.329-1.311-2.895-2.368-4.048-3.866c-0.542-0.705-0.874-1.515-1.286-2.286c-0.078-0.147-0.098-0.344-0.302-0.44
		c-0.213,0.811-0.276,1.632-0.424,2.438c-0.116,0.628-0.382,1.133-1.045,1.339c-0.658,0.205-1.192-0.04-1.641-0.478
		c-1.133-1.101-1.637-2.513-1.913-4.023c-0.336-1.838-0.237-3.658,0.3-5.448c0.185-0.62,0.205-1.287,0.532-1.866
		c0.109-0.193,0-0.363-0.122-0.484c-1.029-1.029-1.556-2.342-2.061-3.662c-0.328-0.863-0.654-1.73-0.876-2.63
		C65.3,31.397,65,30.934,64.673,30.489c-0.501-0.681-1.017-1.35-1.522-2.026c-0.354-0.471-0.652-0.97-0.803-1.547
		c-0.404-1.549,0.729-2.884,2.319-2.697c1.623,0.191,3.048,0.893,4.316,1.886c0.487,0.382,0.961,0.599,1.581,0.613
		c1.788,0.041,3.436,0.555,4.976,1.485c3.702,2.233,6.724,5.139,8.953,8.857c0.724,1.206,1.101,2.562,1.705,3.818
		c0.78,1.622,1.562,3.245,2.329,4.874c0.255,0.542,0.62,0.885,1.208,1.099c2.701,0.982,4.959,2.678,7.078,4.57
		c0.405,0.363,0.71,0.843,1.056,1.272c0.179,0.219,0.096,0.324-0.156,0.409c-0.854,0.284-1.73,0.441-2.622,0.522
		c-0.799,0.073-1.54,0.388-2.325,0.518c-0.31,0.052-0.124,0.234-0.053,0.346c0.3,0.463,0.752,0.76,1.206,1.043
		c0.87,0.541,1.743,1.067,2.527,1.737c0.872,0.743,1.532,1.68,2.34,2.481c0.194,0.191,0.268,0.504,0.456,0.879
		c-0.186-0.11-0.28-0.148-0.352-0.213c-1.265-1.173-2.731-2.018-4.291-2.737c-1.337-0.617-2.537-1.45-3.448-2.641
		c-0.247-0.325-0.41-0.695-0.606-1.049c-0.237-0.428-0.04-0.59,0.305-0.726c1.56-0.612,3.172-0.932,4.854-0.886
		c0.179,0.005,0.451,0.116,0.521-0.086c0.062-0.176-0.171-0.335-0.326-0.442c-2.083-1.426-4.04-3.084-6.594-3.655
		c-1.026-0.23-1.741-0.795-2.189-1.746c-1.063-2.243-2.176-4.463-3.104-6.766c-0.938-2.327-2.354-4.333-4.045-6.153
		c-1.944-2.095-4.205-3.767-6.844-4.902c-0.772-0.332-1.571-0.507-2.407-0.539c-0.503-0.02-1.004-0.068-1.506-0.112
		c-0.329-0.028-0.552-0.259-0.787-0.455c-1.092-0.909-2.357-1.479-3.695-1.909c-0.384-0.125-0.795-0.17-1.096,0.153
		c-0.322,0.343-0.21,0.758-0.047,1.146c0.186,0.438,0.44,0.838,0.75,1.193c1.365,1.572,2.318,3.354,2.838,5.376
		c0.239,0.927,0.585,1.821,1.065,2.658c0.262,0.453,0.548,0.884,0.938,1.239c0.491,0.448,0.635,0.979,0.445,1.63
		c-0.256,0.889-0.679,1.724-0.834,2.643c-0.37,2.177-0.253,4.305,0.663,6.348c0.173,0.387,0.369,0.763,0.727,1.02
		c0.131,0.095,0.275,0.209,0.442,0.154c0.201-0.065,0.141-0.27,0.158-0.42c0.102-0.854,0.197-1.708,0.369-2.555
		c0.194-0.954,0.783-1.66,1.354-2.389c0.161-0.207,0.252-0.083,0.309,0.062c0.107,0.271,0.171,0.559,0.281,0.828
		c0.957,2.375,2.211,4.588,3.687,6.677c0.508,0.719,1.082,1.383,1.761,1.949C78.592,53.374,78.68,53.407,78.648,53.518z"/>
	<path fill-rule="evenodd" clip-rule="evenodd" fill="#E38F02" d="M49.088,71.229c-1.577,0-3.155-0.02-4.731,0.014
		c-0.455,0.009-0.555-0.136-0.519-0.545c0.034-0.388,0.031-0.783,0-1.171c-0.029-0.372,0.078-0.492,0.473-0.488
		c2.781,0.018,5.561,0.009,8.341,0.01c0.457,0,0.909-0.043,1.348-0.171c0.76-0.224,1.09-0.671,1.091-1.457
		c0.001-0.455-0.019-0.912,0.006-1.366c0.031-0.616-0.3-0.973-0.815-1.193c-0.531-0.226-1.103-0.271-1.673-0.276
		c-1.267-0.014-2.536,0.016-3.804-0.018c-1.164-0.029-2.286-0.286-3.321-0.843c-1.073-0.578-1.717-1.412-1.625-2.701
		c0.033-0.453,0.003-0.91,0.007-1.366c0.012-1.537,0.664-2.479,2.083-3.09c1.105-0.476,2.27-0.536,3.439-0.542
		c2.911-0.014,5.821,0,8.731-0.013c0.35-0.002,0.454,0.111,0.435,0.446c-0.025,0.421-0.033,0.848,0.002,1.268
		c0.035,0.402-0.092,0.518-0.502,0.516c-2.861-0.019-5.724-0.008-8.584-0.012c-0.492-0.001-0.977,0.035-1.45,0.158
		c-0.567,0.149-0.832,0.464-0.853,1.036c-0.019,0.553-0.023,1.106,0,1.658c0.037,0.851,0.552,1.366,1.478,1.444
		c1.314,0.111,2.632,0.036,3.948,0.045c1.043,0.008,2.083,0.033,3.086,0.354c0.78,0.25,1.514,0.588,2.104,1.181
		c0.407,0.408,0.638,0.888,0.626,1.479c-0.013,0.732-0.021,1.465,0.001,2.195c0.031,1.027-0.438,1.779-1.255,2.334
		c-1.003,0.682-2.126,1.062-3.336,1.09c-1.575,0.037-3.152,0.008-4.729,0.008C49.088,71.22,49.088,71.225,49.088,71.229z"/>
	<path fill-rule="evenodd" clip-rule="evenodd" fill="#E38F02" d="M78.878,62.043c0-1.838,0.01-3.675-0.009-5.513
		c-0.005-0.389,0.073-0.541,0.497-0.521c0.763,0.036,1.529,0.033,2.292,0.001c0.41-0.018,0.516,0.114,0.514,0.517
		c-0.016,3.415-0.008,6.829-0.008,10.244c0,0.162-0.002,0.325,0,0.487c0.011,1.075,0.446,1.572,1.523,1.704
		c0.451,0.054,0.907,0.081,1.362,0.082c2.634,0.007,5.267,0.013,7.901-0.006c0.396-0.004,0.499,0.116,0.473,0.489
		c-0.03,0.454-0.019,0.912-0.002,1.365c0.008,0.246-0.056,0.342-0.323,0.341c-3.039-0.016-6.08,0.008-9.119-0.042
		c-1.172-0.02-2.326-0.257-3.376-0.838c-1.117-0.619-1.716-1.563-1.722-2.85c-0.009-1.821-0.002-3.642-0.002-5.462
		C78.879,62.043,78.879,62.043,78.878,62.043z"/>
	<path fill-rule="evenodd" clip-rule="evenodd" fill="#E38F02" d="M99.776,68.985c-0.004,1.388-1.057,2.434-2.436,2.423
		c-1.351-0.012-2.38-1.064-2.38-2.433c0-1.372,1.08-2.447,2.438-2.43C98.743,66.565,99.78,67.629,99.776,68.985z M99.252,68.969
		c-0.008-1.059-0.835-1.904-1.871-1.912c-1.056-0.009-1.902,0.858-1.892,1.937c0.01,1.063,0.832,1.906,1.867,1.915
		C98.405,70.914,99.259,70.04,99.252,68.969z"/>
	<path fill-rule="evenodd" clip-rule="evenodd" fill="#03628B" d="M69.605,30.581c1.136-0.206,1.547-0.015,1.941,0.81
		c0.18,0.376,0.019,1.073-0.3,1.332c-0.109,0.087-0.198,0.129-0.258-0.03C70.698,31.913,70.208,31.255,69.605,30.581z"/>
	<path fill-rule="evenodd" clip-rule="evenodd" fill="#E38F02" d="M97.808,69.189c0.238,0.376,0.462,0.728,0.697,1.1
		c-0.343,0.147-0.538,0.035-0.685-0.251c-0.125-0.243-0.288-0.47-0.419-0.713c-0.099-0.182-0.26-0.185-0.419-0.15
		c-0.185,0.036-0.114,0.205-0.12,0.322c-0.011,0.209-0.009,0.42-0.004,0.633c0.005,0.17-0.078,0.225-0.239,0.221
		c-0.141-0.004-0.204-0.066-0.204-0.206c0-0.779,0.002-1.559-0.002-2.339c-0.001-0.183,0.104-0.21,0.251-0.208
		c0.292,0.004,0.585-0.001,0.877,0.004c0.429,0.007,0.828,0.082,0.946,0.579C98.604,68.661,98.433,68.915,97.808,69.189z
		 M97.372,67.986c-0.271,0.008-0.563-0.084-0.521,0.359c0.025,0.259-0.002,0.487,0.371,0.433c0.311-0.045,0.758,0.112,0.771-0.407
		C98.004,67.953,97.626,68.012,97.372,67.986z"/>
</g>
</svg>
