<?xml version="1.0" encoding="utf-8"?>
<!-- Generator: Adobe Illustrator 16.0.0, SVG Export Plug-In . SVG Version: 6.00 Build 0)  -->
<!DOCTYPE svg PUBLIC "-//W3C//DTD SVG 1.1//EN" "http://www.w3.org/Graphics/SVG/1.1/DTD/svg11.dtd">
<svg version="1.1" id="Layer_1" xmlns="http://www.w3.org/2000/svg" xmlns:xlink="http://www.w3.org/1999/xlink" x="0px" y="0px"
	 width="100px" height="100px" viewBox="0 0 100 100" enable-background="new 0 0 100 100" xml:space="preserve">
<g>
	<path fill="#689F63" d="M49.442,79.819c-0.322,0-0.641-0.084-0.923-0.247l-2.936-1.738c-0.439-0.245-0.225-0.331-0.08-0.381
		c0.584-0.205,0.703-0.252,1.327-0.605c0.066-0.037,0.151-0.024,0.219,0.015l2.255,1.339c0.082,0.044,0.197,0.044,0.272,0
		l8.794-5.076c0.081-0.046,0.135-0.141,0.135-0.237V62.739c0-0.101-0.054-0.191-0.137-0.242l-8.79-5.071
		c-0.081-0.049-0.19-0.049-0.271,0l-8.79,5.071c-0.085,0.049-0.139,0.143-0.139,0.24v10.148c0,0.096,0.053,0.189,0.136,0.235
		l2.408,1.391c1.308,0.654,2.107-0.116,2.107-0.891V63.604c0-0.144,0.112-0.253,0.255-0.253H46.4c0.139,0,0.253,0.109,0.253,0.253
		v10.021c0,1.743-0.951,2.745-2.604,2.745c-0.508,0-0.91,0-2.028-0.551l-2.307-1.33c-0.57-0.329-0.922-0.945-0.922-1.604V62.737
		c0-0.66,0.352-1.277,0.922-1.604l8.803-5.078c0.557-0.314,1.297-0.314,1.849,0l8.792,5.081c0.567,0.328,0.922,0.942,0.922,1.603
		v10.148c0,0.658-0.354,1.272-0.922,1.602l-8.792,5.078c-0.282,0.163-0.6,0.247-0.926,0.247"/>
	<path fill="#689F63" d="M52.157,72.827c-3.848,0-4.654-1.767-4.654-3.248c0-0.142,0.113-0.254,0.254-0.254h1.136
		c0.126,0,0.231,0.092,0.251,0.217c0.171,1.157,0.682,1.74,3.01,1.74c1.854,0,2.641-0.418,2.641-1.401
		c0-0.565-0.225-0.986-3.104-1.268c-2.408-0.238-3.896-0.77-3.896-2.694c0-1.774,1.497-2.831,4.004-2.831
		c2.814,0,4.21,0.978,4.387,3.078c0.007,0.072-0.02,0.143-0.069,0.195c-0.047,0.05-0.116,0.082-0.187,0.082h-1.142
		c-0.119,0-0.223-0.084-0.247-0.199c-0.275-1.217-0.939-1.606-2.747-1.606c-2.023,0-2.259,0.704-2.259,1.232
		c0,0.641,0.277,0.828,3.007,1.189c2.704,0.357,3.987,0.864,3.987,2.764c0,1.915-1.599,3.014-4.386,3.014 M62.856,62.075h0.295
		c0.242,0,0.288-0.17,0.288-0.269c0-0.26-0.179-0.26-0.277-0.26h-0.304L62.856,62.075z M62.497,61.242h0.654
		c0.225,0,0.664,0,0.664,0.503c0,0.35-0.224,0.423-0.358,0.466c0.263,0.018,0.279,0.19,0.314,0.432
		c0.018,0.152,0.047,0.414,0.1,0.502h-0.403c-0.011-0.088-0.072-0.572-0.072-0.599c-0.026-0.107-0.063-0.161-0.198-0.161h-0.332
		v0.762h-0.368V61.242z M61.711,62.189c0,0.788,0.637,1.426,1.418,1.426c0.788,0,1.424-0.651,1.424-1.426
		c0-0.791-0.645-1.417-1.426-1.417c-0.771,0-1.418,0.618-1.418,1.415 M64.826,62.194c0,0.933-0.764,1.694-1.694,1.694
		c-0.925,0-1.696-0.753-1.696-1.694c0-0.96,0.789-1.695,1.696-1.695c0.913,0,1.692,0.737,1.692,1.695"/>
	<path fill="#333333" d="M22.209,40.113c0-0.405-0.213-0.777-0.563-0.978l-9.324-5.365c-0.157-0.092-0.334-0.141-0.513-0.147h-0.096
		c-0.179,0.006-0.355,0.055-0.515,0.147l-9.323,5.365c-0.347,0.202-0.564,0.574-0.564,0.979l0.021,14.449
		c0,0.2,0.104,0.388,0.28,0.487c0.171,0.104,0.387,0.104,0.559,0l5.542-3.175c0.35-0.208,0.563-0.575,0.563-0.977v-6.751
		c0-0.402,0.213-0.774,0.563-0.975l2.36-1.359c0.175-0.102,0.368-0.152,0.563-0.152c0.193,0,0.39,0.05,0.56,0.151l2.358,1.359
		c0.349,0.2,0.563,0.572,0.563,0.975v6.75c0,0.401,0.216,0.771,0.564,0.978l5.54,3.172c0.174,0.104,0.391,0.104,0.563,0
		c0.171-0.099,0.279-0.286,0.279-0.486L22.209,40.113z M66.206,47.636c0,0.101-0.054,0.194-0.142,0.243l-3.202,1.846
		c-0.087,0.05-0.194,0.05-0.281,0l-3.203-1.846c-0.087-0.05-0.141-0.143-0.141-0.243v-3.698c0-0.101,0.054-0.193,0.14-0.244
		l3.199-1.849c0.089-0.05,0.196-0.05,0.285,0l3.202,1.849c0.088,0.051,0.142,0.143,0.142,0.244L66.206,47.636z M67.07,20.252
		c-0.175-0.097-0.388-0.095-0.56,0.006c-0.172,0.102-0.278,0.286-0.278,0.487v14.308c0,0.141-0.074,0.271-0.196,0.341
		c-0.121,0.071-0.272,0.071-0.395,0l-2.336-1.345c-0.348-0.202-0.775-0.202-1.125,0l-9.326,5.382
		c-0.349,0.2-0.563,0.573-0.563,0.973v10.769c0,0.402,0.215,0.772,0.563,0.976l9.326,5.386c0.349,0.2,0.777,0.2,1.126,0l9.327-5.389
		c0.348-0.202,0.564-0.573,0.564-0.975V24.333c0-0.408-0.223-0.784-0.58-0.983L67.07,20.252z M98.129,43.841
		c0.347-0.201,0.56-0.573,0.56-0.974v-2.609c0-0.402-0.213-0.772-0.562-0.974l-9.267-5.38c-0.351-0.202-0.779-0.202-1.129,0
		l-9.325,5.382c-0.35,0.203-0.563,0.572-0.563,0.976v10.765c0,0.403,0.218,0.778,0.568,0.979l9.266,5.28
		c0.341,0.196,0.759,0.198,1.104,0.007l5.604-3.114c0.176-0.099,0.288-0.286,0.288-0.489c0-0.202-0.107-0.392-0.284-0.49
		l-9.382-5.384c-0.176-0.099-0.283-0.287-0.283-0.487v-3.376c0-0.202,0.105-0.388,0.281-0.488l2.919-1.684
		c0.175-0.101,0.387-0.101,0.562,0l2.921,1.684c0.174,0.1,0.281,0.286,0.281,0.487v2.654c0,0.201,0.108,0.388,0.282,0.489
		c0.175,0.099,0.39,0.099,0.564-0.002L98.129,43.841z"/>
	<path fill="#689F63" d="M46.75,52.167c0,0,0.833-0.499,0.875-1.5l0.019-10.386c0,0-0.008-0.628-0.561-0.97l-9.282-5.354
		c0,0-0.512-0.322-1.11,0.001l-9.274,5.353c0,0-0.548,0.313-0.561,0.97l0.029,10.48c0,0-0.178,0.79,0.531,1.202l9.281,5.356
		c0,0,0.618,0.353,1.117,0.001L46.75,52.167z"/>
</g>
</svg>
