<?xml version="1.0" encoding="utf-8"?>
<!-- Generator: Adobe Illustrator 16.0.0, SVG Export Plug-In . SVG Version: 6.00 Build 0)  -->
<!DOCTYPE svg PUBLIC "-//W3C//DTD SVG 1.1//EN" "http://www.w3.org/Graphics/SVG/1.1/DTD/svg11.dtd">
<svg version="1.1" id="Layer_1" xmlns="http://www.w3.org/2000/svg" xmlns:xlink="http://www.w3.org/1999/xlink" x="0px" y="0px"
	 width="100px" height="100px" viewBox="0 0 100 100" enable-background="new 0 0 100 100" xml:space="preserve">
<g>
	
		<radialGradient id="SVGID_1_" cx="-183.9424" cy="-228.7749" r="0.0306" gradientTransform="matrix(2291.6716 0 0 -2218.7549 421570 -507572)" gradientUnits="userSpaceOnUse">
		<stop  offset="0" style="stop-color:#34364E;stop-opacity:0.98"/>
		<stop  offset="1" style="stop-color:#0C0824"/>
	</radialGradient>
	<path fill="url(#SVGID_1_)" d="M4.167,5.417h91.666v89.166H4.167V5.417z"/>
	<path fill="#31C5F0" d="M4.167,5.417h91.666v89.166H4.167V5.417z M0,98.75h100V1.25H0V98.75z M67.417,41.25
		c-3.292,0-4.417,1.666-4.417,3.041c0,1.5,0.75,2.542,5.167,4.833c6.542,3.167,8.583,6.208,8.583,10.667
		c0,6.668-5.084,10.251-11.959,10.251c-3.625,0-6.75-0.75-8.541-1.792c-0.291-0.125-0.333-0.333-0.333-0.666v-6.126
		c0-0.416,0.208-0.541,0.5-0.334c2.625,1.71,5.625,2.459,8.374,2.459c3.292,0,4.667-1.375,4.667-3.249
		c0-1.501-0.958-2.834-5.166-5.001c-5.917-2.834-8.375-5.708-8.375-10.499c0-5.375,4.208-9.834,11.5-9.834
		c3.583,0,6.083,0.542,7.458,1.167c0.334,0.208,0.416,0.542,0.416,0.833v5.708c0,0.333-0.208,0.541-0.624,0.416
		C72.834,41.958,70.125,41.25,67.417,41.25L67.417,41.25z M31.583,46.209c0.958,0.082,1.708,0.082,3.375,0.082
		c4.875,0,9.458-1.708,9.458-8.333c0-5.292-3.291-7.958-8.833-7.958c-1.666,0-3.25,0.083-4,0.125V46.209z M24.167,24.083
		c0-0.292,0.583-0.5,0.917-0.5c2.667-0.125,6.625-0.208,10.75-0.208c11.542,0,16.042,6.333,16.042,14.417
		c0,10.583-7.667,15.124-17.083,15.124c-1.583,0-2.125-0.083-3.25-0.083v16c0,0.334-0.125,0.501-0.5,0.501h-6.375
		c-0.333,0-0.5-0.126-0.5-0.501V24.083L24.167,24.083z"/>
</g>
</svg>
