<?xml version="1.0" encoding="utf-8"?>
<!-- Generator: Adobe Illustrator 16.0.0, SVG Export Plug-In . SVG Version: 6.00 Build 0)  -->
<!DOCTYPE svg PUBLIC "-//W3C//DTD SVG 1.1//EN" "http://www.w3.org/Graphics/SVG/1.1/DTD/svg11.dtd">
<svg version="1.1" id="Layer_1" xmlns="http://www.w3.org/2000/svg" xmlns:xlink="http://www.w3.org/1999/xlink" x="0px" y="0px"
	 width="100px" height="100px" viewBox="0 0 100 100" enable-background="new 0 0 100 100" xml:space="preserve">
<g>
	<ellipse fill="#8892BD" cx="50" cy="50" rx="49.676" ry="25.859"/>
	<path fill="#232531" d="M32.306,37.75H19.718l-5.444,27.56h6.464l1.362-7.145h6.124c5.784,0.34,12.248-4.424,12.248-12.589
		C40.472,40.813,37.75,38.091,32.306,37.75z M27.544,53.063h-4.082h-0.001l1.702-10.208h4.423c2.379,0,4.082,1.021,4.082,3.062
		C33.328,51.701,30.605,52.723,27.544,53.063z"/>
	<path fill="#232531" d="M39.208,58.166l5.445-27.56h6.465l-1.361,7.145h6.125c5.441,0.34,7.484,3.062,6.805,6.465l-2.383,13.951
		h-6.805l2.383-12.589c0.34-1.701,0.34-2.722-2.041-2.722h-5.105l-3.062,15.311H39.208z"/>
	<path fill="#232531" d="M77.9,37.75h-12.59l-5.443,27.56h6.465l1.361-7.145h6.125c5.783,0.34,12.248-4.424,12.248-12.589
		C86.066,40.813,83.344,38.091,77.9,37.75z M73.137,53.063h-4.084l1.703-10.208h4.422c2.383,0,4.082,1.021,4.082,3.062
		C78.922,51.701,76.199,52.723,73.137,53.063z"/>
</g>
</svg>
