<?xml version="1.0" encoding="utf-8"?>
<!-- Generator: Adobe Illustrator 16.0.0, SVG Export Plug-In . SVG Version: 6.00 Build 0)  -->
<!DOCTYPE svg PUBLIC "-//W3C//DTD SVG 1.1//EN" "http://www.w3.org/Graphics/SVG/1.1/DTD/svg11.dtd">
<svg version="1.1" id="Layer_1" xmlns="http://www.w3.org/2000/svg" xmlns:xlink="http://www.w3.org/1999/xlink" x="0px" y="0px"
	 width="100px" height="100px" viewBox="0 0 100 100" enable-background="new 0 0 100 100" xml:space="preserve">
<g>
	<circle fill="#00D8FF" cx="50.001" cy="49.92" r="8.357"/>
	<path fill="#00D8FF" d="M50.001,69.081c-11.736,0-22-1.389-29.684-4.014C9.76,61.457,3.202,55.652,3.202,49.919
		c0-5.525,6.07-10.94,16.237-14.483c8.333-2.906,19.188-4.508,30.561-4.508c11.161,0,21.87,1.571,30.157,4.425
		c10.42,3.588,16.641,9.033,16.641,14.566c0,5.745-6.786,11.561-17.71,15.183C71.345,67.666,61.015,69.081,50.001,69.081z
		 M50.001,34.928c-10.78,0-21.438,1.561-29.245,4.283c-9.364,3.265-13.555,7.73-13.555,10.708c0,3.101,4.509,7.979,14.409,11.363
		c7.273,2.485,17.091,3.799,28.392,3.799c10.595,0,20.48-1.341,27.828-3.776C88.117,57.896,92.8,53.013,92.8,49.919
		c0-2.883-4.362-7.487-13.943-10.785C70.978,36.42,60.73,34.928,50.001,34.928z"/>
	<path fill="#00D8FF" d="M31.018,91.597c-1.704,0-3.208-0.368-4.468-1.096c-4.786-2.762-6.444-10.727-4.435-21.303
		c1.647-8.674,5.682-18.875,11.362-28.725c5.571-9.661,12.281-18.152,18.897-23.912c6.073-5.286,11.988-8.196,16.661-8.196
		c1.619,0,3.061,0.356,4.273,1.058c4.977,2.869,6.626,11.654,4.305,22.925c-1.646,7.989-5.585,17.645-11.087,27.187
		c-5.862,10.169-12.192,18.369-18.304,23.71C42.146,88.552,35.875,91.597,31.018,91.597z M69.032,12.363
		c-3.598,0-8.842,2.697-14.034,7.214c-6.289,5.477-12.703,13.608-18.058,22.895c-5.384,9.334-9.356,19.348-10.9,27.473
		c-1.849,9.744-0.074,15.604,2.505,17.093c0.646,0.373,1.476,0.562,2.471,0.562c3.848,0,9.294-2.755,14.572-7.365
		c5.784-5.056,11.828-12.905,17.473-22.699c5.294-9.182,9.07-18.413,10.634-25.994c2.185-10.611,0.295-17.109-2.386-18.655
		C70.71,12.539,69.944,12.363,69.032,12.363z"/>
	<path fill="#00D8FF" d="M69.002,91.635c-4.604,0-10.392-2.803-16.297-7.884c-6.693-5.76-13.518-14.348-19.213-24.19
		c-5.59-9.661-9.597-19.716-11.28-28.315c-2.116-10.816-0.519-18.929,4.271-21.7c1.247-0.722,2.729-1.089,4.4-1.089
		c4.886,0,11.304,3.212,17.609,8.812c6.097,5.413,12.497,13.646,18.017,23.18c5.882,10.162,9.824,19.741,11.4,27.698
		c2.166,10.94,0.426,19.528-4.536,22.403C72.132,91.268,70.657,91.635,69.002,91.635z M30.883,12.453
		c-0.96,0-1.768,0.186-2.398,0.551c-2.496,1.445-4.294,7.528-2.349,17.474c1.6,8.176,5.44,17.793,10.815,27.08
		c5.399,9.325,12.093,17.77,18.362,23.161c5.105,4.394,10.097,6.917,13.688,6.917c0.944,0,1.743-0.184,2.372-0.549
		c2.684-1.555,4.646-7.9,2.613-18.163c-1.488-7.531-5.271-16.686-10.938-26.474c-5.31-9.172-11.424-17.055-17.212-22.193
		C40.336,15.372,34.744,12.453,30.883,12.453z"/>
</g>
</svg>
