<?xml version="1.0" encoding="utf-8"?>
<!-- Generator: Adobe Illustrator 16.0.0, SVG Export Plug-In . SVG Version: 6.00 Build 0)  -->
<!DOCTYPE svg PUBLIC "-//W3C//DTD SVG 1.1//EN" "http://www.w3.org/Graphics/SVG/1.1/DTD/svg11.dtd">
<svg version="1.1" id="Layer_1" xmlns="http://www.w3.org/2000/svg" xmlns:xlink="http://www.w3.org/1999/xlink" x="0px" y="0px"
	 width="100px" height="100px" viewBox="0 0 100 100" enable-background="new 0 0 100 100" xml:space="preserve">
<g>
	<path fill="#CF649A" d="M85.465,55.468c-3.435,0.02-6.411,0.846-8.906,2.074c-0.922-1.823-1.844-3.418-1.998-4.607
		c-0.171-1.382-0.383-2.228-0.171-3.878c0.21-1.652,1.17-3.993,1.17-4.185c-0.019-0.174-0.211-1.019-2.188-1.038
		c-1.978-0.019-3.686,0.385-3.878,0.902c-0.192,0.52-0.576,1.709-0.825,2.938c-0.346,1.804-3.955,8.197-6.01,11.557
		c-0.672-1.305-1.248-2.457-1.362-3.38c-0.174-1.381-0.384-2.227-0.174-3.877c0.212-1.651,1.172-3.994,1.172-4.187
		c-0.02-0.172-0.212-1.017-2.188-1.035c-1.978-0.02-3.687,0.385-3.878,0.902c-0.192,0.518-0.403,1.747-0.825,2.938
		c-0.403,1.189-5.203,11.864-6.451,14.647c-0.634,1.422-1.19,2.553-1.593,3.321c-0.404,0.769-0.02,0.058-0.058,0.135
		c-0.346,0.653-0.538,1.017-0.538,1.017v0.02c-0.268,0.48-0.556,0.94-0.691,0.94c-0.096,0-0.288-1.286,0.039-3.052
		c0.71-3.706,2.438-9.483,2.419-9.694c0-0.097,0.326-1.114-1.114-1.633c-1.402-0.519-1.901,0.346-2.016,0.346
		c-0.115,0-0.211,0.308-0.211,0.308s1.555-6.508-2.976-6.508c-2.841,0-6.758,3.091-8.697,5.912
		c-1.228,0.673-3.839,2.092-6.604,3.609c-1.056,0.576-2.15,1.19-3.187,1.747l-0.211-0.23C18.023,55.623,7.867,51.476,8.29,43.604
		c0.154-2.861,1.152-10.406,19.505-19.544c15.033-7.488,27.069-5.433,29.162-0.864c2.976,6.527-6.431,18.66-22.059,20.408
		c-5.952,0.671-9.081-1.633-9.868-2.496c-0.826-0.903-0.941-0.94-1.248-0.768c-0.5,0.269-0.192,1.075,0,1.555
		c0.461,1.21,2.38,3.36,5.645,4.435c2.86,0.941,9.848,1.458,18.295-1.805c9.464-3.667,16.855-13.841,14.687-22.346
		c-2.208-8.659-16.568-11.5-30.141-6.682c-8.082,2.88-16.836,7.373-23.133,13.267c-7.487,6.988-8.678,13.092-8.179,15.627
		c1.747,9.043,14.207,14.937,19.198,19.295c-0.25,0.133-0.479,0.268-0.691,0.384c-2.496,1.228-11.999,6.2-14.379,11.46
		C2.396,81.482,5.506,85.764,7.58,86.34c6.412,1.785,12.978-1.421,16.529-6.7c3.533-5.28,3.11-12.135,1.479-15.264l-0.058-0.113
		l1.958-1.152c1.268-0.75,2.515-1.44,3.61-2.036c-0.615,1.671-1.057,3.648-1.287,6.527c-0.269,3.38,1.113,7.757,2.937,9.484
		c0.807,0.748,1.767,0.769,2.362,0.769c2.112,0,3.072-1.748,4.127-3.84c1.306-2.554,2.458-5.51,2.458-5.51s-1.44,8.005,2.496,8.005
		c1.44,0,2.88-1.862,3.532-2.821v0.019c0,0,0.039-0.058,0.115-0.192c0.154-0.229,0.23-0.364,0.23-0.364v-0.038
		c0.576-0.999,1.863-3.283,3.781-7.065c2.478-4.877,4.856-10.981,4.856-10.981s0.231,1.498,0.941,3.954
		c0.424,1.461,1.345,3.053,2.055,4.607c-0.576,0.808-0.921,1.269-0.921,1.269l0.019,0.019c-0.461,0.614-0.979,1.268-1.518,1.92
		c-1.957,2.343-4.299,5.011-4.606,5.778c-0.364,0.902-0.288,1.574,0.422,2.112c0.519,0.385,1.44,0.461,2.42,0.385
		c1.765-0.116,2.994-0.558,3.608-0.827c0.961-0.345,2.055-0.863,3.11-1.632c1.92-1.419,3.091-3.436,2.976-6.123
		c-0.058-1.479-0.538-2.938-1.133-4.319c0.174-0.25,0.346-0.5,0.519-0.769c3.033-4.436,5.376-9.311,5.376-9.311
		s0.23,1.496,0.94,3.954c0.364,1.248,1.094,2.611,1.747,3.955c-2.841,2.322-4.627,5.011-5.24,6.777
		c-1.134,3.264-0.251,4.742,1.419,5.087c0.749,0.153,1.824-0.192,2.631-0.537c0.998-0.326,2.208-0.884,3.321-1.708
		c1.92-1.422,3.763-3.399,3.667-6.067C78.4,62.36,78.074,61.151,77.633,60c2.419-0.999,5.549-1.575,9.523-1.096
		c8.543,1,10.232,6.336,9.905,8.563c-0.326,2.229-2.112,3.456-2.706,3.841c-0.597,0.365-0.788,0.499-0.73,0.767
		c0.077,0.404,0.347,0.385,0.863,0.309c0.711-0.116,4.493-1.824,4.646-5.933C99.366,61.17,94.355,55.411,85.465,55.468
		L85.465,55.468z M19.579,77.682c-2.823,3.092-6.796,4.262-8.486,3.263c-1.824-1.056-1.113-5.605,2.362-8.889
		c2.111-1.997,4.857-3.839,6.661-4.973c0.403-0.249,1.018-0.613,1.747-1.057c0.116-0.075,0.192-0.113,0.192-0.113
		c0.135-0.078,0.288-0.175,0.441-0.271C23.783,70.328,22.554,74.437,19.579,77.682L19.579,77.682z M40.217,63.647
		c-0.979,2.399-3.053,8.563-4.301,8.216c-1.075-0.287-1.728-4.952-0.211-9.56c0.768-2.323,2.399-5.088,3.36-6.164
		c1.554-1.728,3.244-2.304,3.667-1.593C43.23,55.468,40.831,62.149,40.217,63.647z M57.245,71.787
		c-0.423,0.211-0.807,0.364-0.979,0.249c-0.135-0.076,0.173-0.363,0.173-0.363s2.131-2.286,2.976-3.342
		c0.48-0.614,1.057-1.324,1.671-2.13v0.229C61.085,69.194,58.435,71.039,57.245,71.787z M70.376,68.793
		c-0.307-0.231-0.269-0.941,0.768-3.168c0.404-0.884,1.325-2.362,2.919-3.764c0.192,0.576,0.306,1.134,0.288,1.651
		C74.332,66.969,71.874,68.255,70.376,68.793z"/>
</g>
</svg>
