<?xml version="1.0" encoding="utf-8"?>
<!-- Generator: Adobe Illustrator 16.0.0, SVG Export Plug-In . SVG Version: 6.00 Build 0)  -->
<!DOCTYPE svg PUBLIC "-//W3C//DTD SVG 1.1//EN" "http://www.w3.org/Graphics/SVG/1.1/DTD/svg11.dtd">
<svg version="1.1" id="Layer_1" xmlns="http://www.w3.org/2000/svg" xmlns:xlink="http://www.w3.org/1999/xlink" x="0px" y="0px"
	 width="100px" height="100px" viewBox="0 0 100 100" enable-background="new 0 0 100 100" xml:space="preserve">
<g>
	<g>
		<path fill="#71CBDB" d="M20.97,49.368c-2.703,0.846-5.416,1.667-8.108,2.543c-5.412,1.765-9.641-0.18-11.792-5.45
			c-0.096-0.234-0.251-0.447-0.379-0.671c0-1.29,0-2.58,0-3.867c1.237-4.009,4.011-6.26,8.024-7.254
			c2.277-0.564,4.491-1.401,6.734-2.114c0.1,0.02,0.197,0.042,0.297,0.07c1.538,5.534,3.374,10.973,5.259,16.393
			C20.992,49.137,20.978,49.253,20.97,49.368z"/>
		<path fill="#3EBA91" d="M41.635,99.315c-4.216-1.456-6.28-4.635-7.237-8.804c-0.463-2.02-1.205-3.976-1.818-5.961
			c1.609-0.554,3.214-1.115,4.825-1.659c3.875-1.308,7.753-2.604,11.628-3.906c0.097,0.012,0.189,0.035,0.279,0.069
			c0.863,2.703,1.724,5.403,2.579,8.107c1.777,5.605-0.423,9.978-5.989,11.9c-0.146,0.05-0.265,0.167-0.398,0.254
			C44.215,99.315,42.925,99.315,41.635,99.315z"/>
		<path fill="#E01865" d="M49.313,79.055c-0.089-0.037-0.184-0.058-0.278-0.069c0.102-0.727-0.276-1.341-0.483-1.994
			c-1.549-4.921-3.114-9.838-4.671-14.758c0.653-0.229,1.305-0.462,1.958-0.688c5.391-1.868,10.9-3.372,16.234-5.413
			c0.078,0.035,0.155,0.066,0.237,0.094c0.44,2.642,1.555,5.079,2.324,7.624c0.915,3.046,1.753,6.135,3.137,9.025
			c-0.025,0.102-0.056,0.199-0.097,0.297c-4.087,0.926-7.969,2.504-11.964,3.729C53.561,77.563,51.442,78.334,49.313,79.055z"/>
		<path fill="#71CBDB" d="M32.28,26.805c1.541-0.014,2.921-0.693,4.327-1.163c4.674-1.564,9.43-2.889,14.014-4.719
			c0.064,0.026,0.123,0.063,0.177,0.106c1.72,5.607,3.452,11.212,5.483,16.717c-0.038,0.087-0.083,0.17-0.131,0.25
			c-1.149,0.053-2.178,0.549-3.245,0.887c-5.006,1.58-10.009,3.179-15.012,4.769c-0.352-0.596-0.598-1.223-0.817-1.891
			c-1.608-4.881-2.939-9.854-4.843-14.635C32.247,27.018,32.263,26.912,32.28,26.805z"/>
		<path fill="#E8A825" d="M56.15,37.997c0.048-0.08,0.093-0.164,0.131-0.25c1.611-0.175,3.053-0.923,4.578-1.393
			c4.023-1.247,8.037-2.533,12.053-3.803c1.629,4.907,3.253,9.813,4.878,14.72c0.369,1.114,0.722,2.235,1.08,3.352
			c-0.062,0.104-0.116,0.206-0.175,0.309c-5.521,1.584-10.979,3.362-16.385,5.298c-0.082-0.027-0.159-0.058-0.237-0.093
			C60.096,50.089,58.123,44.042,56.15,37.997z"/>
		<path fill="#67873B" d="M72.912,32.55c-4.016,1.27-8.029,2.556-12.056,3.803c-1.522,0.47-2.964,1.218-4.576,1.393
			c-2.033-5.505-3.763-11.109-5.484-16.717c2.119-0.716,4.229-1.449,6.359-2.141c3.393-1.099,6.744-2.319,10.214-3.162
			c0.473,0.425,0.519,1.044,0.703,1.593c1.657,4.983,3.3,9.969,4.95,14.956C72.989,32.37,72.955,32.462,72.912,32.55z"/>
		<path fill="#3EBA91" d="M32.28,26.805c-0.017,0.106-0.033,0.212-0.049,0.321c-1.971,0.64-3.95,1.267-5.915,1.926
			c-3.528,1.182-7.048,2.383-10.572,3.577c-0.099-0.029-0.197-0.051-0.297-0.071c-0.867-2.816-1.704-5.644-2.607-8.448
			c-1.627-5.066,0.704-9.969,5.532-11.557c4.727-1.555,9.518,0.999,11.198,5.991C30.495,21.292,31.378,24.051,32.28,26.805z"/>
		<path fill="#E01866" d="M78.693,50.93c0.058-0.104,0.115-0.206,0.172-0.309c3.111-0.607,6.011-1.896,9.043-2.76
			c5.26-1.498,10.337,1.7,11.275,7.085c0.733,4.206-1.806,8.327-6.051,9.786c-2.881,0.989-5.772,1.946-8.661,2.92
			c-0.095-0.023-0.187-0.043-0.276-0.066c-0.008-0.213,0.039-0.444-0.024-0.641c-1.658-5.135-3.328-10.264-5.012-15.389
			C79.082,51.322,78.852,51.137,78.693,50.93z"/>
		<path fill="#E8A825" d="M84.191,67.588c0.094,0.021,0.186,0.044,0.28,0.066c0.911,2.858,1.831,5.717,2.732,8.58
			c1.552,4.943-0.897,9.774-5.72,11.29c-4.69,1.473-9.521-1.107-11.091-5.934c-0.913-2.804-1.813-5.61-2.719-8.418
			c0.039-0.097,0.071-0.196,0.097-0.298C73.313,71.332,78.772,69.515,84.191,67.588z"/>
		<path fill="#E8A825" d="M67.369,15.729c-3.47,0.843-6.821,2.063-10.214,3.163c-2.13,0.689-4.24,1.424-6.359,2.14
			c-0.052-0.044-0.112-0.08-0.177-0.105c-0.876-2.756-1.754-5.514-2.631-8.271c-1.612-5.067,0.768-10.003,5.559-11.529
			c4.838-1.541,9.613,1.05,11.255,6.095c0.897,2.749,1.816,5.491,2.725,8.239C67.458,15.542,67.409,15.63,67.369,15.729z"/>
		<path fill="#71CBDB" d="M67.369,15.729c0.04-0.099,0.089-0.187,0.157-0.269c2.856-0.891,5.709-1.806,8.576-2.666
			c5.141-1.542,9.948,0.991,11.402,5.977c1.233,4.213-0.926,8.885-5.027,10.431c-3.097,1.17-6.302,2.06-9.458,3.076
			c-1.647-4.987-3.29-9.973-4.951-14.956C67.892,16.773,67.844,16.152,67.369,15.729z"/>
		<path fill="#3EBA91" d="M20.97,49.368c0.011-0.115,0.023-0.23,0.035-0.348c0.719,0.038,1.343-0.303,2.001-0.508
			c4.923-1.547,9.843-3.101,14.766-4.652c0.538,1.617,1.095,3.229,1.611,4.854c1.421,4.463,2.827,8.93,4.238,13.395
			c-2.323,0.791-4.651,1.572-6.972,2.369c-3.17,1.09-6.448,1.855-9.513,3.25c-0.097-0.021-0.189-0.053-0.277-0.095
			C25.079,61.484,23.019,55.428,20.97,49.368z"/>
		<path fill="#482B49" d="M27.133,67.727c3.065-1.396,6.345-2.16,9.514-3.25c2.322-0.797,4.649-1.581,6.972-2.369
			c0.1,0.018,0.186,0.059,0.258,0.126c1.559,4.92,3.123,9.837,4.673,14.758c0.205,0.653,0.583,1.268,0.482,1.994
			c-3.876,1.302-7.754,2.6-11.628,3.906c-1.611,0.544-3.217,1.105-4.825,1.659c-0.095-0.015-0.182-0.05-0.261-0.106
			c-0.458-1.538-0.884-3.086-1.383-4.611C29.616,75.813,28.22,71.819,27.133,67.727z"/>
		<path fill="#E01866" d="M27.133,67.727c1.087,4.093,2.483,8.087,3.802,12.107c0.5,1.524,0.925,3.074,1.383,4.613
			c-2.956,0.973-5.901,1.988-8.872,2.914c-4.618,1.447-9.39-1.068-10.928-5.701c-1.488-4.487,0.852-9.389,5.335-11.002
			c2.977-1.071,6-2.022,9.001-3.029C26.944,67.674,27.037,67.705,27.133,67.727z"/>
		<path fill="#1A957E" d="M37.77,43.859c-4.921,1.552-9.842,3.105-14.765,4.652c-0.657,0.205-1.283,0.546-2.002,0.508
			c-1.886-5.42-3.723-10.858-5.259-16.393c3.522-1.193,7.042-2.395,10.57-3.577c1.968-0.659,3.944-1.287,5.915-1.926
			c1.904,4.781,3.236,9.755,4.843,14.635c0.221,0.667,0.465,1.295,0.818,1.891C37.87,43.732,37.829,43.802,37.77,43.859z"/>
		<path fill="#CE2127" d="M84.191,67.588c-5.419,1.927-10.878,3.746-16.423,5.289c-1.386-2.892-2.219-5.98-3.138-9.026
			c-0.769-2.542-1.885-4.982-2.324-7.623c5.407-1.937,10.865-3.715,16.387-5.298c0.158,0.207,0.389,0.393,0.466,0.629
			c1.684,5.125,3.354,10.257,5.012,15.389C84.234,67.144,84.188,67.375,84.191,67.588z"/>
	</g>
</g>
</svg>
