<?xml version="1.0" encoding="utf-8"?>
<!-- Generator: Adobe Illustrator 16.0.0, SVG Export Plug-In . SVG Version: 6.00 Build 0)  -->
<!DOCTYPE svg PUBLIC "-//W3C//DTD SVG 1.1//EN" "http://www.w3.org/Graphics/SVG/1.1/DTD/svg11.dtd">
<svg version="1.1" id="Layer_1" xmlns="http://www.w3.org/2000/svg" xmlns:xlink="http://www.w3.org/1999/xlink" x="0px" y="0px"
	 width="100px" height="100px" viewBox="0 0 100 100" enable-background="new 0 0 100 100" xml:space="preserve">
<g>
	
		<linearGradient id="SVGID_1_" gradientUnits="userSpaceOnUse" x1="50.02" y1="122.0664" x2="50.02" y2="-19.8992" gradientTransform="matrix(1 0 0 -1 -0.02 99.0947)">
		<stop  offset="0" style="stop-color:#338CCB"/>
		<stop  offset="1" style="stop-color:#0C7BBF"/>
	</linearGradient>
	<path fill="url(#SVGID_1_)" d="M98.405,57.649c0.011-0.175-0.203-0.356-0.203-0.534c0-14.574,0-29.148,0-43.717
		c0-0.907,0.121-1.789-0.094-2.662c-1.408-5.84-6.094-9.463-12.478-9.463C61.8,1.27,38.026,1.27,14.192,1.278
		c-1.039,0-2.067,0.077-3.076,0.278c-5.899,1.209-9.792,6.046-9.81,12.16c-0.009,12.066,0,24.126,0.013,36.18
		c0,1.871,0.02,3.731,0.032,5.597c-0.005,0.148-0.027,0.291-0.027,0.426c0,10.444-0.005,20.89,0.01,31.339
		c0,0.699,0.133,1.42,0.312,2.102c1.446,5.674,6.217,9.358,12.189,9.364c24.121,0.01,48.229,0.004,72.352,0.004
		c1.807-0.004,3.577-0.294,5.229-1.065c4.751-2.248,7.007-6.146,7.249-11.265c0.11-2.288-0.1-4.596-0.1-6.892
		C98.55,72.22,98.416,64.933,98.405,57.649z M56.307,22.442c0-4.32,2.337-4.852,6.625-4.852c5.525,0,11.053,0,16.571,0
		c4.123,0,6.495,0.534,6.495,4.63c0.006,4.984,0.006,9.067,0.006,14.049c-0.006,4.989,0,9.524-0.006,14.517
		c-0.005,3.82-2.426,6.012-6.244,6.012c-5.75,0.004-11.489-0.134-17.23-0.101c-2.762,0.023-4.995-1.341-6.214-4.71
		c-0.128-0.342,0,0.109,0-0.274C56.31,41.658,56.307,32.493,56.307,22.442z M41.312,74.538c0,1.716-0.411,3.264-1.623,4.54
		c-1.118,1.172-2.482,1.816-4.106,1.827c-6.098,0.025-9.808,0.045-15.908,0c-3.198-0.022-5.651-2.561-5.67-5.828
		c-0.03-6.133-0.003-12.268-0.016-18.399c0-0.398-0.028-0.782-0.043-1.185c0.015-0.423,0.05-0.854,0.05-1.289
		c0-11.233,0.077-22.463-0.04-33.697c-0.054-4.023,2.798-6.69,6.629-6.603c5.487,0.13,9.841,0.032,15.334,0.032
		c4.282,0,5.492,2.365,5.492,6.678c0,11.771,0,23.541,0,35.319C41.417,56.37,41.315,68.763,41.312,74.538z"/>
</g>
</svg>
