<?xml version="1.0" encoding="utf-8"?>
<!-- Generator: Adobe Illustrator 16.0.0, SVG Export Plug-In . SVG Version: 6.00 Build 0)  -->
<!DOCTYPE svg PUBLIC "-//W3C//DTD SVG 1.1//EN" "http://www.w3.org/Graphics/SVG/1.1/DTD/svg11.dtd">
<svg version="1.1" id="Layer_1" xmlns="http://www.w3.org/2000/svg" xmlns:xlink="http://www.w3.org/1999/xlink" x="0px" y="0px"
	 width="100px" height="100px" viewBox="0 0 100 100" enable-background="new 0 0 100 100" xml:space="preserve">
<g>
	<defs>
		<rect id="SVGID_1_" x="2.654" y="2.654" width="94.692" height="94.692"/>
	</defs>
	<clipPath id="SVGID_2_">
		<use xlink:href="#SVGID_1_"  overflow="visible"/>
	</clipPath>
	<g clip-path="url(#SVGID_2_)">
		<path fill="#00759A" d="M244.703,39.928h-16.428v1.742c5.139,0,5.965,1.102,5.965,7.618v11.748c0,6.518-0.824,7.711-5.965,7.711
			c-3.941-0.553-6.607-2.662-10.279-6.701l-4.223-4.588c5.691-1.01,8.719-4.588,8.719-8.628c0-5.047-4.313-8.901-12.389-8.901
			h-16.152v1.742c5.139,0,5.963,1.102,5.963,7.618v11.748c0,6.518-0.824,7.711-5.963,7.711v1.742h18.262v-1.742
			c-5.135,0-5.963-1.193-5.963-7.711v-3.303h1.561l10.188,12.756h26.707c13.127,0,18.814-6.973,18.814-15.326
			C263.52,46.81,257.832,39.928,244.703,39.928L244.703,39.928z M206.25,54.885V42.68h3.764c4.127,0,5.967,2.845,5.967,6.15
			c0,3.21-1.84,6.054-5.967,6.054H206.25z M244.98,67.643h-0.645c-3.301,0-3.76-0.822-3.76-5.045V42.68h4.404
			c9.543,0,11.287,6.974,11.287,12.39C256.268,60.668,254.523,67.643,244.98,67.643z M142.832,58.283l6.332-18.725
			c1.836-5.415,1.013-6.974-4.863-6.974v-1.835h17.254v1.835c-5.779,0-7.158,1.376-9.453,8.076l-10.463,31.389h-1.193l-9.361-28.727
			l-9.545,28.727h-1.192L110.16,40.662c-2.203-6.701-3.673-8.076-8.994-8.076v-1.837h20.373v1.837c-5.416,0-6.885,1.285-4.957,6.973
			l6.152,18.725l9.268-27.534h1.744L142.832,58.283L142.832,58.283z M174.035,71.682c-10.096,0-18.355-7.434-18.355-16.521
			c0-8.994,8.26-16.428,18.355-16.428c10.094,0,18.355,7.435,18.355,16.428C192.391,64.248,184.131,71.682,174.035,71.682z
			 M174.035,41.579c-8.443,0-11.383,7.616-11.383,13.583c0,6.059,2.939,13.582,11.383,13.582c8.539,0,11.475-7.523,11.475-13.582
			C185.51,49.195,182.574,41.579,174.035,41.579L174.035,41.579z"/>
		<path fill="#474443" d="M286.186,68.654v1.834H265.17v-1.834c6.15,0,7.252-1.563,7.252-10.74V43.231
			c0-9.179-1.102-10.646-7.252-10.646v-1.837h18.996c9.451,0,14.686,4.864,14.686,11.382c0,6.333-5.234,11.289-14.686,11.289h-5.23
			v4.496C278.936,67.092,280.035,68.654,286.186,68.654L286.186,68.654z M284.166,34.052h-5.23v15.97h5.23
			c5.139,0,7.527-3.58,7.527-7.893C291.693,37.725,289.309,34.052,284.166,34.052z M361.9,61.863l-0.459,1.65
			c-0.824,3.029-1.836,4.129-8.352,4.129h-1.285c-4.771,0-5.598-1.1-5.598-7.615v-4.221c7.158,0,7.711,0.641,7.711,5.416h1.742
			V47.544h-1.742c0,4.772-0.553,5.415-7.711,5.415V42.68h5.045c6.52,0,7.527,1.102,8.354,4.13l0.461,1.745h1.467l-0.641-8.627
			h-26.984v1.742c5.139,0,5.967,1.102,5.967,7.618v11.748c0,5.961-0.701,7.463-4.756,7.68c-3.85-0.592-6.494-2.691-10.113-6.67
			l-4.221-4.588c5.689-1.01,8.721-4.588,8.721-8.628c0-5.047-4.313-8.901-12.389-8.901h-16.154v1.742
			c5.139,0,5.965,1.102,5.965,7.618v11.748c0,6.518-0.826,7.711-5.965,7.711v1.742h18.264v-1.742c-5.135,0-5.965-1.193-5.965-7.711
			v-3.303h1.563l10.188,12.756h37.721l0.549-8.625H361.9L361.9,61.863z M313.26,54.885V42.68h3.764c4.131,0,5.967,2.845,5.967,6.15
			c0,3.21-1.836,6.054-5.967,6.054H313.26z M380.533,71.682c-3.672,0-6.885-1.926-8.262-3.121c-0.459,0.459-1.285,1.836-1.467,3.121
			h-1.744V59.016h1.834c0.736,6.059,4.957,9.639,10.371,9.639c2.938,0,5.322-1.652,5.322-4.406c0-2.385-2.107-4.221-5.871-5.965
			l-5.234-2.479c-3.67-1.744-6.422-4.773-6.422-8.811c0-4.405,4.129-8.167,9.818-8.167c3.031,0,5.598,1.103,7.16,2.388
			c0.459-0.369,0.918-1.377,1.193-2.479h1.742v10.829h-1.926c-0.645-4.313-3.027-7.893-7.893-7.893
			c-2.568,0-4.955,1.468-4.955,3.764c0,2.384,1.926,3.669,6.332,5.688l5.045,2.48c4.408,2.109,6.152,5.506,6.152,8.26
			C391.73,67.643,386.68,71.682,380.533,71.682L380.533,71.682z M408.799,71.682c-3.672,0-6.885-1.926-8.262-3.121
			c-0.457,0.459-1.281,1.836-1.463,3.121h-1.746V59.016h1.834c0.734,6.059,4.955,9.639,10.371,9.639
			c2.939,0,5.326-1.652,5.326-4.406c0-2.385-2.113-4.221-5.875-5.965l-5.232-2.479c-3.672-1.744-6.424-4.773-6.424-8.811
			c0-4.405,4.129-8.167,9.82-8.167c3.029,0,5.598,1.103,7.158,2.388c0.457-0.369,0.918-1.377,1.191-2.479h1.744v10.829h-1.926
			c-0.645-4.313-3.027-7.893-7.893-7.893c-2.57,0-4.957,1.468-4.957,3.764c0,2.384,1.928,3.669,6.334,5.688l5.047,2.48
			c4.404,2.109,6.148,5.506,6.148,8.26C419.996,67.643,414.945,71.682,408.799,71.682L408.799,71.682z"/>
		<g>
			<path fill="#00759A" d="M9.383,50c0,16.077,9.343,29.969,22.891,36.555L12.899,33.47C10.576,38.671,9.38,44.304,9.383,50
				L9.383,50z M77.421,47.951c0-5.02-1.804-8.497-3.351-11.203c-2.059-3.345-3.988-6.178-3.988-9.523c0-3.734,2.83-7.21,6.82-7.21
				c0.18,0,0.351,0.021,0.525,0.033C70.203,13.426,60.575,9.385,50.002,9.385c-14.191,0-26.676,7.28-33.938,18.308
				c0.955,0.028,1.854,0.048,2.614,0.048c4.249,0,10.825-0.516,10.825-0.516c2.19-0.129,2.446,3.087,0.26,3.345
				c0,0-2.2,0.259-4.649,0.389l14.79,43.993l8.892-26.659l-6.33-17.336c-2.187-0.128-4.259-0.387-4.259-0.387
				c-2.19-0.128-1.933-3.475,0.256-3.345c0,0,6.708,0.516,10.697,0.516c4.25,0,10.826-0.516,10.826-0.516
				c2.193-0.129,2.448,3.085,0.26,3.345c0,0-2.205,0.259-4.648,0.387l14.68,43.661l4.049-13.537
				C76.082,55.463,77.421,51.428,77.421,47.951L77.421,47.951z"/>
			<path fill="#00759A" d="M50.713,53.553l-12.187,35.41c3.725,1.1,7.591,1.656,11.477,1.656c4.727,0,9.263-0.82,13.486-2.301
				c-0.114-0.18-0.211-0.367-0.29-0.561L50.713,53.553z M85.639,30.514c0.178,1.293,0.273,2.682,0.273,4.176
				c0,4.121-0.77,8.754-3.087,14.547L70.418,85.107C82.493,78.066,90.615,64.986,90.615,50
				C90.626,43.189,88.915,36.485,85.639,30.514L85.639,30.514z"/>
			<path fill="#00759A" d="M50.002,2.654C23.894,2.654,2.654,23.892,2.654,50c0,26.11,21.24,47.348,47.349,47.348
				C76.105,97.348,97.35,76.109,97.35,50C97.35,23.892,76.105,2.654,50.002,2.654z M50.002,95.178
				c-24.91,0-45.18-20.268-45.18-45.178c0-24.908,20.268-45.173,45.18-45.173c24.906,0,45.171,20.265,45.171,45.173
				C95.174,74.91,74.908,95.178,50.002,95.178L50.002,95.178z"/>
		</g>
	</g>
</g>
</svg>
