<?xml version="1.0" encoding="utf-8"?>
<!-- Generator: Adobe Illustrator 16.0.0, SVG Export Plug-In . SVG Version: 6.00 Build 0)  -->
<!DOCTYPE svg PUBLIC "-//W3C//DTD SVG 1.1//EN" "http://www.w3.org/Graphics/SVG/1.1/DTD/svg11.dtd">
<svg version="1.1" id="Layer_1" xmlns="http://www.w3.org/2000/svg" xmlns:xlink="http://www.w3.org/1999/xlink" x="0px" y="0px"
	 width="800px" height="800px" viewBox="0 0 800 800" enable-background="new 0 0 800 800" xml:space="preserve">
<g>
	
		<path fill="none" stroke="#FFFFFF" stroke-width="4.9901" stroke-linecap="round" stroke-linejoin="round" stroke-miterlimit="10" d="
		M557.766,544.869c0,0-9.957,162.646-157.336,162.646c-147.374,0-157.334-162.646-157.334-162.646"/>
	<g>
		
			<path fill-rule="evenodd" clip-rule="evenodd" fill="none" stroke="#FFFFFF" stroke-width="4.9901" stroke-linecap="round" stroke-linejoin="round" stroke-miterlimit="10" d="
			M410.738,398.293"/>
		
			<path fill-rule="evenodd" clip-rule="evenodd" fill="none" stroke="#FFFFFF" stroke-width="4.9901" stroke-linecap="round" stroke-linejoin="round" stroke-miterlimit="10" d="
			M407.073,349.424"/>
		
			<path fill="none" stroke="#FFFFFF" stroke-width="4.9901" stroke-linecap="round" stroke-linejoin="round" stroke-miterlimit="10" d="
			M335.459,332.24c0-26.304,21.328-47.633,47.632-47.633c21.052,0,38.107,17.064,38.107,38.109
			c0,16.835-13.645,30.485-30.484,30.485c-13.471,0-24.387-10.918-24.387-24.387c0-10.775,8.734-19.514,19.509-19.514
			c8.623,0,15.61,6.991,15.61,15.61c0,6.898-5.591,12.487-12.486,12.487"/>
		
			<path fill="none" stroke="#FFFFFF" stroke-width="4.9901" stroke-linecap="round" stroke-linejoin="round" stroke-miterlimit="10" d="
			M397.93,352.21c5.271,22.407,28.162,36.195,51.127,30.792c18.371-4.322,29.845-22.362,25.627-40.289
			c-3.376-14.34-18.025-23.166-32.726-19.706c-11.758,2.765-19.098,14.309-16.396,25.783c2.158,9.178,11.533,14.826,20.938,12.615
			c7.526-1.771,12.221-9.16,10.496-16.504c-1.384-5.875-7.38-9.488-13.404-8.07"/>
		
			<path fill="none" stroke="#FFFFFF" stroke-width="4.9901" stroke-linecap="round" stroke-linejoin="round" stroke-miterlimit="10" d="
			M532.331,375.724c-8.985,18.58-0.842,41.109,18.204,50.319c15.23,7.369,33.405,1.292,40.593-13.571
			c5.753-11.895,0.539-26.312-11.649-32.208c-9.746-4.715-21.377-0.825-25.979,8.689c-3.682,7.609-0.344,16.838,7.456,20.612
			c6.235,3.016,13.678,0.524,16.628-5.562c2.355-4.873,0.22-10.776-4.772-13.192"/>
		
			<path fill="none" stroke="#FFFFFF" stroke-width="4.9901" stroke-linecap="round" stroke-linejoin="round" stroke-miterlimit="10" d="
			M606.816,401.797c-16.238,4.656-25.535,21.921-20.765,38.563c3.812,13.309,17.44,21.084,30.43,17.359
			c10.396-2.979,16.347-14.026,13.293-24.683c-2.442-8.517-11.165-13.487-19.479-11.105c-6.649,1.909-10.459,8.975-8.504,15.795
			c1.56,5.449,7.147,8.633,12.464,7.114c4.259-1.224,6.692-5.75,5.447-10.114"/>
		
			<path fill="none" stroke="#FFFFFF" stroke-width="4.9901" stroke-linecap="round" stroke-linejoin="round" stroke-miterlimit="10" d="
			M645.758,370.417c15.315,5.692,32.461-2.407,38.298-18.102c4.678-12.555-1.476-26.429-13.727-30.984
			c-9.8-3.646-20.775,1.541-24.512,11.586c-2.988,8.034,0.948,16.907,8.788,19.826c6.272,2.333,13.296-0.981,15.687-7.409
			c1.916-5.144-0.606-10.828-5.626-12.697c-4.013-1.492-8.507,0.634-10.039,4.748"/>
		
			<path fill="none" stroke="#FFFFFF" stroke-width="4.9901" stroke-linecap="round" stroke-linejoin="round" stroke-miterlimit="10" d="
			M556.534,429.663c-15.418,11.688-18.212,33.968-6.235,49.768c9.579,12.641,27.347,15.308,39.679,5.956
			c9.87-7.478,11.657-21.739,3.996-31.854c-6.135-8.087-17.506-9.79-25.4-3.807c-6.313,4.784-7.456,13.91-2.55,20.383
			c3.92,5.177,11.194,6.265,16.249,2.439c4.039-3.064,4.771-8.904,1.635-13.046"/>
		
			<path fill="none" stroke="#FFFFFF" stroke-width="4.9901" stroke-linecap="round" stroke-linejoin="round" stroke-miterlimit="10" d="
			M585.653,345.546c-10.631,18.292-4.047,41.953,14.704,52.843c15.001,8.714,34.049,3.905,42.547-10.733
			c6.801-11.705,2.591-26.847-9.413-33.821c-9.597-5.576-21.785-2.498-27.229,6.867c-4.351,7.496-1.654,17.188,6.026,21.646
			c6.138,3.571,13.942,1.599,17.427-4.396c2.783-4.794,1.056-10.996-3.855-13.852"/>
		
			<path fill="none" stroke="#FFFFFF" stroke-width="4.9901" stroke-linecap="round" stroke-linejoin="round" stroke-miterlimit="10" d="
			M481.274,330.353c-9.923,16.965-3.872,38.964,13.512,49.133c13.913,8.143,31.63,3.726,39.567-9.846
			c6.346-10.859,2.475-24.939-8.655-31.449c-8.899-5.204-20.231-2.382-25.311,6.305c-4.066,6.948-1.592,15.958,5.528,20.127
			c5.696,3.33,12.951,1.523,16.206-4.037c2.604-4.451,1.015-10.212-3.541-12.881"/>
		
			<path fill="none" stroke="#FFFFFF" stroke-width="4.9901" stroke-linecap="round" stroke-linejoin="round" stroke-miterlimit="10" d="
			M437.53,255.163c23.731,8.389,49.943-4.526,58.542-28.853c6.879-19.459-2.942-40.677-21.935-47.387
			c-15.188-5.371-31.968,2.896-37.469,18.469c-4.402,12.451,1.884,26.026,14.037,30.32c9.722,3.438,20.459-1.853,23.979-11.814
			c2.818-7.969-1.205-16.658-8.982-19.412c-6.222-2.195-13.09,1.188-15.345,7.565"/>
		
			<path fill="none" stroke="#FFFFFF" stroke-width="4.9901" stroke-linecap="round" stroke-linejoin="round" stroke-miterlimit="10" d="
			M230.525,200.403c-13.298,16.937-10.009,41.717,7.348,55.344c13.888,10.905,33.771,8.754,44.407-4.794
			c8.512-10.84,6.408-26.699-4.702-35.422c-8.891-6.978-21.61-5.601-28.418,3.07c-5.447,6.938-4.102,17.087,3.007,22.668
			c5.686,4.466,13.829,3.584,18.188-1.965c3.487-4.44,2.626-10.934-1.928-14.506"/>
		
			<path fill="none" stroke="#FFFFFF" stroke-width="4.9901" stroke-linecap="round" stroke-linejoin="round" stroke-miterlimit="10" d="
			M338.803,347.234c-3.024-26.011-26.561-44.649-52.578-41.624c-20.808,2.42-35.715,21.254-33.297,42.062
			c1.936,16.648,16.999,28.575,33.649,26.64c13.319-1.549,22.86-13.6,21.309-26.918c-1.237-10.655-10.878-18.291-21.531-17.052
			c-8.528,0.993-14.63,8.708-13.639,17.231c0.79,6.819,6.96,11.704,13.78,10.91"/>
		
			<path fill="none" stroke="#FFFFFF" stroke-width="4.9901" stroke-linecap="round" stroke-linejoin="round" stroke-miterlimit="10" d="
			M368.342,207.437c-2.065-26.104-24.907-45.592-51.011-43.522c-20.887,1.654-36.475,19.929-34.821,40.811
			c1.326,16.707,15.94,29.181,32.65,27.857c13.368-1.06,23.342-12.753,22.281-26.12c-0.845-10.691-10.198-18.676-20.89-17.829
			c-8.56,0.678-14.944,8.164-14.265,16.719c0.544,6.843,6.527,11.95,13.372,11.407"/>
		
			<path fill="none" stroke="#FFFFFF" stroke-width="4.9901" stroke-linecap="round" stroke-linejoin="round" stroke-miterlimit="10" d="
			M403.044,132.617c0.417-19.09-14.714-34.908-33.806-35.33c-15.274-0.336-27.925,11.774-28.264,27.044
			c-0.268,12.219,9.418,22.343,21.636,22.611c9.776,0.216,17.871-7.532,18.087-17.307c0.171-7.818-6.026-14.3-13.845-14.473
			c-6.257-0.139-11.441,4.823-11.577,11.078c-0.114,5.006,3.855,9.151,8.858,9.262"/>
		
			<path fill="none" stroke="#FFFFFF" stroke-width="4.9901" stroke-linecap="round" stroke-linejoin="round" stroke-miterlimit="10" d="
			M422.163,215.045c19.148-17.811,20.234-47.775,2.421-66.927c-14.252-15.321-38.222-16.186-53.54-1.937
			c-12.259,11.401-12.952,30.579-1.551,42.833c9.124,9.805,24.463,10.358,34.266,1.243c7.841-7.297,8.29-19.568,0.997-27.419
			c-5.837-6.271-15.659-6.625-21.932-0.786c-5.022,4.665-5.304,12.519-0.639,17.539"/>
		
			<path fill="none" stroke="#FFFFFF" stroke-width="4.9901" stroke-linecap="round" stroke-linejoin="round" stroke-miterlimit="10" d="
			M338.692,164.492c10.423-17.454,4.727-40.053-12.73-50.475c-13.961-8.34-32.041-3.778-40.379,10.181
			c-6.674,11.172-3.024,25.637,8.144,32.308c8.937,5.334,20.507,2.416,25.844-6.518c4.269-7.151,1.938-16.406-5.212-20.677
			c-5.718-3.414-13.125-1.543-16.542,4.169c-2.729,4.576-1.24,10.501,3.341,13.233"/>
		
			<path fill="none" stroke="#FFFFFF" stroke-width="4.9901" stroke-linecap="round" stroke-linejoin="round" stroke-miterlimit="10" d="
			M414.149,300.51c24.875-18.175,30.306-53.078,12.129-77.951c-14.544-19.9-42.464-24.24-62.362-9.702
			c-15.919,11.633-19.398,33.971-7.762,49.89c9.308,12.736,27.173,15.514,39.911,6.206c10.188-7.443,12.416-21.739,4.97-31.926
			c-5.956-8.154-17.394-9.929-25.545-3.974c-6.519,4.765-7.946,13.913-3.178,20.435"/>
		
			<path fill="none" stroke="#FFFFFF" stroke-width="4.9901" stroke-linecap="round" stroke-linejoin="round" stroke-miterlimit="10" d="
			M464.424,326.676c24.122,9.16,51.114-2.963,60.27-27.092c7.332-19.3-2.377-40.884-21.669-48.215
			c-15.442-5.864-32.715,1.896-38.568,17.339c-4.696,12.351,1.511,26.165,13.861,30.854c9.882,3.752,20.938-1.21,24.691-11.092
			c3.002-7.908-0.975-16.747-8.881-19.754c-6.324-2.397-13.396,0.78-15.794,7.108"/>
		
			<path fill="none" stroke="#FFFFFF" stroke-width="4.9901" stroke-linecap="round" stroke-linejoin="round" stroke-miterlimit="10" d="
			M535.747,373.714c26.253,3.403,50.299-15.118,53.705-41.372c2.721-21.004-12.102-40.237-33.097-42.961
			c-16.804-2.179-32.195,9.672-34.372,26.479c-1.743,13.44,7.74,25.748,21.18,27.488c10.756,1.4,20.604-6.186,21.999-16.942
			c1.115-8.602-4.954-16.479-13.558-17.597c-6.885-0.891-13.185,3.961-14.078,10.848"/>
		
			<path fill="none" stroke="#FFFFFF" stroke-width="4.9901" stroke-linecap="round" stroke-linejoin="round" stroke-miterlimit="10" d="
			M589.214,322.93c21.377-0.727,38.116-18.643,37.391-40.02c-0.58-17.101-14.918-30.488-32.014-29.909
			c-13.681,0.466-24.396,11.93-23.928,25.611c0.368,10.943,9.541,19.51,20.483,19.141c8.759-0.296,15.616-7.633,15.318-16.39
			c-0.238-7.005-6.107-12.487-13.114-12.252c-5.604,0.192-9.99,4.887-9.801,10.492"/>
		
			<path fill="none" stroke="#FFFFFF" stroke-width="4.9901" stroke-linecap="round" stroke-linejoin="round" stroke-miterlimit="10" d="
			M547.196,289.466c27.723-12.012,40.469-44.226,28.454-71.957c-9.611-22.182-35.385-32.372-57.565-22.765
			c-17.746,7.688-25.9,28.307-18.212,46.055c6.148,14.197,22.642,20.716,36.836,14.565c11.359-4.918,16.585-18.113,11.66-29.47
			c-3.934-9.088-14.492-13.26-23.581-9.327c-7.264,3.153-10.609,11.594-7.458,18.866"/>
		
			<path fill="none" stroke="#FFFFFF" stroke-width="4.9901" stroke-linecap="round" stroke-linejoin="round" stroke-miterlimit="10" d="
			M624.312,266.654c17.96-11.083,23.542-34.63,12.453-52.596c-8.863-14.37-27.701-18.828-42.071-9.964
			c-11.501,7.095-15.068,22.165-7.973,33.661c5.674,9.197,17.729,12.052,26.924,6.376c7.358-4.539,9.648-14.184,5.105-21.541
			c-3.63-5.889-11.349-7.712-17.237-4.083c-4.708,2.906-6.17,9.078-3.26,13.789"/>
		
			<path fill="none" stroke="#FFFFFF" stroke-width="4.9901" stroke-linecap="round" stroke-linejoin="round" stroke-miterlimit="10" d="
			M506.739,202.589c24.652-19.405,28.908-55.125,9.502-79.776c-15.528-19.724-44.102-23.12-63.824-7.599
			c-15.778,12.421-18.499,35.28-6.077,51.059c9.933,12.619,28.218,14.797,40.842,4.858c10.098-7.949,11.845-22.578,3.893-32.676
			c-6.356-8.077-18.063-9.467-26.142-3.11c-6.462,5.088-7.58,14.449-2.49,20.911"/>
		
			<path fill="none" stroke="#FFFFFF" stroke-width="4.9901" stroke-linecap="round" stroke-linejoin="round" stroke-miterlimit="10" d="
			M296.973,171.141c-5.815-23.685-29.731-38.172-53.42-32.357c-18.951,4.654-30.538,23.791-25.887,42.736
			c3.725,15.161,19.032,24.432,34.193,20.709c12.129-2.977,19.542-15.222,16.563-27.348c-2.382-9.704-12.177-15.641-21.877-13.259
			c-7.765,1.909-12.511,9.746-10.604,17.509c1.527,6.208,7.792,10.005,14.002,8.48"/>
		
			<path fill="none" stroke="#FFFFFF" stroke-width="4.9901" stroke-linecap="round" stroke-linejoin="round" stroke-miterlimit="10" d="
			M283.593,375.5c-22.395-2.698-42.743,13.27-45.444,35.67c-2.161,17.922,10.618,34.192,28.535,36.355
			c14.338,1.728,27.36-8.492,29.087-22.83c1.383-11.469-6.795-21.883-18.264-23.266c-9.172-1.105-17.508,5.433-18.615,14.604
			c-0.885,7.343,4.351,14.011,11.69,14.896c5.872,0.707,11.203-3.479,11.912-9.351"/>
		
			<path fill="none" stroke="#FFFFFF" stroke-width="4.9901" stroke-linecap="round" stroke-linejoin="round" stroke-miterlimit="10" d="
			M255.33,444.128c-18.486-2.542-35.531,10.38-38.076,28.862c-2.03,14.793,8.306,28.421,23.091,30.46
			c11.831,1.627,22.741-6.641,24.368-18.472c1.305-9.465-5.312-18.19-14.776-19.493c-7.57-1.045-14.555,4.248-15.594,11.82
			c-0.839,6.057,3.4,11.642,9.457,12.478c4.844,0.664,9.316-2.723,9.979-7.566"/>
		
			<path fill="none" stroke="#FFFFFF" stroke-width="4.9901" stroke-linecap="round" stroke-linejoin="round" stroke-miterlimit="10" d="
			M252.982,354.206c-14.769-9.301-34.285-4.869-43.59,9.9c-7.445,11.819-3.896,27.432,7.919,34.875
			c9.457,5.953,21.948,3.117,27.901-6.336c4.762-7.563,2.493-17.554-5.071-22.318c-6.048-3.811-14.043-1.999-17.852,4.05
			c-3.054,4.843-1.597,11.239,3.244,14.288c3.871,2.439,8.985,1.275,11.424-2.595"/>
		
			<path fill="none" stroke="#FFFFFF" stroke-width="4.9901" stroke-linecap="round" stroke-linejoin="round" stroke-miterlimit="10" d="
			M238.254,423.777c-12.207-12.321-32.098-12.413-44.424-0.206c-9.854,9.773-9.925,25.685-0.157,35.542
			c7.818,7.889,20.542,7.942,28.432,0.127c6.308-6.251,6.352-16.434,0.103-22.741c-5.003-5.047-13.146-5.087-18.196-0.087
			c-4.042,4.004-4.069,10.521-0.067,14.563c3.203,3.228,8.414,3.249,11.644,0.052"/>
		
			<path fill="none" stroke="#FFFFFF" stroke-width="4.9901" stroke-linecap="round" stroke-linejoin="round" stroke-miterlimit="10" d="
			M213.816,358.486c-2.417-19.238-19.509-32.942-38.173-30.597c-14.939,1.876-25.47,15.878-23.542,31.273
			c1.554,12.317,12.491,21.084,24.436,19.584c9.559-1.201,16.3-10.163,15.063-20.014c-0.991-7.881-7.989-13.495-15.634-12.536
			c-6.116,0.768-10.437,6.507-9.641,12.811c0.633,5.046,5.111,8.635,10.006,8.02"/>
		
			<path fill="none" stroke="#FFFFFF" stroke-width="4.9901" stroke-linecap="round" stroke-linejoin="round" stroke-miterlimit="10" d="
			M138.835,402.183c-12.513,6.678-17.243,22.239-10.564,34.755c5.344,10.012,17.795,13.791,27.804,8.449
			c8.011-4.274,11.038-14.234,6.763-22.246c-3.422-6.405-11.387-8.825-17.795-5.406c-5.125,2.737-7.063,9.11-4.329,14.235
			c2.188,4.104,7.288,5.65,11.392,3.463c3.278-1.752,4.516-5.832,2.767-9.11"/>
		
			<path fill="none" stroke="#FFFFFF" stroke-width="4.9901" stroke-linecap="round" stroke-linejoin="round" stroke-miterlimit="10" d="
			M127.313,351.551c-13.485,8.119-17.835,25.64-9.714,39.128c6.498,10.792,20.513,14.269,31.302,7.774
			c8.634-5.201,11.419-16.412,6.222-25.043c-4.159-6.908-13.131-9.133-20.034-4.976c-5.525,3.326-7.31,10.501-3.985,16.026
			c2.664,4.423,8.406,5.848,12.827,3.187c3.536-2.129,4.673-6.722,2.545-10.258"/>
		
			<path fill="none" stroke="#FFFFFF" stroke-width="4.9901" stroke-linecap="round" stroke-linejoin="round" stroke-miterlimit="10" d="
			M200.003,271.898c-15.962-10.056-37.058-5.266-47.115,10.699c-8.043,12.774-4.209,29.65,8.558,37.693
			c10.223,6.438,23.721,3.372,30.159-6.847c5.149-8.174,2.696-18.975-5.48-24.122c-6.538-4.119-15.18-2.162-19.297,4.379
			c-3.297,5.233-1.727,12.146,3.506,15.441c4.186,2.637,9.711,1.379,12.351-2.805"/>
		
			<path fill="none" stroke="#FFFFFF" stroke-width="4.9901" stroke-linecap="round" stroke-linejoin="round" stroke-miterlimit="10" d="
			M166.991,329.806c-6.757-12.37-22.273-16.918-34.643-10.157c-9.898,5.414-13.534,17.822-8.127,27.716
			c4.332,7.917,14.257,10.83,22.176,6.5c6.332-3.461,8.66-11.403,5.198-17.735c-2.77-5.068-9.121-6.932-14.189-4.163
			c-4.056,2.217-5.544,7.3-3.327,11.354c1.773,3.242,5.839,4.433,9.083,2.661"/>
		
			<path fill="none" stroke="#FFFFFF" stroke-width="4.9901" stroke-linecap="round" stroke-linejoin="round" stroke-miterlimit="10" d="
			M228.132,198.571c-11.371-13.866-31.832-15.89-45.704-4.517c-11.097,9.099-12.714,25.473-3.614,36.567
			c7.28,8.877,20.375,10.171,29.252,2.892c7.104-5.825,8.138-16.301,2.312-23.4c-4.656-5.68-13.038-6.515-18.718-1.853
			c-4.548,3.727-5.208,10.434-1.478,14.978c2.978,3.637,8.341,4.167,11.977,1.184"/>
		
			<path fill="none" stroke="#FFFFFF" stroke-width="4.9901" stroke-linecap="round" stroke-linejoin="round" stroke-miterlimit="10" d="
			M174.441,266.223c10.006-7.912,11.701-22.439,3.791-32.445c-6.335-8.006-17.955-9.362-25.96-3.031
			c-6.405,5.067-7.491,14.362-2.423,20.768c4.05,5.124,11.487,5.99,16.612,1.938c4.096-3.241,4.794-9.19,1.551-13.289
			c-2.596-3.28-7.356-3.833-10.631-1.24c-2.626,2.075-3.07,5.881-0.997,8.505"/>
		
			<path fill="none" stroke="#FFFFFF" stroke-width="4.9901" stroke-linecap="round" stroke-linejoin="round" stroke-miterlimit="10" d="
			M355.775,292.577c4.672-25.396-12.124-49.779-37.526-54.452c-20.318-3.739-39.822,9.703-43.563,30.021
			c-2.989,16.255,7.762,31.858,24.019,34.851c13.003,2.392,25.484-6.21,27.877-19.214c1.914-10.404-4.962-20.391-15.369-22.305
			c-8.325-1.531-16.309,3.974-17.844,12.298c-1.224,6.66,3.181,13.046,9.835,14.273"/>
		
			<path fill="none" stroke="#FFFFFF" stroke-width="4.9901" stroke-linecap="round" stroke-linejoin="round" stroke-miterlimit="10" d="
			M259.146,322.101c12.272-19.584,6.343-45.409-13.244-57.682c-15.669-9.818-36.332-5.069-46.148,10.596
			c-7.851,12.535-4.055,29.064,8.479,36.918c10.028,6.283,23.25,3.246,29.531-6.782c5.024-8.021,2.599-18.602-5.423-23.627
			c-6.419-4.022-14.882-2.077-18.902,4.341c-3.219,5.133-1.662,11.903,3.474,15.12"/>
		
			<path fill="none" stroke="#FFFFFF" stroke-width="4.9901" stroke-linecap="round" stroke-linejoin="round" stroke-miterlimit="10" d="
			M204.838,382.969c-13.455-9.492-32.06-6.277-41.554,7.183c-7.594,10.766-5.019,25.65,5.748,33.241
			c8.609,6.075,20.516,4.021,26.591-4.594c4.862-6.888,3.216-16.414-3.677-21.271c-5.506-3.892-13.13-2.577-17.018,2.935
			c-3.11,4.413-2.058,10.51,2.35,13.62c3.527,2.488,8.409,1.644,10.894-1.884"/>
		
			<path fill="none" stroke="#FFFFFF" stroke-width="4.9901" stroke-linecap="round" stroke-linejoin="round" stroke-miterlimit="10" d="
			M391.609,354.227c6.035,22.094-6.985,44.902-29.082,50.935c-17.679,4.83-35.923-5.591-40.75-23.267
			c-3.863-14.142,4.47-28.738,18.613-32.6c11.314-3.09,22.988,3.578,26.079,14.89c2.469,9.052-2.859,18.395-11.912,20.865
			c-7.242,1.978-14.714-2.29-16.69-9.531c-1.584-5.794,1.833-11.769,7.621-13.351"/>
		
			<path fill="none" stroke="#FFFFFF" stroke-width="4.9901" stroke-linecap="round" stroke-linejoin="round" stroke-miterlimit="10" d="
			M230.817,500.247c-17.809-1.321-33.318,12.048-34.637,29.856c-1.056,14.248,9.638,26.653,23.884,27.709
			c11.397,0.85,21.322-7.708,22.167-19.105"/>
		
			<path fill="none" stroke="#FFFFFF" stroke-width="4.9901" stroke-linecap="round" stroke-linejoin="round" stroke-miterlimit="10" d="
			M567.441,490.393c17.941,1.833,30.993,17.865,29.158,35.799c-1.468,14.349-14.292,24.796-28.644,23.323
			c-11.479-1.17-19.833-11.431-18.658-22.915"/>
		
			<path fill="none" stroke="#FFFFFF" stroke-width="4.9901" stroke-linecap="round" stroke-linejoin="round" stroke-miterlimit="10" d="
			M577.873,549.423c4.537,7.401,2.212,17.077-5.185,21.614c-5.921,3.628-13.661,1.773-17.289-4.149"/>
		
			<path fill="none" stroke="#FFFFFF" stroke-width="4.9901" stroke-linecap="round" stroke-linejoin="round" stroke-miterlimit="10" d="
			M615.713,512.156c3.782,6.17,1.847,14.243-4.323,18.022c-4.936,3.024-11.39,1.479-14.417-3.46"/>
		
			<path fill="none" stroke="#FFFFFF" stroke-width="4.9901" stroke-linecap="round" stroke-linejoin="round" stroke-miterlimit="10" d="
			M178.118,506.058c-4.427,6.289-2.916,14.977,3.373,19.402c5.03,3.536,11.977,2.331,15.518-2.704"/>
		
			<path fill="none" stroke="#FFFFFF" stroke-width="4.9901" stroke-linecap="round" stroke-linejoin="round" stroke-miterlimit="10" d="
			M227.038,557.032c-3.839,6.26-1.873,14.446,4.383,18.283c5.008,3.069,11.557,1.499,14.627-3.509"/>
		
			<path fill="none" stroke="#FFFFFF" stroke-width="4.9901" stroke-linecap="round" stroke-linejoin="round" stroke-miterlimit="10" d="
			M326.997,394.444c-4.321,13.109-18.45,20.229-31.556,15.911c-10.485-3.457-16.184-14.761-12.727-25.247
			c2.764-8.389,11.806-12.948,20.193-10.182c6.714,2.212,10.358,9.446,8.149,16.158c-1.771,5.369-7.559,8.284-12.927,6.515"/>
		
			<path fill="none" stroke="#FFFFFF" stroke-width="4.9901" stroke-linecap="round" stroke-linejoin="round" stroke-miterlimit="10" d="
			M561.876,197.632c19.129-7.792,28.317-29.617,20.526-48.742c-6.232-15.302-23.694-22.659-38.99-16.422
			c-12.245,4.984-18.128,18.954-13.142,31.195c3.991,9.793,15.161,14.501,24.956,10.511c7.838-3.192,11.598-12.13,8.409-19.967"/>
		
			<path fill="none" stroke="#FFFFFF" stroke-width="4.9901" stroke-linecap="round" stroke-linejoin="round" stroke-miterlimit="10" d="
			M583.299,491.96c4.48,13.634,19.164,21.055,32.804,16.574c10.905-3.584,16.839-15.337,13.252-26.241
			c-2.864-8.724-12.267-13.475-20.989-10.604c-6.979,2.296-10.78,9.811-8.484,16.79c1.835,5.585,7.851,8.631,13.436,6.793"/>
		
			<path fill="none" stroke="#FFFFFF" stroke-width="4.9901" stroke-linecap="round" stroke-linejoin="round" stroke-miterlimit="10" d="
			M209.793,467.262c9.965,10.241,9.865,26.707-0.228,36.787c-8.073,8.06-21.084,7.948-29.055-0.244
			c-6.378-6.549-6.308-17.097,0.146-23.537c5.171-5.16,13.493-5.093,18.593,0.151c4.083,4.193,4.045,10.943-0.092,15.071"/>
		
			<path fill="none" stroke="#FFFFFF" stroke-width="4.9901" stroke-linecap="round" stroke-linejoin="round" stroke-miterlimit="10" d="
			M186.756,445.316c-12.342-6.546-27.649-1.849-34.198,10.496c-5.233,9.871-1.476,22.119,8.401,27.352
			c7.894,4.191,17.697,1.181,21.88-6.717c3.352-6.315,0.95-14.156-5.371-17.505c-5.057-2.681-11.33-0.758-14.013,4.299"/>
		
			<path fill="none" stroke="#FFFFFF" stroke-width="4.9901" stroke-linecap="round" stroke-linejoin="round" stroke-miterlimit="10" d="
			M246.552,349.745c6.292-11.583,2.003-26.071-9.581-32.367c-9.267-5.033-20.859-1.6-25.89,7.665
			c-4.028,7.413-1.283,16.69,6.129,20.713c5.929,3.22,13.35,1.029,16.568-4.904c2.577-4.744,0.823-10.683-3.923-13.26"/>
		
			<path fill="none" stroke="#FFFFFF" stroke-width="4.9901" stroke-linecap="round" stroke-linejoin="round" stroke-miterlimit="10" d="
			M642.096,393.503c5.92,9.951,18.78,13.221,28.737,7.299c7.954-4.733,10.572-15.027,5.832-22.985
			c-3.782-6.369-12.021-8.46-18.383-4.67c-5.098,3.028-6.773,9.614-3.736,14.708c2.421,4.074,7.688,5.418,11.766,2.993"/>
		
			<path fill="none" stroke="#FFFFFF" stroke-width="4.9901" stroke-linecap="round" stroke-linejoin="round" stroke-miterlimit="10" d="
			M627.646,400.687c-6.934,12.955-2.058,29.074,10.899,36.012c10.361,5.545,23.259,1.638,28.8-8.729
			c4.443-8.284,1.316-18.602-6.974-23.036c-6.633-3.554-14.885-1.056-18.437,5.577c-2.837,5.304-0.839,11.912,4.467,14.749"/>
		
			<path fill="none" stroke="#FFFFFF" stroke-width="4.9901" stroke-linecap="round" stroke-linejoin="round" stroke-miterlimit="10" d="
			M419.366,309.823c9.051,13.323,26.236,15.929,38.387,5.822c9.723-8.089,11.729-23.285,4.489-33.94
			c-5.788-8.531-16.791-10.196-24.566-3.724c-6.221,5.172-7.51,14.897-2.869,21.717c3.706,5.462,10.748,6.531,15.724,2.388"/>
		
			<path fill="none" stroke="#FFFFFF" stroke-width="4.9901" stroke-linecap="round" stroke-linejoin="round" stroke-miterlimit="10" d="
			M601.656,322.973c-0.655,13.288,9.59,24.592,22.877,25.242c10.634,0.525,19.674-7.673,20.196-18.301
			c0.422-8.506-6.141-15.739-14.646-16.154c-6.801-0.336-12.589,4.905-12.919,11.713c-0.271,5.441,3.926,10.074,9.372,10.339"/>
		
			<path fill="none" stroke="#FFFFFF" stroke-width="4.9901" stroke-linecap="round" stroke-linejoin="round" stroke-miterlimit="10" d="
			M625.08,300.823c4.916,14.706,20.691,22.68,35.222,17.818c11.628-3.889,17.862-16.585,13.927-28.351
			c-3.151-9.412-13.247-14.515-22.55-11.399c-7.437,2.485-11.433,10.605-8.909,18.139c2.017,6.023,8.479,9.295,14.433,7.3"/>
		
			<path fill="none" stroke="#FFFFFF" stroke-width="4.9901" stroke-linecap="round" stroke-linejoin="round" stroke-miterlimit="10" d="
			M664.69,279.169c4.41-9.515,0.273-20.804-9.245-25.216c-7.613-3.527-16.64-0.217-20.173,7.395
			c-2.82,6.091-0.173,13.314,5.916,16.137c4.873,2.261,10.653,0.14,12.911-4.731"/>
		
			<path fill="none" stroke="#FFFFFF" stroke-width="4.9901" stroke-linecap="round" stroke-linejoin="round" stroke-miterlimit="10" d="
			M585.678,173.441c8.756-4.34,19.374-0.756,23.711,8.004c3.471,7.008,0.604,15.498-6.405,18.97
			c-5.604,2.776-12.395,0.483-15.172-5.122c-2.223-4.484-0.385-9.921,4.099-12.141"/>
		
			<path fill="none" stroke="#FFFFFF" stroke-width="4.9901" stroke-linecap="round" stroke-linejoin="round" stroke-miterlimit="10" d="
			M145.316,248.456c-10.596,1.987-17.573,12.184-15.588,22.783c1.592,8.474,9.749,14.055,18.226,12.464
			c6.779-1.276,11.246-7.798,9.968-14.576c-1.012-5.432-6.237-8.998-11.66-7.981"/>
		
			<path fill="none" stroke="#FFFFFF" stroke-width="4.9901" stroke-linecap="round" stroke-linejoin="round" stroke-miterlimit="10" d="
			M617.34,460.104c4.48,10.699,16.68,15.768,27.235,11.344c8.449-3.538,12.386-13.342,8.802-21.899
			c-2.873-6.836-10.673-10.093-17.43-7.258c-5.409,2.266-7.927,8.541-5.632,14.018"/>
		
			<path fill="none" stroke="#FFFFFF" stroke-width="4.9901" stroke-linecap="round" stroke-linejoin="round" stroke-miterlimit="10" d="
			M147.417,288.38c-8.398-5.085-19.33-2.397-24.415,6c-4.069,6.721-1.917,15.461,4.803,19.532c5.374,3.254,12.37,1.535,15.621-3.842
			c2.604-4.301,1.229-9.895-3.073-12.501"/>
		
			<path fill="none" stroke="#FFFFFF" stroke-width="4.9901" stroke-linecap="round" stroke-linejoin="round" stroke-miterlimit="10" d="
			M422.737,143.949c14.825-4.807,22.938-20.72,18.131-35.544c-3.848-11.854-16.571-18.349-28.435-14.504
			c-9.484,3.083-14.679,13.262-11.598,22.748c2.458,7.593,10.607,11.743,18.198,9.279"/>
		
			<path fill="none" stroke="#FFFFFF" stroke-width="4.9901" stroke-linecap="round" stroke-linejoin="round" stroke-miterlimit="10" d="
			M219.431,260.517c0.926-11.149-7.364-20.93-18.515-21.854c-8.915-0.735-16.739,5.894-17.481,14.812
			c-0.585,7.136,4.716,13.396,11.85,13.984c5.71,0.474,10.718-3.772,11.189-9.482"/>
		
			<path fill="none" stroke="#FFFFFF" stroke-width="4.9901" stroke-linecap="round" stroke-linejoin="round" stroke-miterlimit="10" d="
			M571.221,534.167c8.014-1.486,13.304-9.191,11.815-17.205c-1.191-6.41-7.354-10.643-13.765-9.454"/>
		
			<path fill="none" stroke="#FFFFFF" stroke-width="4.9901" stroke-linecap="round" stroke-linejoin="round" stroke-miterlimit="10" d="
			M223.097,544.127c-8.014-1.489-13.301-9.193-11.815-17.207c1.194-6.411,7.353-10.64,13.764-9.454"/>
	</g>
</g>
</svg>
